<svg width="28" height="28" viewBox="0 0 28 28" fill="none" xmlns="http://www.w3.org/2000/svg">
<path d="M13.9997 23.3333C16.475 23.3333 18.849 22.3499 20.5993 20.5996C22.3497 18.8492 23.333 16.4753 23.333 13.9999C23.333 11.5246 22.3497 9.1506 20.5993 7.40026C18.849 5.64992 16.475 4.66659 13.9997 4.66659C11.5243 4.66659 9.15035 5.64992 7.40001 7.40026C5.64967 9.1506 4.66634 11.5246 4.66634 13.9999C4.66634 16.4753 5.64967 18.8492 7.40001 20.5996C9.15035 22.3499 11.5243 23.3333 13.9997 23.3333ZM13.9997 2.33325C15.5318 2.33325 17.0489 2.63502 18.4643 3.22132C19.8798 3.80763 21.1659 4.66699 22.2493 5.75034C23.3326 6.83369 24.192 8.11981 24.7783 9.53528C25.3646 10.9507 25.6663 12.4678 25.6663 13.9999C25.6663 17.0941 24.4372 20.0616 22.2493 22.2495C20.0613 24.4374 17.0939 25.6666 13.9997 25.6666C7.54801 25.6666 2.33301 20.4166 2.33301 13.9999C2.33301 10.9057 3.56217 7.93826 5.7501 5.75034C7.93802 3.56242 10.9055 2.33325 13.9997 2.33325ZM14.583 8.16659V14.2916L19.833 17.4066L18.958 18.8416L12.833 15.1666V8.16659H14.583Z" fill="#777777"/>
</svg>
