<svg width="60" height="60" viewBox="0 0 60 60" fill="none" xmlns="http://www.w3.org/2000/svg">
<g clip-path="url(#clip0_859_1513)">
<path d="M26.4649 5.25C27.3499 4.36619 28.534 3.84614 29.7835 3.79245C31.0331 3.73877 32.2574 4.15535 33.2149 4.96001L33.5349 5.25251L38.2849 10H44.9999C46.2609 10.0002 47.4753 10.4769 48.3997 11.3346C49.3241 12.1923 49.8903 13.3675 49.9849 14.625L49.9999 15V21.715L54.7499 26.465C55.6344 27.3501 56.1549 28.5347 56.2086 29.7848C56.2623 31.035 55.8453 32.2598 55.0399 33.2175L54.7474 33.535L49.9974 38.285V45C49.9978 46.2614 49.5214 47.4764 48.6637 48.4014C47.806 49.3263 46.6303 49.8929 45.3724 49.9875L44.9999 50H38.2874L33.5374 54.75C32.6523 55.6345 31.4677 56.155 30.2176 56.2087C28.9674 56.2624 27.7426 55.8454 26.7849 55.04L26.4674 54.75L21.7174 50H14.9999C13.7385 50.0004 12.5235 49.524 11.5986 48.6663C10.6736 47.8085 10.107 46.6329 10.0124 45.375L9.99993 45V38.285L5.24993 33.535C4.36541 32.6499 3.84492 31.4653 3.79123 30.2152C3.73754 28.965 4.15455 27.7402 4.95993 26.7825L5.24993 26.465L9.99993 21.715V15C10.0002 13.739 10.4769 12.5246 11.3345 11.6002C12.1922 10.6758 13.3675 10.1096 14.6249 10.015L14.9999 10H21.7149L26.4649 5.25ZM29.9999 8.79L25.2499 13.54C24.4195 14.3691 23.3239 14.8798 22.1549 14.9825L21.7149 15H14.9999V21.715C15.0002 22.8897 14.5869 24.0271 13.8324 24.9275L13.5349 25.2525L8.78493 30.0025L13.5349 34.75C14.365 35.5801 14.8765 36.6757 14.9799 37.845L14.9999 38.285V45H21.7149C22.8897 44.9997 24.027 45.413 24.9274 46.1675L25.2524 46.465L29.9999 51.215L34.7499 46.465C35.58 45.635 36.6756 45.1234 37.8449 45.02L38.2849 45H44.9999V38.285C44.9996 37.1103 45.413 35.9729 46.1674 35.0725L46.4649 34.7475L51.2149 30L46.4649 25.25C45.6349 24.4199 45.1233 23.3243 45.0199 22.155L44.9999 21.715V15H38.2849C37.1102 15.0003 35.9729 14.587 35.0724 13.8325L34.7474 13.535L29.9974 8.78501L29.9999 8.79ZM37.6999 22.46C38.1498 22.0116 38.7535 21.7513 39.3884 21.7319C40.0233 21.7125 40.6417 21.9355 41.1181 22.3556C41.5945 22.7757 41.8932 23.3614 41.9534 23.9937C42.0137 24.626 41.831 25.2575 41.4424 25.76L41.2324 25.995L29.0324 38.195C28.5561 38.6719 27.9212 38.9573 27.2483 38.997C26.5754 39.0366 25.9114 38.8277 25.3824 38.41L25.1424 38.1975L19.1324 32.1875C18.6793 31.7387 18.4148 31.1336 18.3932 30.4961C18.3716 29.8587 18.5944 29.2371 19.0161 28.7586C19.4378 28.28 20.0264 27.9807 20.6615 27.922C21.2966 27.8632 21.9301 28.0494 22.4324 28.4425L22.6674 28.65L27.0874 33.07L37.6999 22.46Z" fill="#1CBF90"/>
</g>
<defs>
<clipPath id="clip0_859_1513">
<rect width="60" height="60" fill="white"/>
</clipPath>
</defs>
</svg>
