<svg width="25" height="25" viewBox="0 0 40 37" fill="none" xmlns="http://www.w3.org/2000/svg">
<path d="M16.4291 23.047L30.2375 10.4939C30.5634 10.1977 30.9435 10.0496 31.378 10.0496C31.8125 10.0496 32.1927 10.1977 32.5186 10.4939C32.8444 10.7902 33.0073 11.1422 33.0073 11.55C33.0073 11.9578 32.8444 12.3094 32.5186 12.6046L17.5696 26.2316C17.2437 26.5279 16.8636 26.676 16.4291 26.676C15.9946 26.676 15.6144 26.5279 15.2885 26.2316L8.28249 19.8625C7.95663 19.5662 7.80022 19.2147 7.81325 18.8079C7.82629 18.401 7.99628 18.049 8.32323 17.7518C8.65018 17.4545 9.03741 17.3064 9.48493 17.3074C9.93245 17.3084 10.3191 17.4565 10.645 17.7518L16.4291 23.047Z" fill="#1CBF90"/>
</svg>
