<svg width="81" height="80" viewBox="0 0 81 80" fill="none" xmlns="http://www.w3.org/2000/svg">
<path fill-rule="evenodd" clip-rule="evenodd" d="M40.4995 70C44.4392 70 48.3402 69.224 51.98 67.7164C55.6198 66.2087 58.927 63.999 61.7127 61.2132C64.4985 58.4274 66.7083 55.1203 68.2159 51.4805C69.7235 47.8407 70.4995 43.9397 70.4995 40C70.4995 36.0603 69.7235 32.1593 68.2159 28.5195C66.7083 24.8797 64.4985 21.5726 61.7127 18.7868C58.927 16.001 55.6198 13.7913 51.98 12.2836C48.3402 10.776 44.4392 10 40.4995 10C32.543 10 24.9124 13.1607 19.2863 18.7868C13.6602 24.4129 10.4995 32.0435 10.4995 40C10.4995 47.9565 13.6602 55.5871 19.2863 61.2132C24.9124 66.8393 32.543 70 40.4995 70ZM39.7262 52.1333L56.3928 32.1333L51.2728 27.8667L36.9395 45.0633L29.5228 37.6433L24.8095 42.3567L34.8095 52.3567L37.3895 54.9367L39.7262 52.1333Z" fill="#1CBF90"/>
</svg>
