<svg width="24" height="24" viewBox="0 0 24 24" fill="none" xmlns="http://www.w3.org/2000/svg">
<path d="M11.9995 20C14.1212 20 16.1561 19.1571 17.6564 17.6569C19.1567 16.1566 19.9995 14.1217 19.9995 12C19.9995 9.87827 19.1567 7.84344 17.6564 6.34315C16.1561 4.84285 14.1212 4 11.9995 4C9.87778 4 7.84295 4.84285 6.34266 6.34315C4.84237 7.84344 3.99951 9.87827 3.99951 12C3.99951 14.1217 4.84237 16.1566 6.34266 17.6569C7.84295 19.1571 9.87778 20 11.9995 20ZM11.9995 2C13.3127 2 14.6131 2.25866 15.8263 2.7612C17.0396 3.26375 18.142 4.00035 19.0706 4.92893C19.9992 5.85752 20.7358 6.95991 21.2383 8.17317C21.7409 9.38642 21.9995 10.6868 21.9995 12C21.9995 14.6522 20.9459 17.1957 19.0706 19.0711C17.1952 20.9464 14.6517 22 11.9995 22C6.46951 22 1.99951 17.5 1.99951 12C1.99951 9.34784 3.05308 6.8043 4.92844 4.92893C6.80381 3.05357 9.34735 2 11.9995 2ZM12.4995 7V12.25L16.9995 14.92L16.2495 16.15L10.9995 13V7H12.4995Z" fill="black"/>
</svg>
