<svg width="34" height="35" viewBox="0 0 34 35" fill="none" xmlns="http://www.w3.org/2000/svg">
<path d="M13.593 5.8335C15.9935 5.8335 18.2956 6.83219 19.993 8.60988C21.6904 10.3876 22.644 12.7986 22.644 15.3127C22.644 17.6752 21.8225 19.8335 20.4578 21.4814L28.3253 29.721L27.3366 30.7564L19.4692 22.5168C17.8335 23.9871 15.7485 24.7943 13.593 24.7918C11.1925 24.7918 8.89036 23.7931 7.19297 22.0154C5.49558 20.2378 4.54199 17.8267 4.54199 15.3127C4.54199 12.7986 5.49558 10.3876 7.19297 8.60988C8.89036 6.83219 11.1925 5.8335 13.593 5.8335ZM13.593 7.29183C11.5618 7.29183 9.61385 8.13688 8.17759 9.64108C6.74134 11.1453 5.93446 13.1854 5.93446 15.3127C5.93446 17.4399 6.74134 19.4801 8.17759 20.9843C9.61385 22.4884 11.5618 23.3335 13.593 23.3335C14.5987 23.3335 15.5946 23.126 16.5238 22.7229C17.453 22.3199 18.2972 21.7291 19.0084 20.9843C19.7196 20.2394 20.2837 19.3552 20.6686 18.3821C21.0535 17.409 21.2515 16.366 21.2515 15.3127C21.2515 14.2594 21.0535 13.2164 20.6686 12.2432C20.2837 11.2701 19.7196 10.3859 19.0084 9.64108C18.2972 8.89627 17.453 8.30546 16.5238 7.90238C15.5946 7.49929 14.5987 7.29183 13.593 7.29183Z" fill="#F8F9FA"/>
</svg>
