<svg width="60" height="60" viewBox="0 0 60 60" fill="none" xmlns="http://www.w3.org/2000/svg">
<path d="M54.375 52.5H48.75V7.5H50.625C51.1223 7.5 51.5992 7.30246 51.9508 6.95083C52.3025 6.59919 52.5 6.12228 52.5 5.625C52.5 5.12772 52.3025 4.65081 51.9508 4.29917C51.5992 3.94754 51.1223 3.75 50.625 3.75H9.375C8.87772 3.75 8.40081 3.94754 8.04918 4.29917C7.69754 4.65081 7.5 5.12772 7.5 5.625C7.5 6.12228 7.69754 6.59919 8.04918 6.95083C8.40081 7.30246 8.87772 7.5 9.375 7.5H11.25V52.5H5.625C5.12772 52.5 4.65081 52.6975 4.29917 53.0492C3.94754 53.4008 3.75 53.8777 3.75 54.375C3.75 54.8723 3.94754 55.3492 4.29917 55.7008C4.65081 56.0525 5.12772 56.25 5.625 56.25H54.375C54.8723 56.25 55.3492 56.0525 55.7008 55.7008C56.0525 55.3492 56.25 54.8723 56.25 54.375C56.25 53.8777 56.0525 53.4008 55.7008 53.0492C55.3492 52.6975 54.8723 52.5 54.375 52.5ZM15 7.5H45V52.5H37.5V43.125C37.5 42.6277 37.3025 42.1508 36.9508 41.7992C36.5992 41.4475 36.1223 41.25 35.625 41.25H24.375C23.8777 41.25 23.4008 41.4475 23.0492 41.7992C22.6975 42.1508 22.5 42.6277 22.5 43.125V52.5H15V7.5ZM33.75 52.5H26.25V45H33.75V52.5ZM20.625 15C20.625 14.5027 20.8225 14.0258 21.1742 13.6742C21.5258 13.3225 22.0027 13.125 22.5 13.125H26.25C26.7473 13.125 27.2242 13.3225 27.5758 13.6742C27.9275 14.0258 28.125 14.5027 28.125 15C28.125 15.4973 27.9275 15.9742 27.5758 16.3258C27.2242 16.6775 26.7473 16.875 26.25 16.875H22.5C22.0027 16.875 21.5258 16.6775 21.1742 16.3258C20.8225 15.9742 20.625 15.4973 20.625 15ZM31.875 15C31.875 14.5027 32.0725 14.0258 32.4242 13.6742C32.7758 13.3225 33.2527 13.125 33.75 13.125H37.5C37.9973 13.125 38.4742 13.3225 38.8258 13.6742C39.1775 14.0258 39.375 14.5027 39.375 15C39.375 15.4973 39.1775 15.9742 38.8258 16.3258C38.4742 16.6775 37.9973 16.875 37.5 16.875H33.75C33.2527 16.875 32.7758 16.6775 32.4242 16.3258C32.0725 15.9742 31.875 15.4973 31.875 15ZM20.625 24.375C20.625 23.8777 20.8225 23.4008 21.1742 23.0492C21.5258 22.6975 22.0027 22.5 22.5 22.5H26.25C26.7473 22.5 27.2242 22.6975 27.5758 23.0492C27.9275 23.4008 28.125 23.8777 28.125 24.375C28.125 24.8723 27.9275 25.3492 27.5758 25.7008C27.2242 26.0525 26.7473 26.25 26.25 26.25H22.5C22.0027 26.25 21.5258 26.0525 21.1742 25.7008C20.8225 25.3492 20.625 24.8723 20.625 24.375ZM31.875 24.375C31.875 23.8777 32.0725 23.4008 32.4242 23.0492C32.7758 22.6975 33.2527 22.5 33.75 22.5H37.5C37.9973 22.5 38.4742 22.6975 38.8258 23.0492C39.1775 23.4008 39.375 23.8777 39.375 24.375C39.375 24.8723 39.1775 25.3492 38.8258 25.7008C38.4742 26.0525 37.9973 26.25 37.5 26.25H33.75C33.2527 26.25 32.7758 26.0525 32.4242 25.7008C32.0725 25.3492 31.875 24.8723 31.875 24.375ZM20.625 33.75C20.625 33.2527 20.8225 32.7758 21.1742 32.4242C21.5258 32.0725 22.0027 31.875 22.5 31.875H26.25C26.7473 31.875 27.2242 32.0725 27.5758 32.4242C27.9275 32.7758 28.125 33.2527 28.125 33.75C28.125 34.2473 27.9275 34.7242 27.5758 35.0758C27.2242 35.4275 26.7473 35.625 26.25 35.625H22.5C22.0027 35.625 21.5258 35.4275 21.1742 35.0758C20.8225 34.7242 20.625 34.2473 20.625 33.75ZM31.875 33.75C31.875 33.2527 32.0725 32.7758 32.4242 32.4242C32.7758 32.0725 33.2527 31.875 33.75 31.875H37.5C37.9973 31.875 38.4742 32.0725 38.8258 32.4242C39.1775 32.7758 39.375 33.2527 39.375 33.75C39.375 34.2473 39.1775 34.7242 38.8258 35.0758C38.4742 35.4275 37.9973 35.625 37.5 35.625H33.75C33.2527 35.625 32.7758 35.4275 32.4242 35.0758C32.0725 34.7242 31.875 34.2473 31.875 33.75Z" fill="#1CBF90"/>
</svg>
