<svg width="18" height="18" viewBox="0 0 35 21" fill="none" xmlns="http://www.w3.org/2000/svg">
<path d="M1.375 12.2917C7.825 -2.04159 27.175 -2.04159 33.625 12.2917" stroke="#777777" stroke-width="1.5" stroke-linecap="round" stroke-linejoin="round"/>
<path d="M17.5 19.4585C16.7941 19.4585 16.0952 19.3195 15.4431 19.0493C14.791 18.7792 14.1984 18.3833 13.6993 17.8842C13.2002 17.3851 12.8043 16.7925 12.5341 16.1404C12.264 15.4883 12.125 14.7894 12.125 14.0835C12.125 13.3776 12.264 12.6787 12.5341 12.0266C12.8043 11.3744 13.2002 10.7819 13.6993 10.2828C14.1984 9.78368 14.791 9.38776 15.4431 9.11764C16.0952 8.84752 16.7941 8.7085 17.5 8.7085C18.9255 8.7085 20.2927 9.27479 21.3007 10.2828C22.3087 11.2908 22.875 12.658 22.875 14.0835C22.875 15.509 22.3087 16.8762 21.3007 17.8842C20.2927 18.8922 18.9255 19.4585 17.5 19.4585Z" stroke="#777777" stroke-width="1.5" stroke-linecap="round" stroke-linejoin="round"/>
</svg>