<svg width="60" height="60" viewBox="0 0 60 60" fill="none" xmlns="http://www.w3.org/2000/svg">
<path d="M35 32.5H47.5V27.5H35V32.5ZM35 25H47.5V20H35V25ZM12.5 40H32.5V38.625C32.5 36.75 31.5833 35.2608 29.75 34.1575C27.9167 33.0542 25.5 32.5017 22.5 32.5C19.5 32.4983 17.0833 33.0508 15.25 34.1575C13.4167 35.2642 12.5 36.7533 12.5 38.625V40ZM22.5 30C23.875 30 25.0525 29.5108 26.0325 28.5325C27.0125 27.5542 27.5017 26.3767 27.5 25C27.4983 23.6233 27.0092 22.4467 26.0325 21.47C25.0558 20.4933 23.8783 20.0033 22.5 20C21.1217 19.9967 19.945 20.4867 18.97 21.47C17.995 22.4533 17.505 23.63 17.5 25C17.495 26.37 17.985 27.5475 18.97 28.5325C19.955 29.5175 21.1317 30.0067 22.5 30ZM10 50C8.625 50 7.44833 49.5108 6.47 48.5325C5.49167 47.5542 5.00167 46.3767 5 45V15C5 13.625 5.49 12.4483 6.47 11.47C7.45 10.4917 8.62667 10.0017 10 10H50C51.375 10 52.5525 10.49 53.5325 11.47C54.5125 12.45 55.0017 13.6267 55 15V45C55 46.375 54.5108 47.5525 53.5325 48.5325C52.5542 49.5125 51.3767 50.0017 50 50H10ZM10 45H50V15H10V45Z" fill="#1CBF90"/>
</svg>
