<svg width="24" height="24" viewBox="0 0 24 24" fill="none" xmlns="http://www.w3.org/2000/svg">
<path d="M17.0005 14C17.2657 14 17.5201 13.8946 17.7076 13.7071C17.8951 13.5196 18.0005 13.2652 18.0005 13C18.0005 12.7348 17.8951 12.4804 17.7076 12.2929C17.5201 12.1054 17.2657 12 17.0005 12C16.7353 12 16.4809 12.1054 16.2934 12.2929C16.1058 12.4804 16.0005 12.7348 16.0005 13C16.0005 13.2652 16.1058 13.5196 16.2934 13.7071C16.4809 13.8946 16.7353 14 17.0005 14ZM17.0005 18C17.2657 18 17.5201 17.8946 17.7076 17.7071C17.8951 17.5196 18.0005 17.2652 18.0005 17C18.0005 16.7348 17.8951 16.4804 17.7076 16.2929C17.5201 16.1054 17.2657 16 17.0005 16C16.7353 16 16.4809 16.1054 16.2934 16.2929C16.1058 16.4804 16.0005 16.7348 16.0005 17C16.0005 17.2652 16.1058 17.5196 16.2934 17.7071C16.4809 17.8946 16.7353 18 17.0005 18ZM13.0005 13C13.0005 13.2652 12.8951 13.5196 12.7076 13.7071C12.5201 13.8946 12.2657 14 12.0005 14C11.7353 14 11.4809 13.8946 11.2934 13.7071C11.1058 13.5196 11.0005 13.2652 11.0005 13C11.0005 12.7348 11.1058 12.4804 11.2934 12.2929C11.4809 12.1054 11.7353 12 12.0005 12C12.2657 12 12.5201 12.1054 12.7076 12.2929C12.8951 12.4804 13.0005 12.7348 13.0005 13ZM13.0005 17C13.0005 17.2652 12.8951 17.5196 12.7076 17.7071C12.5201 17.8946 12.2657 18 12.0005 18C11.7353 18 11.4809 17.8946 11.2934 17.7071C11.1058 17.5196 11.0005 17.2652 11.0005 17C11.0005 16.7348 11.1058 16.4804 11.2934 16.2929C11.4809 16.1054 11.7353 16 12.0005 16C12.2657 16 12.5201 16.1054 12.7076 16.2929C12.8951 16.4804 13.0005 16.7348 13.0005 17ZM7.00049 14C7.2657 14 7.52006 13.8946 7.70759 13.7071C7.89513 13.5196 8.00049 13.2652 8.00049 13C8.00049 12.7348 7.89513 12.4804 7.70759 12.2929C7.52006 12.1054 7.2657 12 7.00049 12C6.73527 12 6.48092 12.1054 6.29338 12.2929C6.10585 12.4804 6.00049 12.7348 6.00049 13C6.00049 13.2652 6.10585 13.5196 6.29338 13.7071C6.48092 13.8946 6.73527 14 7.00049 14ZM7.00049 18C7.2657 18 7.52006 17.8946 7.70759 17.7071C7.89513 17.5196 8.00049 17.2652 8.00049 17C8.00049 16.7348 7.89513 16.4804 7.70759 16.2929C7.52006 16.1054 7.2657 16 7.00049 16C6.73527 16 6.48092 16.1054 6.29338 16.2929C6.10585 16.4804 6.00049 16.7348 6.00049 17C6.00049 17.2652 6.10585 17.5196 6.29338 17.7071C6.48092 17.8946 6.73527 18 7.00049 18Z" fill="black"/>
<path fill-rule="evenodd" clip-rule="evenodd" d="M7.00046 1.75C7.19938 1.75 7.39014 1.82902 7.5308 1.96967C7.67145 2.11032 7.75046 2.30109 7.75046 2.5V3.263C8.41247 3.25 9.14146 3.25 9.94346 3.25H14.0565C14.8595 3.25 15.5885 3.25 16.2505 3.263V2.5C16.2505 2.30109 16.3295 2.11032 16.4701 1.96967C16.6108 1.82902 16.8016 1.75 17.0005 1.75C17.1994 1.75 17.3901 1.82902 17.5308 1.96967C17.6714 2.11032 17.7505 2.30109 17.7505 2.5V3.327C18.0105 3.347 18.2565 3.372 18.4895 3.403C19.6615 3.561 20.6105 3.893 21.3595 4.641C22.1075 5.39 22.4395 6.339 22.5975 7.511C22.7505 8.651 22.7505 10.106 22.7505 11.944V14.056C22.7505 15.894 22.7505 17.35 22.5975 18.489C22.4395 19.661 22.1075 20.61 21.3595 21.359C20.6105 22.107 19.6615 22.439 18.4895 22.597C17.3495 22.75 15.8945 22.75 14.0565 22.75H9.94546C8.10746 22.75 6.65146 22.75 5.51247 22.597C4.34047 22.439 3.39146 22.107 2.64246 21.359C1.89446 20.61 1.56246 19.661 1.40446 18.489C1.25146 17.349 1.25146 15.894 1.25146 14.056V11.944C1.25146 10.106 1.25146 8.65 1.40446 7.511C1.56246 6.339 1.89446 5.39 2.64246 4.641C3.39146 3.893 4.34047 3.561 5.51247 3.403C5.74546 3.372 5.99247 3.347 6.25146 3.327V2.5C6.25146 2.30126 6.33035 2.11065 6.47078 1.97002C6.61122 1.8294 6.80173 1.75026 7.00046 1.75ZM5.71046 4.89C4.70546 5.025 4.12546 5.279 3.70246 5.702C3.27946 6.125 3.02546 6.705 2.89046 7.711C2.86746 7.881 2.84846 8.061 2.83246 8.25H21.1685C21.1525 8.06 21.1335 7.881 21.1105 7.71C20.9755 6.705 20.7215 6.125 20.2985 5.702C19.8755 5.279 19.2955 5.025 18.2895 4.89C17.2625 4.752 15.9075 4.75 14.0005 4.75H10.0005C8.09346 4.75 6.73946 4.752 5.71046 4.89ZM2.75046 12C2.75046 11.146 2.75046 10.403 2.76346 9.75H21.2375C21.2505 10.403 21.2505 11.146 21.2505 12V14C21.2505 15.907 21.2485 17.262 21.1105 18.29C20.9755 19.295 20.7215 19.875 20.2985 20.298C19.8755 20.721 19.2955 20.975 18.2895 21.11C17.2625 21.248 15.9075 21.25 14.0005 21.25H10.0005C8.09346 21.25 6.73946 21.248 5.71046 21.11C4.70546 20.975 4.12546 20.721 3.70246 20.298C3.27946 19.875 3.02546 19.295 2.89046 18.289C2.75246 17.262 2.75046 15.907 2.75046 14V12Z" fill="black"/>
</svg>
