<svg width="32" height="32" viewBox="0 0 32 32" fill="none" xmlns="http://www.w3.org/2000/svg">
<path d="M3.3335 15.9999C3.3335 10.0293 3.3335 7.04259 5.18816 5.18792C7.04283 3.33325 10.0282 3.33325 16.0002 3.33325C21.9708 3.33325 24.9575 3.33325 26.8122 5.18792C28.6668 7.04259 28.6668 10.0279 28.6668 15.9999C28.6668 21.9706 28.6668 24.9573 26.8122 26.8119C24.9575 28.6666 21.9722 28.6666 16.0002 28.6666C10.0295 28.6666 7.04283 28.6666 5.18816 26.8119C3.3335 24.9573 3.3335 21.9719 3.3335 15.9999Z" stroke="black" stroke-width="2" stroke-linecap="round" stroke-linejoin="round"/>
<path d="M23.344 8.6665H23.3307M22 15.9998C22 17.5911 21.3679 19.1173 20.2426 20.2425C19.1174 21.3677 17.5913 21.9998 16 21.9998C14.4087 21.9998 12.8826 21.3677 11.7574 20.2425C10.6321 19.1173 10 17.5911 10 15.9998C10 14.4085 10.6321 12.8824 11.7574 11.7572C12.8826 10.632 14.4087 9.99984 16 9.99984C17.5913 9.99984 19.1174 10.632 20.2426 11.7572C21.3679 12.8824 22 14.4085 22 15.9998Z" stroke="black" stroke-width="2" stroke-linecap="round" stroke-linejoin="round"/>
</svg>
