<svg width="36" height="36" viewBox="0 0 36 36" fill="none" xmlns="http://www.w3.org/2000/svg">
<rect width="36" height="36" rx="5" fill="#DADADA"/>
<path d="M5.33325 18C5.33325 12.0294 5.33325 9.04271 7.18792 7.18804C9.04259 5.33337 12.0279 5.33337 17.9999 5.33337C23.9706 5.33337 26.9573 5.33337 28.8119 7.18804C30.6666 9.04271 30.6666 12.028 30.6666 18C30.6666 23.9707 30.6666 26.9574 28.8119 28.812C26.9573 30.6667 23.9719 30.6667 17.9999 30.6667C12.0293 30.6667 9.04259 30.6667 7.18792 28.812C5.33325 26.9574 5.33325 23.972 5.33325 18Z" stroke="black" stroke-width="2" stroke-linecap="round" stroke-linejoin="round"/>
<path d="M25.344 10.6667H25.3307M24 18.0001C24 19.5914 23.3679 21.1175 22.2426 22.2427C21.1174 23.3679 19.5913 24.0001 18 24.0001C16.4087 24.0001 14.8826 23.3679 13.7574 22.2427C12.6321 21.1175 12 19.5914 12 18.0001C12 16.4088 12.6321 14.8827 13.7574 13.7574C14.8826 12.6322 16.4087 12.0001 18 12.0001C19.5913 12.0001 21.1174 12.6322 22.2426 13.7574C23.3679 14.8827 24 16.4088 24 18.0001Z" stroke="black" stroke-width="2" stroke-linecap="round" stroke-linejoin="round"/>
</svg>
