<svg width="28" height="28" viewBox="0 0 28 28" fill="none" xmlns="http://www.w3.org/2000/svg">
<path fill-rule="evenodd" clip-rule="evenodd" d="M13.1393 25.8229C13.1393 25.8229 4.66699 18.6876 4.66699 11.6666C4.66699 9.19123 5.65032 6.81726 7.40066 5.06692C9.151 3.31658 11.525 2.33325 14.0003 2.33325C16.4757 2.33325 18.8496 3.31658 20.6 5.06692C22.3503 6.81726 23.3337 9.19123 23.3337 11.6666C23.3337 18.6876 14.8613 25.8229 14.8613 25.8229C14.39 26.2569 13.6142 26.2522 13.1393 25.8229ZM14.0003 15.7499C14.5366 15.7499 15.0675 15.6443 15.5629 15.4391C16.0584 15.2339 16.5085 14.9331 16.8877 14.5539C17.2669 14.1748 17.5676 13.7246 17.7728 13.2292C17.978 12.7338 18.0837 12.2028 18.0837 11.6666C18.0837 11.1304 17.978 10.5994 17.7728 10.104C17.5676 9.60855 17.2669 9.1584 16.8877 8.77923C16.5085 8.40006 16.0584 8.09928 15.5629 7.89408C15.0675 7.68887 14.5366 7.58325 14.0003 7.58325C12.9174 7.58325 11.8787 8.01346 11.113 8.77923C10.3472 9.54501 9.91699 10.5836 9.91699 11.6666C9.91699 12.7496 10.3472 13.7882 11.113 14.5539C11.8787 15.3197 12.9174 15.7499 14.0003 15.7499Z" fill="#777777"/>
</svg>
