<svg width="54" height="54" viewBox="0 0 54 54" fill="none" xmlns="http://www.w3.org/2000/svg">
<path d="M25.875 35.0483V15.5858L20.6325 20.8283L19.0395 19.2127L27 11.25L34.9628 19.2127L33.3698 20.8305L28.125 15.5858V35.0483H25.875ZM14.886 42.75C13.8495 42.75 12.9847 42.4035 12.2917 41.7105C11.5987 41.0175 11.2515 40.152 11.25 39.114V33.6623H13.5V39.114C13.5 39.4605 13.644 39.7785 13.932 40.068C14.22 40.3575 14.5372 40.5015 14.8837 40.5H39.1163C39.4613 40.5 39.7785 40.356 40.068 40.068C40.3575 39.78 40.5015 39.462 40.5 39.114V33.6623H42.75V39.114C42.75 40.1505 42.4035 41.0153 41.7105 41.7083C41.0175 42.4013 40.152 42.7485 39.114 42.75H14.886Z" fill="#1CBF90"/>
</svg>
