<svg width="40" height="40" viewBox="0 0 40 40" fill="none" xmlns="http://www.w3.org/2000/svg">
<path d="M11.6663 29.9991C11.3367 29.999 11.0146 29.9012 10.7405 29.7181C10.4665 29.5349 10.253 29.2746 10.1268 28.9701C10.0007 28.6656 9.96773 28.3306 10.032 28.0073C10.0963 27.6841 10.255 27.3871 10.488 27.154L27.1546 10.4874C27.469 10.1838 27.89 10.0158 28.327 10.0196C28.764 10.0234 29.182 10.1987 29.491 10.5077C29.8 10.8167 29.9753 11.2347 29.9791 11.6717C29.9829 12.1087 29.8149 12.5297 29.5113 12.8441L12.8446 29.5107C12.6901 29.6657 12.5064 29.7886 12.3042 29.8724C12.102 29.9563 11.8852 29.9993 11.6663 29.9991Z" fill="#EE4D4D"/>
<path d="M28.3334 29.9991C28.1145 29.9993 27.8977 29.9563 27.6955 29.8724C27.4933 29.7886 27.3096 29.6657 27.155 29.5107L10.4884 12.8441C10.1848 12.5297 10.0168 12.1087 10.0206 11.6717C10.0244 11.2347 10.1997 10.8167 10.5087 10.5077C10.8177 10.1987 11.2357 10.0234 11.6727 10.0196C12.1097 10.0158 12.5307 10.1838 12.845 10.4874L29.5117 27.154C29.7447 27.3871 29.9034 27.6841 29.9677 28.0073C30.0319 28.3306 29.9989 28.6656 29.8728 28.9701C29.7467 29.2746 29.5331 29.5349 29.2591 29.7181C28.9851 29.9012 28.6629 29.999 28.3334 29.9991Z" fill="#EE4D4D"/>
</svg>
