<svg width="28" height="20" viewBox="0 0 28 20" fill="none" xmlns="http://www.w3.org/2000/svg">
<path d="M11.3332 14.0003L18.2532 10.0003L11.3332 6.00033V14.0003ZM26.7465 3.56033C26.9198 4.18699 27.0398 5.02699 27.1198 6.09366C27.2132 7.16033 27.2532 8.08033 27.2532 8.88033L27.3332 10.0003C27.3332 12.9203 27.1198 15.067 26.7465 16.4403C26.4132 17.6403 25.6398 18.4137 24.4398 18.747C23.8132 18.9203 22.6665 19.0403 20.9065 19.1203C19.1732 19.2137 17.5865 19.2537 16.1198 19.2537L13.9998 19.3337C8.41317 19.3337 4.93317 19.1203 3.55984 18.747C2.35984 18.4137 1.5865 17.6403 1.25317 16.4403C1.07984 15.8137 0.959837 14.9737 0.879837 13.907C0.786504 12.8403 0.746504 11.9203 0.746504 11.1203L0.666504 10.0003C0.666504 7.08033 0.879837 4.93366 1.25317 3.56033C1.5865 2.36033 2.35984 1.58699 3.55984 1.25366C4.1865 1.08033 5.33317 0.960325 7.09317 0.880325C8.8265 0.786992 10.4132 0.746992 11.8798 0.746992L13.9998 0.666992C19.5865 0.666992 23.0665 0.880326 24.4398 1.25366C25.6398 1.58699 26.4132 2.36033 26.7465 3.56033Z" fill="black"/>
</svg>
