<svg width="28" height="20" viewBox="0 0 28 20" fill="none" xmlns="http://www.w3.org/2000/svg">
<path d="M11.3334 14L18.2534 9.99996L11.3334 5.99996V14ZM26.7467 3.55996C26.9201 4.18663 27.0401 5.02663 27.1201 6.09329C27.2134 7.15996 27.2534 8.07996 27.2534 8.87996L27.3334 9.99996C27.3334 12.92 27.1201 15.0666 26.7467 16.44C26.4134 17.64 25.6401 18.4133 24.4401 18.7466C23.8134 18.92 22.6667 19.04 20.9067 19.12C19.1734 19.2133 17.5867 19.2533 16.1201 19.2533L14.0001 19.3333C8.41341 19.3333 4.93341 19.12 3.56008 18.7466C2.36008 18.4133 1.58675 17.64 1.25341 16.44C1.08008 15.8133 0.960082 14.9733 0.880082 13.9066C0.786748 12.84 0.746748 11.92 0.746748 11.12L0.666748 9.99996C0.666748 7.07996 0.880081 4.93329 1.25341 3.55996C1.58675 2.35996 2.36008 1.58663 3.56008 1.25329C4.18675 1.07996 5.33342 0.959959 7.09342 0.879959C8.82675 0.786626 10.4134 0.746626 11.8801 0.746626L14.0001 0.666626C19.5867 0.666626 23.0667 0.879959 24.4401 1.25329C25.6401 1.58663 26.4134 2.35996 26.7467 3.55996Z" fill="black"/>
</svg>
