<svg width="192" height="192" viewBox="0 0 192 192" fill="none" xmlns="http://www.w3.org/2000/svg">
<rect x="1" y="1" width="190" height="190" rx="14" fill="#F8F9FA" stroke="#1CBF90" stroke-width="2"/>
<mask id="mask0_955_765" style="mask-type:luminance" maskUnits="userSpaceOnUse" x="54" y="18" width="86" height="106">
<path d="M69.9577 29.2084C69.9577 27.2524 70.7347 25.3765 72.1178 23.9935C73.5009 22.6104 75.3767 21.8334 77.3327 21.8334H116.666C117.635 21.8334 118.594 22.0241 119.488 22.3948C120.383 22.7654 121.196 23.3086 121.881 23.9935C122.566 24.6783 123.109 25.4913 123.48 26.3861C123.85 27.2809 124.041 28.2399 124.041 29.2084C124.041 30.1769 123.85 31.1359 123.48 32.0307C123.109 32.9254 122.566 33.7385 121.881 34.4233C121.196 35.1081 120.383 35.6514 119.488 36.022C118.594 36.3926 117.635 36.5834 116.666 36.5834H77.3327C75.3767 36.5834 73.5009 35.8064 72.1178 34.4233C70.7347 33.0402 69.9577 31.1643 69.9577 29.2084ZM70.2035 54.0867C70.8944 53.2275 71.7692 52.5342 72.7634 52.0577C73.7577 51.5812 74.8461 51.3337 75.9486 51.3334H118.045C119.148 51.333 120.238 51.5801 121.233 52.0566C122.228 52.5331 123.104 53.2269 123.795 54.0867L134.705 67.6641C135.758 68.9745 136.331 70.605 136.33 72.2857V112.792C136.33 114.748 135.553 116.624 134.17 118.007C132.787 119.39 130.911 120.167 128.955 120.167H65.041C63.085 120.167 61.2092 119.39 59.8261 118.007C58.443 116.624 57.666 114.748 57.666 112.792V72.2857C57.6652 70.605 58.2385 68.9745 59.291 67.6641L70.2035 54.0867Z" fill="white" stroke="white" stroke-width="6.66667" stroke-linejoin="round"/>
<path d="M82.25 85.75H111.75M97 71V100.5" stroke="black" stroke-width="6.66667" stroke-linecap="round" stroke-linejoin="round"/>
</mask>
<g mask="url(#mask0_955_765)">
<path d="M38 12H156V130H38V12Z" fill="#1CBF90"/>
</g>
<path d="M34.2475 147.182H37.4009L44.8157 165.293H45.0714L52.4862 147.182H55.6396V169H53.168V152.423H52.9549L46.1367 169H43.7504L36.9322 152.423H36.7191V169H34.2475V147.182ZM67.4569 169.341C65.8801 169.341 64.5201 168.993 63.3766 168.297C62.2402 167.594 61.3631 166.614 60.7452 165.357C60.1344 164.092 59.829 162.622 59.829 160.946C59.829 159.27 60.1344 157.793 60.7452 156.514C61.3631 155.229 62.2225 154.227 63.3233 153.51C64.4313 152.786 65.7239 152.423 67.2012 152.423C68.0534 152.423 68.8951 152.565 69.726 152.849C70.557 153.134 71.3134 153.595 71.9952 154.234C72.677 154.866 73.2203 155.705 73.6252 156.749C74.03 157.793 74.2324 159.078 74.2324 160.605V161.67H61.6188V159.497H71.6756C71.6756 158.574 71.4909 157.75 71.1216 157.026C70.7594 156.301 70.2409 155.729 69.5662 155.31C68.8986 154.891 68.1103 154.682 67.2012 154.682C66.1998 154.682 65.3333 154.93 64.6017 155.428C63.8773 155.918 63.3198 156.557 62.9292 157.345C62.5385 158.134 62.3432 158.979 62.3432 159.881V161.33C62.3432 162.565 62.5563 163.613 62.9824 164.472C63.4157 165.325 64.0158 165.974 64.7828 166.422C65.5499 166.862 66.4412 167.082 67.4569 167.082C68.1174 167.082 68.714 166.99 69.2466 166.805C69.7864 166.614 70.2516 166.33 70.6422 165.953C71.0328 165.57 71.3347 165.094 71.5478 164.526L73.9767 165.207C73.7211 166.031 73.2914 166.756 72.6877 167.381C72.084 167.999 71.3382 168.482 70.4505 168.83C69.5627 169.17 68.5648 169.341 67.4569 169.341ZM84.236 169.341C82.8723 169.341 81.6685 168.996 80.6245 168.308C79.5804 167.612 78.7637 166.631 78.1742 165.367C77.5847 164.096 77.29 162.594 77.29 160.861C77.29 159.142 77.5847 157.651 78.1742 156.386C78.7637 155.122 79.584 154.146 80.6351 153.457C81.6863 152.768 82.9007 152.423 84.2786 152.423C85.3439 152.423 86.1855 152.601 86.8034 152.956C87.4284 153.304 87.9043 153.702 88.231 154.149C88.5648 154.589 88.824 154.952 89.0087 155.236H89.2218V147.182H91.736V169H89.307V166.486H89.0087C88.824 166.784 88.5613 167.161 88.2203 167.615C87.8794 168.062 87.3929 168.464 86.7608 168.819C86.1287 169.167 85.2871 169.341 84.236 169.341ZM84.5769 167.082C85.5854 167.082 86.4377 166.82 87.1337 166.294C87.8297 165.761 88.3588 165.026 88.7211 164.089C89.0833 163.144 89.2644 162.054 89.2644 160.818C89.2644 159.597 89.0868 158.528 88.7317 157.612C88.3766 156.688 87.851 155.971 87.155 155.46C86.459 154.941 85.5996 154.682 84.5769 154.682C83.5115 154.682 82.6238 154.955 81.9135 155.502C81.2104 156.042 80.6813 156.777 80.3262 157.707C79.9782 158.631 79.8042 159.668 79.8042 160.818C79.8042 161.983 79.9817 163.041 80.3368 163.993C80.699 164.937 81.2317 165.69 81.9348 166.251C82.6451 166.805 83.5257 167.082 84.5769 167.082ZM96.6898 169V152.636H99.204V169H96.6898ZM97.9682 149.909C97.4782 149.909 97.0556 149.742 96.7005 149.408C96.3525 149.075 96.1784 148.673 96.1784 148.205C96.1784 147.736 96.3525 147.335 96.7005 147.001C97.0556 146.667 97.4782 146.5 97.9682 146.5C98.4583 146.5 98.8773 146.667 99.2253 147.001C99.5804 147.335 99.758 147.736 99.758 148.205C99.758 148.673 99.5804 149.075 99.2253 149.408C98.8773 149.742 98.4583 149.909 97.9682 149.909ZM110.457 169.341C108.923 169.341 107.602 168.979 106.494 168.254C105.386 167.53 104.533 166.532 103.937 165.261C103.34 163.989 103.042 162.537 103.042 160.903C103.042 159.241 103.347 157.775 103.958 156.504C104.576 155.225 105.435 154.227 106.536 153.51C107.644 152.786 108.937 152.423 110.414 152.423C111.565 152.423 112.602 152.636 113.525 153.062C114.448 153.489 115.205 154.085 115.794 154.852C116.384 155.619 116.749 156.514 116.891 157.537H114.377C114.185 156.791 113.759 156.131 113.099 155.555C112.445 154.973 111.565 154.682 110.457 154.682C109.477 154.682 108.617 154.937 107.879 155.449C107.147 155.953 106.575 156.667 106.163 157.59C105.759 158.506 105.556 159.582 105.556 160.818C105.556 162.082 105.755 163.183 106.153 164.121C106.558 165.058 107.126 165.786 107.857 166.305C108.596 166.823 109.462 167.082 110.457 167.082C111.11 167.082 111.703 166.969 112.236 166.741C112.768 166.514 113.219 166.188 113.589 165.761C113.958 165.335 114.221 164.824 114.377 164.227H116.891C116.749 165.193 116.398 166.063 115.837 166.837C115.283 167.604 114.548 168.215 113.631 168.67C112.722 169.117 111.664 169.341 110.457 169.341ZM120.567 169V152.636H123.081V169H120.567ZM121.845 149.909C121.355 149.909 120.933 149.742 120.577 149.408C120.229 149.075 120.055 148.673 120.055 148.205C120.055 147.736 120.229 147.335 120.577 147.001C120.933 146.667 121.355 146.5 121.845 146.5C122.335 146.5 122.754 146.667 123.102 147.001C123.457 147.335 123.635 147.736 123.635 148.205C123.635 148.673 123.457 149.075 123.102 149.408C122.754 149.742 122.335 149.909 121.845 149.909ZM130.2 159.156V169H127.686V152.636H130.115V155.193H130.328C130.711 154.362 131.294 153.695 132.075 153.19C132.856 152.679 133.865 152.423 135.101 152.423C136.209 152.423 137.178 152.651 138.009 153.105C138.84 153.553 139.486 154.234 139.948 155.151C140.41 156.06 140.64 157.21 140.64 158.602V169H138.126V158.773C138.126 157.487 137.792 156.486 137.125 155.768C136.457 155.044 135.541 154.682 134.376 154.682C133.574 154.682 132.856 154.856 132.224 155.204C131.599 155.552 131.106 156.06 130.743 156.727C130.381 157.395 130.2 158.205 130.2 159.156ZM152.096 169.341C150.519 169.341 149.159 168.993 148.015 168.297C146.879 167.594 146.002 166.614 145.384 165.357C144.773 164.092 144.468 162.622 144.468 160.946C144.468 159.27 144.773 157.793 145.384 156.514C146.002 155.229 146.861 154.227 147.962 153.51C149.07 152.786 150.363 152.423 151.84 152.423C152.692 152.423 153.534 152.565 154.365 152.849C155.196 153.134 155.952 153.595 156.634 154.234C157.316 154.866 157.859 155.705 158.264 156.749C158.669 157.793 158.871 159.078 158.871 160.605V161.67H146.257V159.497H156.314C156.314 158.574 156.13 157.75 155.76 157.026C155.398 156.301 154.88 155.729 154.205 155.31C153.537 154.891 152.749 154.682 151.84 154.682C150.838 154.682 149.972 154.93 149.24 155.428C148.516 155.918 147.958 156.557 147.568 157.345C147.177 158.134 146.982 158.979 146.982 159.881V161.33C146.982 162.565 147.195 163.613 147.621 164.472C148.054 165.325 148.654 165.974 149.422 166.422C150.189 166.862 151.08 167.082 152.096 167.082C152.756 167.082 153.353 166.99 153.885 166.805C154.425 166.614 154.89 166.33 155.281 165.953C155.672 165.57 155.973 165.094 156.186 164.526L158.615 165.207C158.36 166.031 157.93 166.756 157.326 167.381C156.723 167.999 155.977 168.482 155.089 168.83C154.201 169.17 153.203 169.341 152.096 169.341Z" fill="#1CBF90"/>
</svg>
