<svg width="192" height="192" viewBox="0 0 192 192" fill="none" xmlns="http://www.w3.org/2000/svg">
<rect x="1" y="1" width="190" height="190" rx="14" fill="#F8F9FA" stroke="#1CBF90" stroke-width="2"/>
<path d="M121.334 72.6666C131.847 72.6666 140.271 64.18 140.271 53.6666C140.271 43.1533 131.847 34.6666 121.334 34.6666C110.821 34.6666 102.334 43.1533 102.334 53.6666C102.334 64.18 110.821 72.6666 121.334 72.6666ZM70.6673 72.6666C81.1806 72.6666 89.604 64.18 89.604 53.6666C89.604 43.1533 81.1806 34.6666 70.6673 34.6666C60.154 34.6666 51.6673 43.1533 51.6673 53.6666C51.6673 64.18 60.154 72.6666 70.6673 72.6666ZM70.6673 85.3333C55.9107 85.3333 26.334 92.7433 26.334 107.5V117C26.334 120.483 29.184 123.333 32.6673 123.333H108.667C112.151 123.333 115.001 120.483 115.001 117V107.5C115.001 92.7433 85.424 85.3333 70.6673 85.3333ZM121.334 85.3333C119.497 85.3333 117.407 85.46 115.191 85.65C115.317 85.7133 115.381 85.84 115.444 85.9033C122.664 91.16 127.667 98.19 127.667 107.5V117C127.667 119.217 127.224 121.37 126.527 123.333H159.334C162.817 123.333 165.667 120.483 165.667 117V107.5C165.667 92.7433 136.091 85.3333 121.334 85.3333Z" fill="#1CBF90"/>
<path d="M79.6936 147.182H82.3357V161.628C82.3357 163.119 81.9841 164.451 81.281 165.623C80.585 166.788 79.6013 167.707 78.33 168.382C77.0587 169.05 75.5672 169.384 73.8556 169.384C72.1439 169.384 70.6524 169.05 69.3811 168.382C68.1098 167.707 67.1226 166.788 66.4195 165.623C65.7235 164.451 65.3754 163.119 65.3754 161.628V147.182H68.0175V161.415C68.0175 162.48 68.2519 163.428 68.7206 164.259C69.1894 165.083 69.857 165.733 70.7235 166.209C71.597 166.678 72.6411 166.912 73.8556 166.912C75.07 166.912 76.1141 166.678 76.9877 166.209C77.8612 165.733 78.5289 165.083 78.9905 164.259C79.4593 163.428 79.6936 162.48 79.6936 161.415V147.182ZM98.8618 156.301L96.6032 156.94C96.4612 156.564 96.2517 156.198 95.9747 155.843C95.7048 155.481 95.3355 155.183 94.8667 154.948C94.398 154.714 93.7979 154.597 93.0663 154.597C92.0649 154.597 91.2304 154.827 90.5628 155.289C89.9023 155.744 89.572 156.322 89.572 157.026C89.572 157.651 89.7993 158.144 90.2538 158.506C90.7084 158.869 91.4186 159.17 92.3845 159.412L94.8135 160.009C96.2765 160.364 97.3667 160.907 98.0841 161.638C98.8014 162.363 99.1601 163.297 99.1601 164.44C99.1601 165.378 98.8902 166.216 98.3504 166.955C97.8177 167.693 97.072 168.276 96.1132 168.702C95.1544 169.128 94.0393 169.341 92.768 169.341C91.099 169.341 89.7176 168.979 88.6238 168.254C87.5301 167.53 86.8376 166.472 86.5464 165.08L88.9328 164.483C89.1601 165.364 89.5898 166.024 90.2219 166.464C90.8611 166.905 91.6956 167.125 92.7254 167.125C93.8973 167.125 94.8277 166.876 95.5166 166.379C96.2126 165.875 96.5606 165.271 96.5606 164.568C96.5606 164 96.3618 163.524 95.964 163.141C95.5663 162.75 94.9555 162.459 94.1317 162.267L91.4044 161.628C89.9058 161.273 88.805 160.722 88.1018 159.977C87.4058 159.224 87.0578 158.283 87.0578 157.153C87.0578 156.23 87.317 155.413 87.8355 154.703C88.3611 153.993 89.0748 153.435 89.9768 153.031C90.8859 152.626 91.9157 152.423 93.0663 152.423C94.6856 152.423 95.9569 152.778 96.8802 153.489C97.8106 154.199 98.4711 155.136 98.8618 156.301ZM109.805 169.341C108.229 169.341 106.869 168.993 105.725 168.297C104.589 167.594 103.712 166.614 103.094 165.357C102.483 164.092 102.178 162.622 102.178 160.946C102.178 159.27 102.483 157.793 103.094 156.514C103.712 155.229 104.571 154.227 105.672 153.51C106.78 152.786 108.073 152.423 109.55 152.423C110.402 152.423 111.244 152.565 112.075 152.849C112.906 153.134 113.662 153.595 114.344 154.234C115.026 154.866 115.569 155.705 115.974 156.749C116.379 157.793 116.581 159.078 116.581 160.605V161.67H103.967V159.497H114.024C114.024 158.574 113.84 157.75 113.47 157.026C113.108 156.301 112.59 155.729 111.915 155.31C111.247 154.891 110.459 154.682 109.55 154.682C108.548 154.682 107.682 154.93 106.95 155.428C106.226 155.918 105.668 156.557 105.278 157.345C104.887 158.134 104.692 158.979 104.692 159.881V161.33C104.692 162.565 104.905 163.613 105.331 164.472C105.764 165.325 106.364 165.974 107.131 166.422C107.899 166.862 108.79 167.082 109.805 167.082C110.466 167.082 111.063 166.99 111.595 166.805C112.135 166.614 112.6 166.33 112.991 165.953C113.381 165.57 113.683 165.094 113.896 164.526L116.325 165.207C116.07 166.031 115.64 166.756 115.036 167.381C114.433 167.999 113.687 168.482 112.799 168.83C111.911 169.17 110.913 169.341 109.805 169.341ZM120.406 169V152.636H122.835V155.108H123.005C123.303 154.298 123.843 153.641 124.624 153.137C125.406 152.633 126.286 152.381 127.266 152.381C127.451 152.381 127.682 152.384 127.959 152.391C128.236 152.398 128.445 152.409 128.587 152.423V154.98C128.502 154.959 128.307 154.927 128.002 154.884C127.703 154.835 127.387 154.81 127.053 154.81C126.258 154.81 125.548 154.977 124.923 155.31C124.305 155.637 123.815 156.092 123.453 156.674C123.097 157.249 122.92 157.906 122.92 158.645V169H120.406Z" fill="#1CBF90"/>
</svg>
