<svg width="192" height="192" viewBox="0 0 192 192" fill="none" xmlns="http://www.w3.org/2000/svg">
<rect x="1" y="1" width="190" height="190" rx="14" fill="#F8F9FA" stroke="#1CBF90" stroke-width="2"/>
<path d="M126.606 114.831L143.055 98.6378L139.429 95.0064L126.606 107.65L121.075 102.003L117.444 105.663L126.606 114.831ZM65.2089 50.567H125.801V44.7753H65.2031L65.2089 50.567ZM130.249 128.088C123.797 128.088 118.324 125.839 113.83 121.341C109.332 116.847 107.083 111.374 107.083 104.922C107.083 98.4699 109.332 92.9948 113.83 88.4966C118.328 83.9984 123.801 81.7513 130.249 81.7551C136.697 81.759 142.172 84.0061 146.675 88.4966C151.177 92.9871 153.424 98.4621 153.416 104.922C153.416 111.37 151.169 116.843 146.675 121.341C142.172 125.839 136.697 128.088 130.249 128.088ZM49.166 120.287V32.526C49.166 29.9313 50.0772 27.7227 51.8997 25.9003C53.7221 24.0778 55.9307 23.1666 58.5253 23.1666H132.479C135.066 23.1666 137.273 24.0778 139.099 25.9003C140.921 27.7227 141.833 29.9313 141.833 32.526V66.9516C138.389 65.8203 134.86 65.2392 131.246 65.2083C127.632 65.1774 124.07 65.6427 120.56 66.6041H65.2031V72.3958H107.552C104.648 74.4074 102.088 76.7685 99.8721 79.479C97.6558 82.1895 95.8295 85.1741 94.3931 88.4329H65.2089V94.2246H92.4877C92.0707 95.7845 91.7463 97.3579 91.5147 98.9448C91.283 100.532 91.1653 102.188 91.1614 103.914C91.1614 106.559 91.4375 109.183 91.9896 111.785C92.5417 114.387 93.3719 116.895 94.48 119.308L94.2831 119.505L87.7096 114.721L79.914 120.287L72.1184 114.721L64.3228 120.287L56.5214 114.721L49.166 120.287Z" fill="#1CBF90"/>
<path d="M37.0174 169H34.2475L42.2589 147.182H44.9862L52.9975 169H50.2276L43.7077 150.634H43.5373L37.0174 169ZM38.0401 160.477H49.2049V162.821H38.0401V160.477ZM56.055 175.136V152.636H58.484V155.236H58.7823C58.967 154.952 59.2227 154.589 59.5494 154.149C59.8832 153.702 60.359 153.304 60.9769 152.956C61.6019 152.601 62.4471 152.423 63.5124 152.423C64.8903 152.423 66.1048 152.768 67.1559 153.457C68.207 154.146 69.0273 155.122 69.6168 156.386C70.2063 157.651 70.5011 159.142 70.5011 160.861C70.5011 162.594 70.2063 164.096 69.6168 165.367C69.0273 166.631 68.2106 167.612 67.1665 168.308C66.1225 168.996 64.9187 169.341 63.555 169.341C62.5039 169.341 61.6623 169.167 61.0302 168.819C60.3981 168.464 59.9116 168.062 59.5707 167.615C59.2298 167.161 58.967 166.784 58.7823 166.486H58.5692V175.136H56.055ZM58.5266 160.818C58.5266 162.054 58.7077 163.144 59.07 164.089C59.4322 165.026 59.9613 165.761 60.6573 166.294C61.3533 166.82 62.2056 167.082 63.2141 167.082C64.2653 167.082 65.1424 166.805 65.8455 166.251C66.5558 165.69 67.0884 164.937 67.4435 163.993C67.8058 163.041 67.9869 161.983 67.9869 160.818C67.9869 159.668 67.8093 158.631 67.4542 157.707C67.1062 156.777 66.5771 156.042 65.8668 155.502C65.1637 154.955 64.2795 154.682 63.2141 154.682C62.1914 154.682 61.332 154.941 60.636 155.46C59.94 155.971 59.4144 156.688 59.0593 157.612C58.7042 158.528 58.5266 159.597 58.5266 160.818ZM74.3363 175.136V152.636H76.7653V155.236H77.0636C77.2482 154.952 77.5039 154.589 77.8306 154.149C78.1644 153.702 78.6403 153.304 79.2582 152.956C79.8832 152.601 80.7283 152.423 81.7937 152.423C83.1715 152.423 84.386 152.768 85.4371 153.457C86.4883 154.146 87.3086 155.122 87.8981 156.386C88.4876 157.651 88.7823 159.142 88.7823 160.861C88.7823 162.594 88.4876 164.096 87.8981 165.367C87.3086 166.631 86.4918 167.612 85.4478 168.308C84.4038 168.996 83.1999 169.341 81.8363 169.341C80.7852 169.341 79.9435 169.167 79.3114 168.819C78.6793 168.464 78.1928 168.062 77.8519 167.615C77.511 167.161 77.2482 166.784 77.0636 166.486H76.8505V175.136H74.3363ZM76.8079 160.818C76.8079 162.054 76.989 163.144 77.3512 164.089C77.7134 165.026 78.2425 165.761 78.9386 166.294C79.6346 166.82 80.4869 167.082 81.4954 167.082C82.5465 167.082 83.4237 166.805 84.1268 166.251C84.837 165.69 85.3697 164.937 85.7248 163.993C86.087 163.041 86.2681 161.983 86.2681 160.818C86.2681 159.668 86.0906 158.631 85.7354 157.707C85.3874 156.777 84.8583 156.042 84.1481 155.502C83.445 154.955 82.5607 154.682 81.4954 154.682C80.4727 154.682 79.6133 154.941 78.9173 155.46C78.2212 155.971 77.6957 156.688 77.3406 157.612C76.9854 158.528 76.8079 159.597 76.8079 160.818ZM92.6175 169V152.636H95.0465V155.108H95.217C95.5153 154.298 96.055 153.641 96.8363 153.137C97.6175 152.633 98.4982 152.381 99.4783 152.381C99.663 152.381 99.8938 152.384 100.171 152.391C100.448 152.398 100.657 152.409 100.799 152.423V154.98C100.714 154.959 100.519 154.927 100.213 154.884C99.9151 154.835 99.5991 154.81 99.2653 154.81C98.4698 154.81 97.7596 154.977 97.1346 155.31C96.5167 155.637 96.0266 156.092 95.6644 156.674C95.3093 157.249 95.1317 157.906 95.1317 158.645V169H92.6175ZM109.929 169.341C108.452 169.341 107.156 168.989 106.041 168.286C104.933 167.583 104.066 166.599 103.441 165.335C102.824 164.071 102.515 162.594 102.515 160.903C102.515 159.199 102.824 157.711 103.441 156.44C104.066 155.168 104.933 154.181 106.041 153.478C107.156 152.775 108.452 152.423 109.929 152.423C111.407 152.423 112.699 152.775 113.807 153.478C114.922 154.181 115.789 155.168 116.407 156.44C117.032 157.711 117.344 159.199 117.344 160.903C117.344 162.594 117.032 164.071 116.407 165.335C115.789 166.599 114.922 167.583 113.807 168.286C112.699 168.989 111.407 169.341 109.929 169.341ZM109.929 167.082C111.051 167.082 111.975 166.795 112.699 166.219C113.424 165.644 113.96 164.888 114.308 163.95C114.656 163.013 114.83 161.997 114.83 160.903C114.83 159.81 114.656 158.79 114.308 157.846C113.96 156.901 113.424 156.138 112.699 155.555C111.975 154.973 111.051 154.682 109.929 154.682C108.807 154.682 107.884 154.973 107.159 155.555C106.435 156.138 105.899 156.901 105.551 157.846C105.203 158.79 105.029 159.81 105.029 160.903C105.029 161.997 105.203 163.013 105.551 163.95C105.899 164.888 106.435 165.644 107.159 166.219C107.884 166.795 108.807 167.082 109.929 167.082ZM133.977 152.636L127.926 169H125.369L119.318 152.636H122.045L126.562 165.676H126.732L131.249 152.636H133.977ZM141.613 169.384C140.576 169.384 139.635 169.188 138.789 168.798C137.944 168.4 137.273 167.828 136.776 167.082C136.279 166.33 136.03 165.42 136.03 164.355C136.03 163.418 136.215 162.658 136.584 162.075C136.953 161.486 137.447 161.024 138.065 160.69C138.683 160.357 139.365 160.108 140.11 159.945C140.863 159.774 141.62 159.639 142.38 159.54C143.374 159.412 144.18 159.316 144.798 159.252C145.423 159.181 145.877 159.064 146.162 158.901C146.453 158.737 146.598 158.453 146.598 158.048V157.963C146.598 156.912 146.311 156.095 145.735 155.513C145.167 154.93 144.304 154.639 143.147 154.639C141.946 154.639 141.005 154.902 140.324 155.428C139.642 155.953 139.162 156.514 138.885 157.111L136.499 156.259C136.925 155.264 137.493 154.49 138.203 153.936C138.921 153.375 139.702 152.984 140.547 152.764C141.4 152.537 142.238 152.423 143.061 152.423C143.587 152.423 144.191 152.487 144.873 152.615C145.561 152.736 146.225 152.988 146.865 153.371C147.511 153.755 148.047 154.334 148.473 155.108C148.9 155.882 149.113 156.919 149.113 158.219V169H146.598V166.784H146.471C146.3 167.139 146.016 167.519 145.618 167.924C145.221 168.329 144.691 168.673 144.031 168.957C143.37 169.241 142.564 169.384 141.613 169.384ZM141.996 167.125C142.99 167.125 143.828 166.93 144.51 166.539C145.199 166.148 145.718 165.644 146.066 165.026C146.421 164.408 146.598 163.759 146.598 163.077V160.776C146.492 160.903 146.257 161.021 145.895 161.127C145.54 161.227 145.128 161.315 144.659 161.393C144.198 161.464 143.747 161.528 143.306 161.585C142.873 161.635 142.522 161.678 142.252 161.713C141.598 161.798 140.988 161.937 140.419 162.129C139.858 162.313 139.404 162.594 139.056 162.97C138.715 163.339 138.544 163.844 138.544 164.483C138.544 165.357 138.868 166.017 139.514 166.464C140.167 166.905 140.995 167.125 141.996 167.125ZM156.216 147.182V169H153.702V147.182H156.216Z" fill="#1CBF90"/>
</svg>
