<svg width="192" height="192" viewBox="0 0 192 192" fill="none" xmlns="http://www.w3.org/2000/svg">
<rect x="1" y="1" width="190" height="190" rx="14" fill="#F8F9FA" stroke="#1CBF90" stroke-width="2"/>
<path d="M84.9174 17.375L73.334 28.9583V40.5417H55.959C49.2986 40.5417 45.0707 46.3333 44.3757 52.125L38.584 110.042C37.889 115.833 41.7115 121.625 50.1674 121.625H142.834C151.29 121.625 155.112 115.833 154.417 110.042L148.626 52.125C147.931 46.3333 143.182 40.5417 137.042 40.5417H119.667V28.9583L108.084 17.375H84.9174ZM84.9174 28.9583H108.084V40.5417H84.9174V28.9583ZM90.709 57.9167H102.292V75.2917H119.667V86.875H102.292V104.25H90.709V86.875H73.334V75.2917H90.709V57.9167Z" fill="#1CBF90"/>
<path d="M57.4293 152.636C57.3015 151.557 56.783 150.719 55.8739 150.122C54.9648 149.526 53.8498 149.227 52.5288 149.227C51.5629 149.227 50.7177 149.384 49.9933 149.696C49.2759 150.009 48.7148 150.438 48.31 150.985C47.9123 151.532 47.7134 152.153 47.7134 152.849C47.7134 153.432 47.8519 153.933 48.1289 154.352C48.413 154.763 48.7752 155.108 49.2156 155.385C49.6559 155.655 50.1175 155.879 50.6005 156.056C51.0835 156.227 51.5273 156.365 51.9322 156.472L54.1481 157.068C54.7163 157.217 55.3484 157.423 56.0444 157.686C56.7475 157.949 57.4187 158.308 58.0579 158.762C58.7042 159.21 59.2369 159.785 59.6559 160.488C60.0749 161.191 60.2844 162.054 60.2844 163.077C60.2844 164.256 59.9755 165.321 59.3576 166.273C58.7468 167.224 57.8519 167.981 56.6729 168.542C55.5011 169.103 54.0771 169.384 52.4009 169.384C50.8384 169.384 49.4854 169.131 48.342 168.627C47.2056 168.123 46.3107 167.42 45.6573 166.518C45.011 165.616 44.6452 164.568 44.56 163.375H47.2873C47.3583 164.199 47.6353 164.881 48.1183 165.42C48.6083 165.953 49.2262 166.351 49.9719 166.614C50.7248 166.869 51.5344 166.997 52.4009 166.997C53.4094 166.997 54.315 166.834 55.1175 166.507C55.9201 166.173 56.5558 165.712 57.0245 165.122C57.4933 164.526 57.7276 163.83 57.7276 163.034C57.7276 162.31 57.5252 161.72 57.1204 161.266C56.7156 160.811 56.1829 160.442 55.5224 160.158C54.8619 159.874 54.1481 159.625 53.381 159.412L50.6964 158.645C48.9918 158.155 47.6424 157.455 46.6481 156.546C45.6538 155.637 45.1566 154.447 45.1566 152.977C45.1566 151.756 45.4869 150.69 46.1474 149.781C46.815 148.865 47.7099 148.155 48.832 147.651C49.9613 147.139 51.2219 146.884 52.614 146.884C54.0202 146.884 55.2702 147.136 56.364 147.64C57.4577 148.137 58.3242 148.819 58.9634 149.685C59.6097 150.552 59.9506 151.536 59.9862 152.636H57.4293ZM71.1483 169.341C69.5716 169.341 68.2115 168.993 67.068 168.297C65.9316 167.594 65.0545 166.614 64.4366 165.357C63.8258 164.092 63.5204 162.622 63.5204 160.946C63.5204 159.27 63.8258 157.793 64.4366 156.514C65.0545 155.229 65.9139 154.227 67.0147 153.51C68.1227 152.786 69.4153 152.423 70.8926 152.423C71.7449 152.423 72.5865 152.565 73.4174 152.849C74.2484 153.134 75.0048 153.595 75.6866 154.234C76.3684 154.866 76.9118 155.705 77.3166 156.749C77.7214 157.793 77.9238 159.078 77.9238 160.605V161.67H65.3102V159.497H75.367C75.367 158.574 75.1824 157.75 74.813 157.026C74.4508 156.301 73.9324 155.729 73.2576 155.31C72.59 154.891 71.8017 154.682 70.8926 154.682C69.8912 154.682 69.0247 154.93 68.2931 155.428C67.5687 155.918 67.0112 156.557 66.6206 157.345C66.2299 158.134 66.0346 158.979 66.0346 159.881V161.33C66.0346 162.565 66.2477 163.613 66.6738 164.472C67.1071 165.325 67.7072 165.974 68.4743 166.422C69.2413 166.862 70.1326 167.082 71.1483 167.082C71.8088 167.082 72.4054 166.99 72.938 166.805C73.4778 166.614 73.943 166.33 74.3336 165.953C74.7243 165.57 75.0261 165.094 75.2392 164.526L77.6681 165.207C77.4125 166.031 76.9828 166.756 76.3791 167.381C75.7754 167.999 75.0297 168.482 74.1419 168.83C73.2541 169.17 72.2562 169.341 71.1483 169.341ZM81.7484 169V152.636H84.1774V155.108H84.3478C84.6461 154.298 85.1859 153.641 85.9672 153.137C86.7484 152.633 87.6291 152.381 88.6092 152.381C88.7939 152.381 89.0247 152.384 89.3017 152.391C89.5787 152.398 89.7882 152.409 89.9302 152.423V154.98C89.845 154.959 89.6497 154.927 89.3443 154.884C89.046 154.835 88.7299 154.81 88.3961 154.81C87.6007 154.81 86.8904 154.977 86.2654 155.31C85.6475 155.637 85.1575 156.092 84.7953 156.674C84.4402 157.249 84.2626 157.906 84.2626 158.645V169H81.7484ZM106.789 152.636L100.738 169H98.1813L92.1301 152.636H94.8574L99.3745 165.676H99.5449L104.062 152.636H106.789ZM110.108 169V152.636H112.622V169H110.108ZM111.386 149.909C110.896 149.909 110.474 149.742 110.118 149.408C109.77 149.075 109.596 148.673 109.596 148.205C109.596 147.736 109.77 147.335 110.118 147.001C110.474 146.667 110.896 146.5 111.386 146.5C111.876 146.5 112.295 146.667 112.643 147.001C112.998 147.335 113.176 147.736 113.176 148.205C113.176 148.673 112.998 149.075 112.643 149.408C112.295 149.742 111.876 149.909 111.386 149.909ZM123.875 169.341C122.341 169.341 121.02 168.979 119.912 168.254C118.804 167.53 117.951 166.532 117.355 165.261C116.758 163.989 116.46 162.537 116.46 160.903C116.46 159.241 116.765 157.775 117.376 156.504C117.994 155.225 118.853 154.227 119.954 153.51C121.062 152.786 122.355 152.423 123.832 152.423C124.983 152.423 126.02 152.636 126.943 153.062C127.866 153.489 128.623 154.085 129.212 154.852C129.801 155.619 130.167 156.514 130.309 157.537H127.795C127.603 156.791 127.177 156.131 126.517 155.555C125.863 154.973 124.983 154.682 123.875 154.682C122.895 154.682 122.035 154.937 121.297 155.449C120.565 155.953 119.993 156.667 119.581 157.59C119.176 158.506 118.974 159.582 118.974 160.818C118.974 162.082 119.173 163.183 119.571 164.121C119.975 165.058 120.544 165.786 121.275 166.305C122.014 166.823 122.88 167.082 123.875 167.082C124.528 167.082 125.121 166.969 125.654 166.741C126.186 166.514 126.637 166.188 127.007 165.761C127.376 165.335 127.639 164.824 127.795 164.227H130.309C130.167 165.193 129.816 166.063 129.255 166.837C128.701 167.604 127.966 168.215 127.049 168.67C126.14 169.117 125.082 169.341 123.875 169.341ZM140.846 169.341C139.269 169.341 137.909 168.993 136.765 168.297C135.629 167.594 134.752 166.614 134.134 165.357C133.523 164.092 133.218 162.622 133.218 160.946C133.218 159.27 133.523 157.793 134.134 156.514C134.752 155.229 135.611 154.227 136.712 153.51C137.82 152.786 139.113 152.423 140.59 152.423C141.442 152.423 142.284 152.565 143.115 152.849C143.946 153.134 144.702 153.595 145.384 154.234C146.066 154.866 146.609 155.705 147.014 156.749C147.419 157.793 147.621 159.078 147.621 160.605V161.67H135.007V159.497H145.064C145.064 158.574 144.88 157.75 144.51 157.026C144.148 156.301 143.63 155.729 142.955 155.31C142.287 154.891 141.499 154.682 140.59 154.682C139.588 154.682 138.722 154.93 137.99 155.428C137.266 155.918 136.708 156.557 136.318 157.345C135.927 158.134 135.732 158.979 135.732 159.881V161.33C135.732 162.565 135.945 163.613 136.371 164.472C136.804 165.325 137.404 165.974 138.172 166.422C138.939 166.862 139.83 167.082 140.846 167.082C141.506 167.082 142.103 166.99 142.635 166.805C143.175 166.614 143.64 166.33 144.031 165.953C144.422 165.57 144.723 165.094 144.936 164.526L147.365 165.207C147.11 166.031 146.68 166.756 146.076 167.381C145.473 167.999 144.727 168.482 143.839 168.83C142.951 169.17 141.953 169.341 140.846 169.341Z" fill="#1CBF90"/>
</svg>
