<svg width="207" height="206" viewBox="0 0 207 206" fill="none" xmlns="http://www.w3.org/2000/svg">
<path opacity="0.5" d="M175.03 162.019L172.101 158.9C171.625 158.307 171.359 156.612 171.359 156.612H158.901C158.901 156.612 158.642 158.307 158.165 158.9L155.23 162.019C154.896 162.441 154.712 162.959 154.712 163.497V194.625C154.712 195.926 155.768 196.982 157.069 196.982H173.191C174.499 196.982 175.548 195.926 175.548 194.625V163.497C175.548 162.959 175.364 162.441 175.03 162.019Z" fill="#DBDBDB"/>
<path d="M174.39 165.725V193.692C174.39 194.85 173.457 195.783 172.298 195.783H157.96C156.809 195.783 155.869 194.85 155.869 193.692V165.725H174.39Z" fill="#455A64"/>
<path d="M173.171 150.609H157.089V156.612H173.171V150.609Z" fill="#C7C7C7"/>
<path d="M173.766 168.669H160.516V190.64H173.766V168.669Z" fill="#F8F9FA"/>
<g opacity="0.6">
<path d="M159.898 159.102C159.29 160.645 158.195 162.079 157.945 163.723C157.941 163.827 157.952 164.065 157.962 164.171C158.343 170.558 158.378 176.957 158.101 183.348C157.98 186.112 157.801 188.877 157.458 191.641C156.459 182.688 156.472 173.673 156.92 164.69C156.933 164.53 156.957 164.069 156.97 163.912C157.264 161.978 158.833 160.579 159.898 159.102Z" fill="#F8F9FA"/>
</g>
<path opacity="0.1" d="M175.547 163.495V194.625C175.547 195.925 174.498 196.981 173.192 196.981H167.185C168.491 196.981 169.54 195.925 169.54 194.625V163.495C169.54 162.958 169.356 162.443 169.025 162.019L166.093 158.901C165.616 158.307 165.352 156.612 165.352 156.612H171.359C171.359 156.612 171.623 158.307 172.1 158.901L175.032 162.019C175.363 162.443 175.547 162.958 175.547 163.495Z" fill="black"/>
<path d="M38.0438 196.982H63.2051L63.2051 153.4H38.0438L38.0438 196.982Z" fill="#1CBF90"/>
<path opacity="0.1" d="M38.0438 196.982H63.2051L63.2051 153.4H38.0438L38.0438 196.982Z" fill="black"/>
<path opacity="0.6" d="M38.0439 153.399V196.982H63.206V153.399H61.4756V195.142H39.7743V153.399H38.0439Z" fill="black"/>
<path opacity="0.5" d="M61.4757 153.399H39.7744V195.142H61.4757V153.399Z" fill="black"/>
<path d="M42.379 148.765H58.8701V142.138H42.379V148.765Z" fill="#263238"/>
<path d="M44.3455 153.4H56.9053V148.765H44.3455V153.4Z" fill="#1CBF90"/>
<path opacity="0.5" d="M44.3455 153.4H56.9053V148.765H44.3455V153.4Z" fill="black"/>
<path opacity="0.1" d="M44.3455 151.581H56.9053V148.765H44.3455V151.581Z" fill="black"/>
<path d="M40.516 179.961H57.7393V161.09H40.516V179.961Z" fill="#F8F9FA"/>
<path d="M49.003 174.988H51.7119V166.399H49.003V174.988Z" fill="#F8F9FA"/>
<path d="M51.6172 172.049V169.34H43.0282V172.049H51.6172Z" fill="#263238"/>
<path d="M45.9688 174.988H48.6777V166.399H45.9688V174.988Z" fill="#263238"/>
<path opacity="0.2" d="M59.3784 153.399V196.982H55.1225V158.476L46.6748 155.109V153.4L59.3784 153.399Z" fill="black"/>
<path d="M46.8051 142.138H54.4432V130.568C54.4432 128.459 52.7334 126.749 50.6239 126.749C48.5145 126.749 46.8047 128.459 46.8047 130.568L46.8051 142.138Z" fill="#263238"/>
<path opacity="0.2" d="M54.4428 142.138V141.173L46.8047 140.586V142.138H54.4428Z" fill="black"/>
<path opacity="0.2" d="M42.8152 153.399H39.7549V196.982H42.8152V153.399Z" fill="#F8F9FA"/>
<path opacity="0.5" d="M41.2847 167.082V196.983H30.9258V167.082C30.9258 166.491 31.1281 165.917 31.4997 165.464L33.8666 162.55C34.1015 162.266 34.2275 161.911 34.2275 161.544V160.516C34.2275 160.27 33.1016 157.887 33.1016 157.887C32.8502 157.384 32.7682 156.81 32.8774 156.258L34.8072 146.156C34.9275 145.533 35.4743 145.085 36.1026 145.085C36.7366 145.085 37.2834 145.533 37.4037 146.156L39.3335 156.258C39.4426 156.81 39.3607 157.384 39.1093 157.887C39.1093 157.887 37.9833 160.27 37.9833 160.516V161.544C37.9833 161.911 38.109 162.266 38.3443 162.55L40.7112 165.464C41.0824 165.917 41.2847 166.491 41.2847 167.082Z" fill="#DBDBDB"/>
<path d="M40.4045 170.047H31.8057V195.738H40.4045V170.047Z" fill="#1CBF90"/>
<path d="M40.2194 177.334H33.8252V187.922H40.2194V177.334Z" fill="#F8F9FA"/>
<g opacity="0.6">
<path d="M34.825 163.806C34.2536 165.054 33.3196 166.203 33.0765 167.57C33.0609 167.788 33.0885 168.162 33.0942 168.384C33.2636 173.474 33.2817 178.582 33.147 183.672C33.093 185.937 32.9855 188.202 32.8256 190.467C32.6653 188.202 32.5578 185.937 32.5042 183.672C32.3695 178.583 32.3876 173.474 32.557 168.384C32.5693 168.136 32.5718 167.746 32.6109 167.501C32.9768 166.07 34.0472 164.985 34.825 163.806Z" fill="#F8F9FA"/>
<path d="M35.9891 146.626C35.6431 148.375 35.2916 151.068 34.9888 152.852C34.8977 153.436 34.4289 156.203 34.3663 156.736C34.2385 157.517 34.6098 158.246 34.8248 158.987C34.4862 158.285 34.021 157.525 34.1071 156.715C34.1829 155.395 34.3803 154.089 34.5826 152.786C34.9534 150.714 35.2821 148.616 35.9891 146.626Z" fill="#F8F9FA"/>
</g>
<path opacity="0.1" d="M37.2104 157.887C37.2104 157.887 36.0848 160.269 36.0848 160.517V161.544C36.0848 161.909 36.2093 162.265 36.4437 162.549L38.8106 165.462C39.1839 165.917 39.3866 166.489 39.3866 167.08V196.982H41.2847V167.08C41.2847 166.489 41.082 165.917 40.7116 165.462L38.3447 162.549C38.1102 162.265 37.9829 161.909 37.9829 161.544V160.517C37.9829 160.269 39.1085 157.887 39.1085 157.887C39.3602 157.384 39.4443 156.811 39.3343 156.258L37.4041 146.157C37.2825 145.532 36.7387 145.083 36.1079 145.083C36.0152 145.083 35.9258 145.092 35.8389 145.112C36.351 145.216 36.7675 145.621 36.8689 146.156L37.4329 156.258C37.5433 156.811 37.4621 157.384 37.2104 157.887Z" fill="black"/>
<path d="M142.36 143.133C144.595 154.784 154.815 196.982 154.815 196.982H74.8281L75.5401 158.203L142.36 143.133Z" fill="#EB9481"/>
<path d="M74.9924 157.103C75.1024 157.513 74.575 183.579 74.2195 185.09C74.032 185.886 73.0951 187.385 73.3765 188.791C73.6579 190.196 107.102 192.257 112.816 191.976C118.53 191.695 153.667 185.713 153.848 184.669C154.108 183.17 152.82 181.591 152.537 181.39C151.98 180.995 142.653 136.985 142.653 136.985L74.9924 157.103Z" fill="#1CBF90"/>
<path d="M90.3006 107.573C89.6843 103.755 84.4185 70.3583 84.9463 66.9082C85.4741 63.4581 94.3671 44.2099 99.1891 35.5822C102.736 29.2362 108.89 23.7475 111.29 37.6233C113.091 48.0382 105.559 59.3472 106.139 62.9629C106.521 65.3447 114.816 98.4229 114.816 98.4229L90.3006 107.573Z" fill="#1CBF90"/>
<path d="M60.6792 135.044C67.8155 152.596 88.968 174.205 99.8633 175.582C113.274 177.277 148.133 145.979 145.136 130.83C143.391 122.013 119.579 86.5484 104.577 81.7622C89.574 76.9764 54.6566 120.232 60.6792 135.044Z" fill="#1CBF90"/>
<path d="M145.245 134.08C145.245 134.08 145.318 111.387 146.787 97.0964C148.116 84.1752 158.265 70.4227 150.876 68.2275C143.486 66.0324 128.007 81.0111 125.454 100.474C125.454 100.474 96.2138 125.337 102.064 152.126C107.913 178.915 145.245 134.08 145.245 134.08Z" fill="#1CBF90"/>
<g opacity="0.1">
<path d="M151.141 81.3984C149.43 86.1776 147.343 91.7091 146.789 97.0969C145.606 108.603 145.327 125.557 145.263 131.726C145.251 133.108 145.246 133.949 145.246 134.067C145.246 134.076 145.246 134.08 145.246 134.08C145.039 136.041 144.384 138.17 143.374 140.393C143.619 141.538 143.915 142.929 144.253 144.5C142.343 146.592 139.824 148.62 136.943 150.53C126.399 157.528 110.98 162.988 102.651 164.526C103.294 164.179 136.943 150.53 140.45 129.491C140.782 127.502 140.961 124.644 140.982 121.53C141.046 114.304 140.45 105.73 140.45 103.634C140.45 100.638 150.034 84.4831 151.141 81.3984Z" fill="black"/>
<path d="M98.933 160.085C98.4893 160.313 89.9745 164.594 80.3864 162.912C78.6412 162.608 76.8581 162.105 75.0832 161.344C75.0453 161.328 75.0069 161.311 74.969 161.294C75.0069 159.075 75.0197 157.52 74.9987 157.174C70.7901 152.335 66.9107 146.998 63.9485 141.746C63.9443 141.712 63.9443 141.695 63.9443 141.695C66.3405 145.583 72.4674 151.993 78.4805 156.185C81.1808 158.074 83.8555 159.511 86.1627 160.077C93.3677 161.847 98.5989 160.19 98.933 160.085Z" fill="black"/>
<path d="M80.4961 185.699C80.4961 185.699 104.385 187.573 111.973 187.292C119.561 187.011 144.855 181.577 144.855 181.577C144.855 181.577 120.873 185.512 111.411 185.699C101.949 185.887 80.4961 185.699 80.4961 185.699Z" fill="black"/>
<path d="M79.3086 169.056C79.3086 169.056 86.2574 172.017 93.0982 172.073C99.9391 172.129 108.119 169.646 108.119 169.646C108.119 169.646 96.8458 170.64 92.3875 170.324C87.9293 170.007 79.3086 169.056 79.3086 169.056Z" fill="black"/>
<path d="M101.361 173.305C101.361 173.305 106.382 174.044 111.053 173.187C115.724 172.33 121.066 169.893 121.066 169.893C121.066 169.893 113.472 171.907 110.402 172.31C107.331 172.713 101.361 173.305 101.361 173.305Z" fill="black"/>
<path d="M96.9841 95.9297C96.9841 95.9297 95.2278 103.423 93.12 108.11C91.0122 112.796 86.3047 120.289 86.3047 120.289C86.3047 120.289 94.1034 113.748 95.7898 110.144C97.4761 106.539 96.9841 95.9297 96.9841 95.9297Z" fill="black"/>
<path d="M101.472 92.5625C101.472 92.5625 101.754 99.6835 101.055 104.372C100.356 109.061 98.0781 116.87 98.0781 116.87C98.0781 116.87 102.359 110.25 103.161 105.185C103.734 101.56 101.472 92.5625 101.472 92.5625Z" fill="black"/>
<path d="M125.487 99.3411C125.487 99.3411 119.347 106.071 114.816 115.439C110.286 124.807 108.118 132.121 108.118 132.121C108.118 132.121 109.349 121.997 112.335 113.53C114.189 108.276 122.473 95.8613 122.473 95.8613L125.487 99.3411Z" fill="black"/>
</g>
<path d="M127.412 68.1622L115.187 83.0068L117.286 84.736L129.511 69.8913L127.412 68.1622Z" fill="#1CBF90"/>
<path opacity="0.1" d="M127.412 68.1622L115.187 83.0068L117.286 84.736L129.511 69.8913L127.412 68.1622Z" fill="black"/>
<path d="M137.124 80.5795L129.641 89.666L131.74 91.3951L139.223 82.3086L137.124 80.5795Z" fill="#1CBF90"/>
<path opacity="0.1" d="M137.124 80.5795L129.641 89.666L131.74 91.3951L139.223 82.3086L137.124 80.5795Z" fill="black"/>
<path d="M125.587 74.6566L121.617 79.4775L131.399 87.5333L135.369 82.7124L125.587 74.6566Z" fill="#1CBF90"/>
<path opacity="0.6" d="M125.587 74.6566L121.617 79.4775L131.399 87.5333L135.369 82.7124L125.587 74.6566Z" fill="#F8F9FA"/>
<path opacity="0.2" d="M127.17 75.9561L122.663 80.3357L121.621 79.4775L125.592 74.6562L127.17 75.9561Z" fill="black"/>
<path d="M76.535 38.9129C74.4997 37.351 72.4937 35.7529 70.493 34.149L64.5231 29.2972L58.6163 24.3689L55.6853 21.8779C54.7184 21.0354 53.7419 20.204 52.7832 19.3516C53.8037 20.129 54.8065 20.9283 55.8188 21.7156L58.8256 24.1147L64.7947 28.9668L70.7007 33.8956C72.6589 35.5526 74.6118 37.2146 76.535 38.9129Z" fill="#263238"/>
<path d="M82.3633 34.8022L73.6143 45.4258L116.83 81.0162L125.579 70.3927L82.3633 34.8022Z" fill="#1CBF90"/>
<path opacity="0.6" d="M82.3633 34.8022L73.6143 45.4258L116.83 81.0162L125.579 70.3927L82.3633 34.8022Z" fill="#F8F9FA"/>
<path d="M81.1455 36.2837L74.5889 44.2451L95.0813 61.1217L101.638 53.1603L81.1455 36.2837Z" fill="#455A64"/>
<path d="M80.0432 46.7119L78.417 48.6865L78.6685 48.8937L80.2947 46.9191L80.0432 46.7119Z" fill="#263238"/>
<path d="M80.8979 47.4082L79.2715 49.3828L79.523 49.59L81.1495 47.6154L80.8979 47.4082Z" fill="#263238"/>
<path d="M81.7483 48.1062L80.1221 50.0811L80.3737 50.2882L81.9998 48.3134L81.7483 48.1062Z" fill="#263238"/>
<path d="M82.5981 48.8096L80.9717 50.7842L81.2232 50.9914L82.8497 49.0168L82.5981 48.8096Z" fill="#263238"/>
<path d="M84.637 48.0564L81.8154 51.4824L82.067 51.6896L84.8885 48.2635L84.637 48.0564Z" fill="#263238"/>
<path d="M84.2505 50.1764L82.624 52.1514L82.8756 52.3585L84.502 50.3836L84.2505 50.1764Z" fill="#263238"/>
<path d="M85.1001 50.8747L83.4736 52.8496L83.7252 53.0568L85.3516 51.0819L85.1001 50.8747Z" fill="#263238"/>
<path d="M85.9575 51.5772L84.3311 53.5518L84.5826 53.759L86.2091 51.7844L85.9575 51.5772Z" fill="#263238"/>
<path d="M86.8 52.2764L85.1738 54.251L85.4254 54.4581L87.0516 52.4835L86.8 52.2764Z" fill="#263238"/>
<path d="M88.845 51.5241L86.0234 54.9502L86.275 55.1574L89.0965 51.7313L88.845 51.5241Z" fill="#263238"/>
<path d="M88.4663 53.6426L86.8398 55.6172L87.0914 55.8244L88.7178 53.8498L88.4663 53.6426Z" fill="#263238"/>
<path d="M89.3078 54.3398L87.6816 56.3145L87.9332 56.5216L89.5594 54.547L89.3078 54.3398Z" fill="#263238"/>
<path d="M90.1584 55.04L88.5322 57.0146L88.7838 57.2218L90.41 55.2472L90.1584 55.04Z" fill="#263238"/>
<path d="M91.008 55.7412L89.3818 57.7158L89.6334 57.923L91.2596 55.9484L91.008 55.7412Z" fill="#263238"/>
<path d="M93.0549 54.9919L90.2334 58.418L90.485 58.6251L93.3065 55.1991L93.0549 54.9919Z" fill="#263238"/>
<path d="M92.6662 57.1074L91.04 59.082L91.2916 59.2892L92.9178 57.3146L92.6662 57.1074Z" fill="#263238"/>
<path d="M93.5158 57.8066L91.8896 59.7812L92.1412 59.9884L93.7674 58.0138L93.5158 57.8066Z" fill="#263238"/>
<path d="M94.3657 58.5065L92.7393 60.4814L92.9908 60.6886L94.6173 58.7137L94.3657 58.5065Z" fill="#263238"/>
<path d="M95.217 59.21L93.5908 61.1846L93.8424 61.3917L95.4686 59.4171L95.217 59.21Z" fill="#263238"/>
<path d="M97.261 58.4558L94.4395 61.8818L94.691 62.089L97.5125 58.6629L97.261 58.4558Z" fill="#263238"/>
<path d="M96.8742 60.5732L95.248 62.5479L95.4996 62.755L97.1258 60.7804L96.8742 60.5732Z" fill="#263238"/>
<path d="M97.7326 61.2703L96.1064 63.2451L96.358 63.4523L97.9842 61.4774L97.7326 61.2703Z" fill="#263238"/>
<path d="M98.5744 61.9717L96.9482 63.9463L97.1998 64.1535L98.826 62.1789L98.5744 61.9717Z" fill="#263238"/>
<path d="M99.4328 62.6687L97.8066 64.6436L98.0582 64.8507L99.6844 62.8759L99.4328 62.6687Z" fill="#263238"/>
<path d="M101.469 61.9206L98.6475 65.3467L98.899 65.5538L101.721 62.1278L101.469 61.9206Z" fill="#263238"/>
<path d="M101.082 64.0381L99.4561 66.0127L99.7079 66.2201L101.334 64.2455L101.082 64.0381Z" fill="#263238"/>
<path d="M101.941 64.7393L100.314 66.7139L100.566 66.9211L102.192 64.9465L101.941 64.7393Z" fill="#263238"/>
<path d="M102.791 65.4414L101.165 67.416L101.417 67.6232L103.043 65.6486L102.791 65.4414Z" fill="#263238"/>
<path d="M103.632 66.1387L102.006 68.1133L102.257 68.3205L103.884 66.3458L103.632 66.1387Z" fill="#263238"/>
<path d="M105.676 65.3835L102.854 68.8096L103.106 69.0167L105.928 65.5907L105.676 65.3835Z" fill="#263238"/>
<path d="M105.299 67.4998L103.673 69.4746L103.924 69.6818L105.551 67.7069L105.299 67.4998Z" fill="#263238"/>
<path d="M106.142 68.21L104.516 70.1846L104.767 70.3917L106.393 68.4171L106.142 68.21Z" fill="#263238"/>
<path d="M106.989 68.9033L105.363 70.8779L105.615 71.0851L107.241 69.1105L106.989 68.9033Z" fill="#263238"/>
<path d="M107.84 69.6035L106.214 71.5781L106.465 71.7853L108.092 69.8107L107.84 69.6035Z" fill="#263238"/>
<path d="M109.885 68.8532L107.063 72.2793L107.315 72.4865L110.137 69.0604L109.885 68.8532Z" fill="#263238"/>
<path d="M109.506 70.9678L107.88 72.9424L108.131 73.1496L109.758 71.175L109.506 70.9678Z" fill="#263238"/>
<path d="M110.349 71.6738L108.723 73.6484L108.974 73.8556L110.6 71.881L110.349 71.6738Z" fill="#263238"/>
<path d="M111.199 72.375L109.573 74.3496L109.825 74.5568L111.451 72.5822L111.199 72.375Z" fill="#263238"/>
<path d="M112.047 73.0674L110.421 75.042L110.672 75.2492L112.299 73.2746L112.047 73.0674Z" fill="#263238"/>
<path d="M114.095 72.323L111.273 75.749L111.525 75.9562L114.347 72.5301L114.095 72.323Z" fill="#263238"/>
<path d="M113.718 74.4363L112.092 76.4111L112.344 76.6186L113.97 74.6437L113.718 74.4363Z" fill="#263238"/>
<path d="M114.557 75.1348L112.931 77.1094L113.183 77.3168L114.809 75.3422L114.557 75.1348Z" fill="#263238"/>
<path d="M115.416 75.8369L113.79 77.8115L114.042 78.0187L115.668 76.0441L115.416 75.8369Z" fill="#263238"/>
<path d="M116.257 76.5352L114.631 78.5098L114.883 78.7172L116.509 76.7426L116.257 76.5352Z" fill="#263238"/>
<path d="M118.304 75.7878L115.482 79.2139L115.734 79.421L118.556 75.995L118.304 75.7878Z" fill="#263238"/>
<path d="M102.644 51.9357L94.2812 62.0898L97.3947 64.6539L105.757 54.4998L102.644 51.9357Z" fill="#263238"/>
<path d="M79.2787 35.1523L73.3682 42.3291L75.0343 43.7012L80.9448 36.5244L79.2787 35.1523Z" fill="#1CBF90"/>
<path opacity="0.1" d="M79.2787 35.1523L73.3682 42.3291L75.0343 43.7012L80.9448 36.5244L79.2787 35.1523Z" fill="black"/>
<path opacity="0.5" d="M75.9006 39.2541L73.3682 42.3291L75.0343 43.7012L77.5667 40.6263L75.9006 39.2541Z" fill="#F8F9FA"/>
<path d="M70.5497 32.4326L69.0273 34.2813L75.2922 39.9961L77.3596 37.4858L70.5497 32.4326Z" fill="#1CBF90"/>
<g opacity="0.6">
<path d="M70.5497 32.4326L69.0273 34.2813L75.2922 39.9961L77.3596 37.4858L70.5497 32.4326Z" fill="#F8F9FA"/>
</g>
<path opacity="0.1" d="M82.3647 34.8021L80.5449 37.0117L123.761 72.6022L125.58 70.3926L82.3647 34.8021Z" fill="black"/>
<path opacity="0.5" d="M77.6097 40.5743L73.6143 45.4258L116.83 81.0163L120.825 76.1648L77.6097 40.5743Z" fill="#F8F9FA"/>
<path opacity="0.6" d="M52.8258 19.5149C53.0631 20.6767 53.9081 21.3462 53.9081 22.431C53.9081 23.1743 53.4603 23.8359 52.7826 23.8359C52.1048 23.8359 51.6582 23.1743 51.6582 22.431C51.6582 21.3577 52.4847 20.6541 52.7323 19.5149C52.736 19.2982 52.8246 19.2961 52.8258 19.5149Z" fill="#1CBF90"/>
<path opacity="0.6" d="M52.7821 19.417C52.8014 20.1092 52.5608 20.7733 52.2988 21.3971C52.0817 21.9162 51.9136 22.823 52.2341 23.3178L52.2238 23.3302C52.1517 23.2795 51.6886 22.8864 51.9366 21.8906C52.0619 21.3872 52.422 20.899 52.5806 20.4103C52.6947 20.0923 52.7644 19.7577 52.7821 19.417Z" fill="#F8F9FA"/>
<path d="M53.0889 20.4736C53.1877 20.933 53.3348 21.2288 53.5054 21.703C53.6467 22.0973 53.7196 22.8163 53.479 23.1788L53.486 23.1883C53.5388 23.152 53.8342 22.8768 53.7275 22.1171C53.6871 21.8312 53.5334 21.5172 53.3138 21.0817C53.1779 20.8127 53.0889 20.4736 53.0889 20.4736Z" fill="#1CBF90"/>
<path d="M81.7464 80.7288C81.301 81.0592 91.2904 96.0634 90.5929 97.1927C87.8951 101.559 70.6191 112.252 67.5843 109.778C66.5531 108.937 61.4261 79.4314 62.8208 75.0592C64.0625 71.1654 73.7091 63.3959 77.9935 61.3054C81.7929 59.4518 91.9537 59.7431 103.507 60.858C107.443 61.2379 106.566 68.4751 99.4146 71.8736C96.5417 73.239 90.5381 75.2331 86.8589 74.7568C86.0221 74.6489 85.14 78.2102 81.7464 80.7288Z" fill="#1CBF90"/>
<path opacity="0.1" d="M105.643 65.1299C105.06 67.433 103.044 70.1501 99.4143 71.8739C96.541 73.2389 90.5361 75.2334 86.8598 74.7559C86.023 74.6504 85.1401 78.2084 81.7469 80.7266C81.299 81.0603 91.2884 96.0616 90.5913 97.1938C89.7714 98.5208 87.6121 100.426 84.9119 102.375H84.9078C85.4615 98.1068 82.5709 87.2889 79.3087 84.196C76.0465 81.1072 73.3252 80.1226 73.3252 80.1226C73.3252 80.1226 76.9846 80.6845 80.5892 77.3589C84.1979 74.0332 84.3837 68.2693 84.3837 68.2693C84.3837 68.2693 85.0853 71.8315 90.8954 71.5484C96.7013 71.2695 101.798 69.5329 105.643 65.1299Z" fill="black"/>
<path d="M87.5508 60.4323C91.3593 60.3891 95.1089 60.469 98.8915 60.879C100.156 61.0429 101.444 61.1579 102.653 61.6041C102.012 61.6346 101.387 61.7075 100.752 61.7598C96.3375 62.0433 91.7486 61.993 87.5508 60.4323Z" fill="#F8F9FA"/>
<path d="M83.4859 115.231C82.6017 116.329 61.8678 120.475 61.193 117.389C60.219 112.936 65.13 88.9922 69.7976 86.109C74.4651 83.2258 87.9054 80.9256 91.8392 81.4806C96.4087 82.1254 113.578 89.9295 113.767 93.1929C114.105 99.0136 106.426 101.878 88.5078 97.1127C88.5078 97.1127 86.9998 99.1014 83.4731 100.2C82.5218 100.496 83.4859 115.231 83.4859 115.231Z" fill="#1CBF90"/>
<path d="M112.535 91.6853C112.468 91.5448 112.325 91.462 112.206 91.3685C111.308 90.7641 110.332 90.2829 109.372 89.7852C106.06 88.1174 102.664 86.5901 99.2275 85.212C95.8656 83.9904 92.3846 82.33 88.7421 82.9431C83.8698 83.592 79.0107 84.5775 74.2636 85.8559C72.8744 86.2976 71.3467 86.6309 70.2009 87.4549C70.0345 87.6617 69.88 87.8957 69.7432 88.1281C67.6659 91.8991 66.2815 96.0307 65.0146 100.146C65.8218 95.8638 66.9815 91.5811 68.9311 87.6593C69.0893 87.3663 69.2793 87.0408 69.4951 86.7805C70.7781 85.6709 72.4344 85.3039 73.9435 84.7753C78.7363 83.3436 83.637 82.3259 88.6029 81.7195C92.4497 81.0957 96.1771 82.9048 99.6 84.3216C103.02 85.839 106.338 87.5559 109.536 89.489C110.46 90.0641 111.397 90.6323 112.234 91.3314C112.346 91.4385 112.481 91.5366 112.535 91.6853Z" fill="#F8F9FA"/>
<path opacity="0.1" d="M113.494 95.263C111.982 99.6195 104.143 101.268 88.5082 97.1137C88.5082 97.1137 86.9995 99.0996 83.4756 100.198C82.5206 100.494 83.4884 115.229 83.4884 115.229C83.2054 115.58 80.9192 116.235 77.9108 116.869C80.4038 115.111 81.2447 104.745 80.8941 102.375C80.5476 100.042 77.6149 97.5574 77.5264 97.4812C77.687 97.5488 81.1689 98.9982 83.8481 97.9674C86.5863 96.9151 86.3032 90.3779 86.3032 90.3779C86.3032 90.3779 87.5709 94.1049 94.0319 96.2094C100.492 98.3184 109.011 99.3538 113.494 95.263Z" fill="black"/>
<path d="M80.005 122.688C80.0347 124.097 66.2348 144.605 64.438 142.007C59.5311 134.909 53.2172 121.364 53.8768 117.407C54.831 111.684 59.3581 104.215 62.7253 102.107C66.6369 99.6583 90.3104 99.4371 92.5562 101.812C96.5617 106.049 90.5189 113.09 74.2741 115.571C74.2741 115.571 74.8851 116.545 74.0026 118.281C73.5515 119.169 80.005 122.688 80.005 122.688Z" fill="#1CBF90"/>
<path opacity="0.1" d="M74.2762 115.571C74.2762 115.571 74.8847 116.547 74.0014 118.28C73.549 119.167 80.0059 122.687 80.0059 122.687C80.0186 123.3 77.4366 127.488 74.3602 131.836C75.5563 127.268 73.7983 122.421 72.5347 121.191C71.2669 119.958 70.5653 119.539 70.5653 119.539C70.5653 119.539 72.4415 117.219 72.6611 116.024C72.8853 114.832 70.1426 110.966 70.1426 110.966C70.1426 110.966 76.363 112.863 81.4376 111.667C86.5126 110.476 91.2918 108.367 92.2044 106.398C93.0877 104.501 92.5933 101.995 92.5595 101.821C96.5538 106.06 90.5069 113.091 74.2762 115.571Z" fill="black"/>
<path d="M56.2335 124.947C55.6085 123.388 55.0235 121.81 54.562 120.191C54.3498 119.375 54.033 118.455 54.2258 117.589C55.3807 112.758 57.9931 106.798 61.7362 103.424C63.4818 101.754 66.0152 101.461 68.2746 101.124C71.6188 100.675 74.9914 100.5 78.3583 100.462C80.6 100.435 82.8425 100.487 85.0813 100.63C87.2855 100.859 89.6422 100.859 91.6779 101.812C89.5668 101.123 87.2596 101.315 85.0616 101.252C82.8363 101.257 80.6111 101.341 78.3896 101.452C76.1689 101.582 73.9495 101.719 71.7432 101.955C69.5448 102.185 67.3208 102.438 65.2336 102.973C64.1591 103.219 63.3524 103.651 62.5396 104.365C60.0902 106.518 58.4505 109.445 56.9998 112.363C56.1828 114.1 55.3947 115.88 54.8793 117.73C54.6687 118.511 54.899 119.284 55.0325 120.078C55.3708 121.713 55.7976 123.331 56.2335 124.947Z" fill="#F8F9FA"/>
</svg>
