<svg width="308" height="308" viewBox="0 0 308 308" fill="none" xmlns="http://www.w3.org/2000/svg">
<rect x="1" y="1" width="305.957" height="305.957" rx="24" fill="#F8F9FA" stroke="#DADADA" stroke-width="2"/>
<path d="M83.6142 278.008V248.917H93.7847C95.8112 248.917 97.4826 249.267 98.7989 249.968C100.115 250.659 101.095 251.592 101.739 252.766C102.383 253.931 102.705 255.224 102.705 256.644C102.705 257.894 102.483 258.926 102.038 259.741C101.602 260.555 101.024 261.199 100.305 261.673C99.5943 262.146 98.8226 262.496 97.9892 262.724V263.008C98.8794 263.065 99.7743 263.377 100.674 263.945C101.574 264.513 102.326 265.328 102.932 266.388C103.538 267.449 103.842 268.746 103.842 270.281C103.842 271.739 103.51 273.05 102.847 274.215C102.184 275.38 101.138 276.303 99.708 276.985C98.2781 277.667 96.4173 278.008 94.1256 278.008H83.6142ZM87.137 274.883H94.1256C96.4267 274.883 98.0603 274.438 99.0262 273.548C100.002 272.648 100.489 271.559 100.489 270.281C100.489 269.296 100.238 268.387 99.7364 267.553C99.2345 266.71 98.5195 266.038 97.5915 265.536C96.6635 265.025 95.565 264.769 94.2961 264.769H87.137V274.883ZM87.137 261.701H93.6711C94.7317 261.701 95.6881 261.493 96.5404 261.076C97.4021 260.659 98.0839 260.072 98.5858 259.315C99.0972 258.557 99.3529 257.667 99.3529 256.644C99.3529 255.366 98.9078 254.281 98.0176 253.391C97.1275 252.492 95.7165 252.042 93.7847 252.042H87.137V261.701ZM118.039 278.462C116.069 278.462 114.341 277.994 112.854 277.056C111.377 276.119 110.222 274.807 109.388 273.121C108.565 271.436 108.153 269.466 108.153 267.212C108.153 264.94 108.565 262.956 109.388 261.261C110.222 259.566 111.377 258.249 112.854 257.312C114.341 256.374 116.069 255.906 118.039 255.906C120.009 255.906 121.732 256.374 123.209 257.312C124.696 258.249 125.851 259.566 126.675 261.261C127.509 262.956 127.925 264.94 127.925 267.212C127.925 269.466 127.509 271.436 126.675 273.121C125.851 274.807 124.696 276.119 123.209 277.056C121.732 277.994 120.009 278.462 118.039 278.462ZM118.039 275.451C119.535 275.451 120.766 275.067 121.732 274.3C122.698 273.533 123.413 272.525 123.877 271.275C124.341 270.025 124.573 268.671 124.573 267.212C124.573 265.754 124.341 264.395 123.877 263.136C123.413 261.876 122.698 260.858 121.732 260.082C120.766 259.305 119.535 258.917 118.039 258.917C116.543 258.917 115.312 259.305 114.346 260.082C113.38 260.858 112.665 261.876 112.201 263.136C111.737 264.395 111.505 265.754 111.505 267.212C111.505 268.671 111.737 270.025 112.201 271.275C112.665 272.525 113.38 273.533 114.346 274.3C115.312 275.067 116.543 275.451 118.039 275.451ZM141.906 278.462C139.936 278.462 138.208 277.994 136.721 277.056C135.244 276.119 134.089 274.807 133.256 273.121C132.432 271.436 132.02 269.466 132.02 267.212C132.02 264.94 132.432 262.956 133.256 261.261C134.089 259.566 135.244 258.249 136.721 257.312C138.208 256.374 139.936 255.906 141.906 255.906C143.876 255.906 145.599 256.374 147.077 257.312C148.563 258.249 149.719 259.566 150.543 261.261C151.376 262.956 151.793 264.94 151.793 267.212C151.793 269.466 151.376 271.436 150.543 273.121C149.719 274.807 148.563 276.119 147.077 277.056C145.599 277.994 143.876 278.462 141.906 278.462ZM141.906 275.451C143.402 275.451 144.633 275.067 145.599 274.3C146.565 273.533 147.28 272.525 147.744 271.275C148.208 270.025 148.44 268.671 148.44 267.212C148.44 265.754 148.208 264.395 147.744 263.136C147.28 261.876 146.565 260.858 145.599 260.082C144.633 259.305 143.402 258.917 141.906 258.917C140.41 258.917 139.179 259.305 138.213 260.082C137.247 260.858 136.532 261.876 136.068 263.136C135.604 264.395 135.372 265.754 135.372 267.212C135.372 268.671 135.604 270.025 136.068 271.275C136.532 272.525 137.247 273.533 138.213 274.3C139.179 275.067 140.41 275.451 141.906 275.451ZM172.364 261.076L169.353 261.928C169.163 261.426 168.884 260.939 168.515 260.465C168.155 259.982 167.663 259.585 167.038 259.272C166.413 258.96 165.612 258.803 164.637 258.803C163.302 258.803 162.189 259.111 161.299 259.727C160.418 260.333 159.978 261.104 159.978 262.042C159.978 262.875 160.281 263.533 160.887 264.016C161.493 264.499 162.44 264.902 163.728 265.224L166.967 266.019C168.917 266.493 170.371 267.217 171.327 268.192C172.284 269.158 172.762 270.404 172.762 271.928C172.762 273.178 172.402 274.296 171.682 275.281C170.972 276.265 169.978 277.042 168.699 277.61C167.421 278.178 165.934 278.462 164.239 278.462C162.014 278.462 160.172 277.979 158.714 277.013C157.255 276.048 156.332 274.637 155.944 272.781L159.126 271.985C159.429 273.159 160.002 274.04 160.844 274.627C161.697 275.214 162.809 275.508 164.182 275.508C165.745 275.508 166.985 275.176 167.904 274.513C168.832 273.841 169.296 273.036 169.296 272.099C169.296 271.341 169.031 270.707 168.501 270.195C167.97 269.674 167.156 269.286 166.057 269.031L162.421 268.178C160.423 267.705 158.955 266.971 158.018 265.977C157.09 264.973 156.626 263.718 156.626 262.212C156.626 260.981 156.971 259.892 157.663 258.945C158.363 257.998 159.315 257.255 160.518 256.715C161.73 256.175 163.103 255.906 164.637 255.906C166.796 255.906 168.491 256.379 169.722 257.326C170.963 258.273 171.843 259.523 172.364 261.076ZM187.297 256.19V259.031H175.99V256.19H187.297ZM179.285 250.962H182.638V271.758C182.638 272.705 182.775 273.415 183.05 273.888C183.334 274.353 183.694 274.665 184.129 274.826C184.574 274.978 185.043 275.053 185.535 275.053C185.905 275.053 186.208 275.034 186.444 274.996C186.681 274.949 186.871 274.911 187.013 274.883L187.694 277.894C187.467 277.979 187.15 278.065 186.743 278.15C186.336 278.245 185.819 278.292 185.194 278.292C184.248 278.292 183.319 278.088 182.41 277.681C181.511 277.274 180.763 276.654 180.166 275.82C179.579 274.987 179.285 273.936 179.285 272.667V250.962ZM201.253 278.462C199.15 278.462 197.337 277.998 195.812 277.07C194.297 276.133 193.128 274.826 192.304 273.15C191.489 271.464 191.082 269.504 191.082 267.269C191.082 265.034 191.489 263.065 192.304 261.36C193.128 259.646 194.274 258.311 195.741 257.354C197.219 256.388 198.942 255.906 200.912 255.906C202.048 255.906 203.17 256.095 204.278 256.474C205.386 256.853 206.395 257.468 207.304 258.32C208.213 259.163 208.937 260.281 209.477 261.673C210.017 263.065 210.287 264.779 210.287 266.815V268.235H193.469V265.337H206.878C206.878 264.106 206.632 263.008 206.139 262.042C205.656 261.076 204.965 260.314 204.065 259.755C203.175 259.196 202.124 258.917 200.912 258.917C199.577 258.917 198.421 259.248 197.446 259.911C196.48 260.565 195.737 261.417 195.216 262.468C194.695 263.519 194.435 264.646 194.435 265.849V267.781C194.435 269.428 194.719 270.825 195.287 271.971C195.864 273.107 196.665 273.974 197.687 274.57C198.71 275.157 199.899 275.451 201.253 275.451C202.133 275.451 202.929 275.328 203.639 275.082C204.359 274.826 204.979 274.447 205.5 273.945C206.021 273.434 206.423 272.799 206.707 272.042L209.946 272.951C209.605 274.049 209.032 275.015 208.227 275.849C207.422 276.673 206.428 277.317 205.244 277.781C204.06 278.235 202.73 278.462 201.253 278.462ZM215.386 278.008V256.19H218.625V259.485H218.852C219.25 258.406 219.97 257.53 221.011 256.857C222.053 256.185 223.227 255.849 224.534 255.849C224.78 255.849 225.088 255.853 225.457 255.863C225.827 255.872 226.106 255.887 226.295 255.906V259.315C226.182 259.286 225.921 259.244 225.514 259.187C225.116 259.121 224.695 259.087 224.25 259.087C223.189 259.087 222.242 259.31 221.409 259.755C220.585 260.191 219.932 260.797 219.449 261.573C218.975 262.34 218.739 263.216 218.739 264.201V278.008H215.386Z" fill="black"/>
<path opacity="0.5" d="M225.03 187.019L222.101 183.9C221.625 183.307 221.359 181.612 221.359 181.612H208.901C208.901 181.612 208.642 183.307 208.165 183.9L205.23 187.019C204.896 187.441 204.712 187.959 204.712 188.497V219.625C204.712 220.926 205.768 221.982 207.069 221.982H223.191C224.499 221.982 225.548 220.926 225.548 219.625V188.497C225.548 187.959 225.364 187.441 225.03 187.019Z" fill="#DBDBDB"/>
<path d="M224.39 190.725V218.692C224.39 219.85 223.457 220.783 222.298 220.783H207.96C206.809 220.783 205.869 219.85 205.869 218.692V190.725H224.39Z" fill="#455A64"/>
<path d="M223.171 175.609H207.089V181.612H223.171V175.609Z" fill="#C7C7C7"/>
<path d="M223.766 193.669H210.516V215.64H223.766V193.669Z" fill="white"/>
<g opacity="0.6">
<path d="M209.898 184.102C209.29 185.645 208.195 187.079 207.945 188.723C207.941 188.827 207.952 189.065 207.962 189.171C208.343 195.558 208.378 201.957 208.101 208.348C207.98 211.112 207.801 213.877 207.458 216.641C206.459 207.688 206.472 198.673 206.92 189.69C206.933 189.53 206.957 189.069 206.97 188.912C207.264 186.978 208.833 185.579 209.898 184.102Z" fill="white"/>
</g>
<path opacity="0.1" d="M225.547 188.495V219.625C225.547 220.925 224.498 221.981 223.192 221.981H217.185C218.491 221.981 219.54 220.925 219.54 219.625V188.495C219.54 187.958 219.356 187.443 219.025 187.019L216.093 183.901C215.616 183.307 215.352 181.612 215.352 181.612H221.359C221.359 181.612 221.623 183.307 222.1 183.901L225.032 187.019C225.363 187.443 225.547 187.958 225.547 188.495Z" fill="black"/>
<path d="M88.0438 221.982H113.205V178.4H88.0438V221.982Z" fill="#1CBF90"/>
<path opacity="0.1" d="M88.0438 221.982H113.205V178.4H88.0438V221.982Z" fill="black"/>
<path opacity="0.6" d="M88.0439 178.399V221.982H113.206V178.399H111.476V220.142H89.7743V178.399H88.0439Z" fill="black"/>
<path opacity="0.5" d="M111.476 178.399H89.7744V220.142H111.476V178.399Z" fill="black"/>
<path d="M92.379 173.765H108.87V167.138H92.379V173.765Z" fill="#263238"/>
<path d="M94.3455 178.4H106.905V173.765H94.3455V178.4Z" fill="#1CBF90"/>
<path opacity="0.5" d="M94.3455 178.4H106.905V173.765H94.3455V178.4Z" fill="black"/>
<path opacity="0.1" d="M94.3455 176.581H106.905V173.765H94.3455V176.581Z" fill="black"/>
<path d="M90.516 204.961H107.739V186.09H90.516V204.961Z" fill="white"/>
<path d="M99.003 199.988H101.712V191.399H99.003V199.988Z" fill="white"/>
<path d="M101.617 197.049V194.34H93.0282V197.049H101.617Z" fill="#263238"/>
<path d="M95.9688 199.988H98.6777V191.399H95.9688V199.988Z" fill="#263238"/>
<path opacity="0.2" d="M109.378 178.399V221.982H105.122V183.476L96.6748 180.109V178.4L109.378 178.399Z" fill="black"/>
<path d="M96.8051 167.138H104.443V155.568C104.443 153.459 102.733 151.749 100.624 151.749C98.5145 151.749 96.8047 153.459 96.8047 155.568L96.8051 167.138Z" fill="#263238"/>
<path opacity="0.2" d="M104.443 167.138V166.173L96.8047 165.586V167.138H104.443Z" fill="black"/>
<path opacity="0.2" d="M92.8152 178.399H89.7549V221.982H92.8152V178.399Z" fill="white"/>
<path opacity="0.5" d="M91.2847 192.082V221.983H80.9258V192.082C80.9258 191.491 81.1281 190.917 81.4997 190.464L83.8666 187.55C84.1015 187.266 84.2275 186.911 84.2275 186.544V185.516C84.2275 185.27 83.1016 182.887 83.1016 182.887C82.8502 182.384 82.7682 181.81 82.8774 181.258L84.8072 171.156C84.9275 170.533 85.4743 170.085 86.1026 170.085C86.7366 170.085 87.2834 170.533 87.4037 171.156L89.3335 181.258C89.4426 181.81 89.3607 182.384 89.1093 182.887C89.1093 182.887 87.9833 185.27 87.9833 185.516V186.544C87.9833 186.911 88.109 187.266 88.3443 187.55L90.7112 190.464C91.0824 190.917 91.2847 191.491 91.2847 192.082Z" fill="#DBDBDB"/>
<path d="M90.4045 195.047H81.8057V220.738H90.4045V195.047Z" fill="#1CBF90"/>
<path d="M90.2194 202.334H83.8252V212.922H90.2194V202.334Z" fill="white"/>
<g opacity="0.6">
<path d="M84.825 188.806C84.2536 190.054 83.3196 191.203 83.0765 192.57C83.0609 192.788 83.0885 193.162 83.0942 193.384C83.2636 198.474 83.2817 203.582 83.147 208.672C83.093 210.937 82.9855 213.202 82.8256 215.467C82.6653 213.202 82.5578 210.937 82.5042 208.672C82.3695 203.583 82.3876 198.474 82.557 193.384C82.5693 193.136 82.5718 192.746 82.6109 192.501C82.9768 191.07 84.0472 189.985 84.825 188.806Z" fill="white"/>
<path d="M85.9891 171.626C85.6431 173.375 85.2916 176.068 84.9888 177.852C84.8977 178.436 84.4289 181.203 84.3663 181.736C84.2385 182.517 84.6098 183.246 84.8248 183.987C84.4862 183.285 84.021 182.525 84.1071 181.715C84.1829 180.395 84.3803 179.089 84.5826 177.786C84.9534 175.714 85.2821 173.616 85.9891 171.626Z" fill="white"/>
</g>
<path opacity="0.1" d="M87.2104 182.887C87.2104 182.887 86.0848 185.269 86.0848 185.517V186.544C86.0848 186.909 86.2093 187.265 86.4437 187.549L88.8106 190.462C89.1839 190.917 89.3866 191.489 89.3866 192.08V221.982H91.2847V192.08C91.2847 191.489 91.082 190.917 90.7116 190.462L88.3447 187.549C88.1102 187.265 87.9829 186.909 87.9829 186.544V185.517C87.9829 185.269 89.1085 182.887 89.1085 182.887C89.3602 182.384 89.4443 181.811 89.3343 181.258L87.4041 171.157C87.2825 170.532 86.7387 170.083 86.1079 170.083C86.0152 170.083 85.9258 170.092 85.8389 170.112C86.351 170.216 86.7675 170.621 86.8689 171.156L87.4329 181.258C87.5433 181.811 87.4621 182.384 87.2104 182.887Z" fill="black"/>
<path d="M192.36 168.133C194.595 179.784 204.815 221.982 204.815 221.982H124.828L125.54 183.203L192.36 168.133Z" fill="#EB9481"/>
<path d="M124.992 182.103C125.102 182.513 124.575 208.579 124.219 210.09C124.032 210.886 123.095 212.385 123.377 213.791C123.658 215.196 157.102 217.257 162.816 216.976C168.53 216.695 203.667 210.713 203.848 209.669C204.108 208.17 202.82 206.591 202.537 206.39C201.98 205.995 192.653 161.985 192.653 161.985L124.992 182.103Z" fill="#1CBF90"/>
<path d="M140.301 132.573C139.684 128.755 134.419 95.3583 134.946 91.9082C135.474 88.4581 144.367 69.2099 149.189 60.5822C152.736 54.2362 158.89 48.7475 161.29 62.6233C163.091 73.0382 155.559 84.3472 156.139 87.9629C156.521 90.3447 164.816 123.423 164.816 123.423L140.301 132.573Z" fill="#1CBF90"/>
<path d="M110.679 160.044C117.815 177.596 138.968 199.205 149.863 200.582C163.274 202.277 198.133 170.979 195.136 155.83C193.391 147.013 169.579 111.548 154.577 106.762C139.574 101.976 104.657 145.232 110.679 160.044Z" fill="#1CBF90"/>
<path d="M195.245 159.08C195.245 159.08 195.318 136.387 196.787 122.096C198.116 109.175 208.265 95.4227 200.876 93.2275C193.486 91.0324 178.007 106.011 175.454 125.474C175.454 125.474 146.214 150.337 152.064 177.126C157.913 203.915 195.245 159.08 195.245 159.08Z" fill="#1CBF90"/>
<g opacity="0.1">
<path d="M201.141 106.398C199.43 111.178 197.343 116.709 196.789 122.097C195.606 133.603 195.327 150.557 195.263 156.726C195.251 158.108 195.246 158.949 195.246 159.067C195.246 159.076 195.246 159.08 195.246 159.08C195.039 161.041 194.384 163.17 193.374 165.393C193.619 166.538 193.915 167.929 194.253 169.5C192.343 171.592 189.824 173.62 186.943 175.53C176.399 182.528 160.98 187.988 152.651 189.526C153.294 189.179 186.943 175.53 190.45 154.491C190.782 152.502 190.961 149.644 190.982 146.53C191.046 139.304 190.45 130.73 190.45 128.634C190.45 125.638 200.034 109.483 201.141 106.398Z" fill="black"/>
<path d="M148.933 185.085C148.489 185.313 139.974 189.594 130.386 187.912C128.641 187.608 126.858 187.105 125.083 186.344C125.045 186.328 125.007 186.311 124.969 186.294C125.007 184.075 125.02 182.52 124.999 182.174C120.79 177.335 116.911 171.998 113.948 166.746C113.944 166.712 113.944 166.695 113.944 166.695C116.341 170.583 122.467 176.993 128.481 181.185C131.181 183.074 133.855 184.511 136.163 185.077C143.368 186.847 148.599 185.19 148.933 185.085Z" fill="black"/>
<path d="M130.496 210.699C130.496 210.699 154.385 212.573 161.973 212.292C169.561 212.011 194.855 206.577 194.855 206.577C194.855 206.577 170.873 210.512 161.411 210.699C151.949 210.887 130.496 210.699 130.496 210.699Z" fill="black"/>
<path d="M129.309 194.056C129.309 194.056 136.257 197.017 143.098 197.073C149.939 197.129 158.119 194.646 158.119 194.646C158.119 194.646 146.846 195.64 142.388 195.324C137.929 195.007 129.309 194.056 129.309 194.056Z" fill="black"/>
<path d="M151.361 198.305C151.361 198.305 156.382 199.044 161.053 198.187C165.724 197.33 171.066 194.893 171.066 194.893C171.066 194.893 163.472 196.907 160.402 197.31C157.331 197.713 151.361 198.305 151.361 198.305Z" fill="black"/>
<path d="M146.984 120.93C146.984 120.93 145.228 128.423 143.12 133.11C141.012 137.796 136.305 145.289 136.305 145.289C136.305 145.289 144.103 138.748 145.79 135.144C147.476 131.539 146.984 120.93 146.984 120.93Z" fill="black"/>
<path d="M151.472 117.562C151.472 117.562 151.754 124.684 151.055 129.372C150.356 134.061 148.078 141.87 148.078 141.87C148.078 141.87 152.359 135.25 153.161 130.185C153.734 126.56 151.472 117.562 151.472 117.562Z" fill="black"/>
<path d="M175.487 124.341C175.487 124.341 169.347 131.071 164.816 140.439C160.286 149.807 158.118 157.121 158.118 157.121C158.118 157.121 159.349 146.997 162.335 138.53C164.189 133.276 172.473 120.861 172.473 120.861L175.487 124.341Z" fill="black"/>
</g>
<path d="M177.412 93.1622L165.187 108.007L167.286 109.736L179.511 94.8913L177.412 93.1622Z" fill="#1CBF90"/>
<path opacity="0.1" d="M177.412 93.1622L165.187 108.007L167.286 109.736L179.511 94.8913L177.412 93.1622Z" fill="black"/>
<path d="M187.124 105.579L179.641 114.666L181.74 116.395L189.223 107.309L187.124 105.579Z" fill="#1CBF90"/>
<path opacity="0.1" d="M187.124 105.579L179.641 114.666L181.74 116.395L189.223 107.309L187.124 105.579Z" fill="black"/>
<path d="M175.587 99.6566L171.617 104.478L181.399 112.533L185.369 107.712L175.587 99.6566Z" fill="#1CBF90"/>
<path opacity="0.6" d="M175.587 99.6566L171.617 104.478L181.399 112.533L185.369 107.712L175.587 99.6566Z" fill="white"/>
<path opacity="0.2" d="M177.17 100.956L172.663 105.336L171.621 104.477L175.592 99.6562L177.17 100.956Z" fill="black"/>
<path d="M126.535 63.9129C124.5 62.351 122.494 60.7529 120.493 59.149L114.523 54.2972L108.616 49.3689L105.685 46.8779C104.718 46.0354 103.742 45.204 102.783 44.3516C103.804 45.129 104.807 45.9283 105.819 46.7156L108.826 49.1147L114.795 53.9668L120.701 58.8956C122.659 60.5526 124.612 62.2146 126.535 63.9129Z" fill="#263238"/>
<path d="M132.363 59.8022L123.614 70.4258L166.83 106.016L175.579 95.3927L132.363 59.8022Z" fill="#1CBF90"/>
<path opacity="0.6" d="M132.363 59.8022L123.614 70.4258L166.83 106.016L175.579 95.3927L132.363 59.8022Z" fill="white"/>
<path d="M131.145 61.2837L124.589 69.2451L145.081 86.1217L151.638 78.1603L131.145 61.2837Z" fill="#455A64"/>
<path d="M130.043 71.7119L128.417 73.6865L128.669 73.8937L130.295 71.9191L130.043 71.7119Z" fill="#263238"/>
<path d="M130.898 72.4082L129.271 74.3828L129.523 74.59L131.149 72.6154L130.898 72.4082Z" fill="#263238"/>
<path d="M131.748 73.1062L130.122 75.0811L130.374 75.2882L132 73.3134L131.748 73.1062Z" fill="#263238"/>
<path d="M132.598 73.8096L130.972 75.7842L131.223 75.9914L132.85 74.0168L132.598 73.8096Z" fill="#263238"/>
<path d="M134.637 73.0564L131.815 76.4824L132.067 76.6896L134.889 73.2635L134.637 73.0564Z" fill="#263238"/>
<path d="M134.25 75.1764L132.624 77.1514L132.876 77.3585L134.502 75.3836L134.25 75.1764Z" fill="#263238"/>
<path d="M135.1 75.8747L133.474 77.8496L133.725 78.0568L135.352 76.0819L135.1 75.8747Z" fill="#263238"/>
<path d="M135.957 76.5772L134.331 78.5518L134.583 78.759L136.209 76.7844L135.957 76.5772Z" fill="#263238"/>
<path d="M136.8 77.2764L135.174 79.251L135.425 79.4581L137.052 77.4835L136.8 77.2764Z" fill="#263238"/>
<path d="M138.845 76.5241L136.023 79.9502L136.275 80.1574L139.097 76.7313L138.845 76.5241Z" fill="#263238"/>
<path d="M138.466 78.6426L136.84 80.6172L137.091 80.8244L138.718 78.8498L138.466 78.6426Z" fill="#263238"/>
<path d="M139.308 79.3398L137.682 81.3145L137.933 81.5216L139.559 79.547L139.308 79.3398Z" fill="#263238"/>
<path d="M140.158 80.04L138.532 82.0146L138.784 82.2218L140.41 80.2472L140.158 80.04Z" fill="#263238"/>
<path d="M141.008 80.7412L139.382 82.7158L139.633 82.923L141.26 80.9484L141.008 80.7412Z" fill="#263238"/>
<path d="M143.055 79.9919L140.233 83.418L140.485 83.6251L143.306 80.1991L143.055 79.9919Z" fill="#263238"/>
<path d="M142.666 82.1074L141.04 84.082L141.292 84.2892L142.918 82.3146L142.666 82.1074Z" fill="#263238"/>
<path d="M143.516 82.8066L141.89 84.7812L142.141 84.9884L143.767 83.0138L143.516 82.8066Z" fill="#263238"/>
<path d="M144.366 83.5065L142.739 85.4814L142.991 85.6886L144.617 83.7137L144.366 83.5065Z" fill="#263238"/>
<path d="M145.217 84.21L143.591 86.1846L143.842 86.3917L145.469 84.4171L145.217 84.21Z" fill="#263238"/>
<path d="M147.261 83.4558L144.439 86.8818L144.691 87.089L147.513 83.6629L147.261 83.4558Z" fill="#263238"/>
<path d="M146.874 85.5732L145.248 87.5479L145.5 87.755L147.126 85.7804L146.874 85.5732Z" fill="#263238"/>
<path d="M147.733 86.2703L146.106 88.2451L146.358 88.4523L147.984 86.4774L147.733 86.2703Z" fill="#263238"/>
<path d="M148.574 86.9717L146.948 88.9463L147.2 89.1535L148.826 87.1789L148.574 86.9717Z" fill="#263238"/>
<path d="M149.433 87.6687L147.807 89.6436L148.058 89.8507L149.684 87.8759L149.433 87.6687Z" fill="#263238"/>
<path d="M151.469 86.9206L148.647 90.3467L148.899 90.5538L151.721 87.1278L151.469 86.9206Z" fill="#263238"/>
<path d="M151.082 89.0381L149.456 91.0127L149.708 91.2201L151.334 89.2455L151.082 89.0381Z" fill="#263238"/>
<path d="M151.941 89.7393L150.314 91.7139L150.566 91.9211L152.192 89.9465L151.941 89.7393Z" fill="#263238"/>
<path d="M152.791 90.4414L151.165 92.416L151.417 92.6232L153.043 90.6486L152.791 90.4414Z" fill="#263238"/>
<path d="M153.632 91.1387L152.006 93.1133L152.257 93.3205L153.884 91.3458L153.632 91.1387Z" fill="#263238"/>
<path d="M155.676 90.3835L152.854 93.8096L153.106 94.0167L155.928 90.5907L155.676 90.3835Z" fill="#263238"/>
<path d="M155.299 92.4998L153.673 94.4746L153.924 94.6818L155.551 92.7069L155.299 92.4998Z" fill="#263238"/>
<path d="M156.142 93.21L154.516 95.1846L154.767 95.3917L156.393 93.4171L156.142 93.21Z" fill="#263238"/>
<path d="M156.989 93.9033L155.363 95.8779L155.615 96.0851L157.241 94.1105L156.989 93.9033Z" fill="#263238"/>
<path d="M157.84 94.6035L156.214 96.5781L156.465 96.7853L158.092 94.8107L157.84 94.6035Z" fill="#263238"/>
<path d="M159.885 93.8532L157.063 97.2793L157.315 97.4865L160.137 94.0604L159.885 93.8532Z" fill="#263238"/>
<path d="M159.506 95.9678L157.88 97.9424L158.131 98.1496L159.758 96.175L159.506 95.9678Z" fill="#263238"/>
<path d="M160.349 96.6738L158.723 98.6484L158.974 98.8556L160.6 96.881L160.349 96.6738Z" fill="#263238"/>
<path d="M161.199 97.375L159.573 99.3496L159.825 99.5568L161.451 97.5822L161.199 97.375Z" fill="#263238"/>
<path d="M162.047 98.0674L160.421 100.042L160.672 100.249L162.299 98.2746L162.047 98.0674Z" fill="#263238"/>
<path d="M164.095 97.323L161.273 100.749L161.525 100.956L164.347 97.5301L164.095 97.323Z" fill="#263238"/>
<path d="M163.718 99.4363L162.092 101.411L162.344 101.619L163.97 99.6437L163.718 99.4363Z" fill="#263238"/>
<path d="M164.557 100.135L162.931 102.109L163.183 102.317L164.809 100.342L164.557 100.135Z" fill="#263238"/>
<path d="M165.416 100.837L163.79 102.812L164.042 103.019L165.668 101.044L165.416 100.837Z" fill="#263238"/>
<path d="M166.257 101.535L164.631 103.51L164.883 103.717L166.509 101.743L166.257 101.535Z" fill="#263238"/>
<path d="M168.304 100.788L165.482 104.214L165.734 104.421L168.556 100.995L168.304 100.788Z" fill="#263238"/>
<path d="M152.644 76.9357L144.281 87.0898L147.395 89.6539L155.757 79.4998L152.644 76.9357Z" fill="#263238"/>
<path d="M129.279 60.1523L123.368 67.3291L125.034 68.7012L130.945 61.5244L129.279 60.1523Z" fill="#1CBF90"/>
<path opacity="0.1" d="M129.279 60.1523L123.368 67.3291L125.034 68.7012L130.945 61.5244L129.279 60.1523Z" fill="black"/>
<path opacity="0.5" d="M125.901 64.2541L123.368 67.3291L125.034 68.7012L127.567 65.6263L125.901 64.2541Z" fill="white"/>
<path d="M120.55 57.4326L119.027 59.2813L125.292 64.9961L127.36 62.4858L120.55 57.4326Z" fill="#1CBF90"/>
<g opacity="0.6">
<path d="M120.55 57.4326L119.027 59.2813L125.292 64.9961L127.36 62.4858L120.55 57.4326Z" fill="white"/>
</g>
<path opacity="0.1" d="M132.365 59.8021L130.545 62.0117L173.761 97.6022L175.58 95.3926L132.365 59.8021Z" fill="black"/>
<path opacity="0.5" d="M127.61 65.5743L123.614 70.4258L166.83 106.016L170.825 101.165L127.61 65.5743Z" fill="white"/>
<path opacity="0.6" d="M102.826 44.5149C103.063 45.6767 103.908 46.3462 103.908 47.431C103.908 48.1743 103.46 48.8359 102.783 48.8359C102.105 48.8359 101.658 48.1743 101.658 47.431C101.658 46.3577 102.485 45.6541 102.732 44.5149C102.736 44.2982 102.825 44.2961 102.826 44.5149Z" fill="#1CBF90"/>
<path opacity="0.6" d="M102.782 44.417C102.801 45.1092 102.561 45.7733 102.299 46.3971C102.082 46.9162 101.914 47.823 102.234 48.3178L102.224 48.3302C102.152 48.2795 101.689 47.8864 101.937 46.8906C102.062 46.3872 102.422 45.899 102.581 45.4103C102.695 45.0923 102.764 44.7577 102.782 44.417Z" fill="white"/>
<path d="M103.089 45.4736C103.188 45.933 103.335 46.2288 103.505 46.703C103.647 47.0973 103.72 47.8163 103.479 48.1788L103.486 48.1883C103.539 48.152 103.834 47.8768 103.727 47.1171C103.687 46.8312 103.533 46.5172 103.314 46.0817C103.178 45.8127 103.089 45.4736 103.089 45.4736Z" fill="#1CBF90"/>
<path d="M131.746 105.729C131.301 106.059 141.29 121.063 140.593 122.193C137.895 126.559 120.619 137.252 117.584 134.778C116.553 133.937 111.426 104.431 112.821 100.059C114.063 96.1654 123.709 88.3959 127.993 86.3054C131.793 84.4518 141.954 84.7431 153.507 85.858C157.443 86.2379 156.566 93.4751 149.415 96.8736C146.542 98.239 140.538 100.233 136.859 99.7568C136.022 99.6489 135.14 103.21 131.746 105.729Z" fill="#1CBF90"/>
<path opacity="0.1" d="M155.643 90.1299C155.06 92.433 153.044 95.1501 149.414 96.8739C146.541 98.2389 140.536 100.233 136.86 99.7559C136.023 99.6504 135.14 103.208 131.747 105.727C131.299 106.06 141.288 121.062 140.591 122.194C139.771 123.521 137.612 125.426 134.912 127.375H134.908C135.461 123.107 132.571 112.289 129.309 109.196C126.046 106.107 123.325 105.123 123.325 105.123C123.325 105.123 126.985 105.685 130.589 102.359C134.198 99.0332 134.384 93.2693 134.384 93.2693C134.384 93.2693 135.085 96.8315 140.895 96.5484C146.701 96.2695 151.798 94.5329 155.643 90.1299Z" fill="black"/>
<path d="M137.551 85.4323C141.359 85.3891 145.109 85.469 148.891 85.879C150.156 86.0429 151.444 86.1579 152.653 86.6041C152.012 86.6346 151.387 86.7075 150.752 86.7598C146.338 87.0433 141.749 86.993 137.551 85.4323Z" fill="white"/>
<path d="M133.486 140.231C132.602 141.329 111.868 145.475 111.193 142.389C110.219 137.936 115.13 113.992 119.798 111.109C124.465 108.226 137.905 105.926 141.839 106.481C146.409 107.125 163.578 114.929 163.767 118.193C164.105 124.014 156.426 126.878 138.508 122.113C138.508 122.113 137 124.101 133.473 125.2C132.522 125.496 133.486 140.231 133.486 140.231Z" fill="#1CBF90"/>
<path d="M162.535 116.685C162.468 116.545 162.325 116.462 162.206 116.368C161.308 115.764 160.332 115.283 159.372 114.785C156.06 113.117 152.664 111.59 149.228 110.212C145.866 108.99 142.385 107.33 138.742 107.943C133.87 108.592 129.011 109.577 124.264 110.856C122.874 111.298 121.347 111.631 120.201 112.455C120.034 112.662 119.88 112.896 119.743 113.128C117.666 116.899 116.282 121.031 115.015 125.146C115.822 120.864 116.982 116.581 118.931 112.659C119.089 112.366 119.279 112.041 119.495 111.78C120.778 110.671 122.434 110.304 123.944 109.775C128.736 108.344 133.637 107.326 138.603 106.719C142.45 106.096 146.177 107.905 149.6 109.322C153.02 110.839 156.338 112.556 159.536 114.489C160.46 115.064 161.397 115.632 162.234 116.331C162.346 116.439 162.481 116.537 162.535 116.685Z" fill="white"/>
<path opacity="0.1" d="M163.494 120.263C161.982 124.619 154.143 126.268 138.508 122.114C138.508 122.114 136.999 124.1 133.476 125.198C132.521 125.494 133.488 140.229 133.488 140.229C133.205 140.58 130.919 141.235 127.911 141.869C130.404 140.111 131.245 129.745 130.894 127.375C130.548 125.042 127.615 122.557 127.526 122.481C127.687 122.549 131.169 123.998 133.848 122.967C136.586 121.915 136.303 115.378 136.303 115.378C136.303 115.378 137.571 119.105 144.032 121.209C150.492 123.318 159.011 124.354 163.494 120.263Z" fill="black"/>
<path d="M130.005 147.688C130.035 149.097 116.235 169.605 114.438 167.007C109.531 159.909 103.217 146.364 103.877 142.407C104.831 136.684 109.358 129.215 112.725 127.107C116.637 124.658 140.31 124.437 142.556 126.812C146.562 131.049 140.519 138.09 124.274 140.571C124.274 140.571 124.885 141.545 124.003 143.281C123.551 144.169 130.005 147.688 130.005 147.688Z" fill="#1CBF90"/>
<path opacity="0.1" d="M124.276 140.571C124.276 140.571 124.885 141.547 124.001 143.28C123.549 144.167 130.006 147.687 130.006 147.687C130.019 148.3 127.437 152.488 124.36 156.836C125.556 152.268 123.798 147.421 122.535 146.191C121.267 144.958 120.565 144.539 120.565 144.539C120.565 144.539 122.442 142.219 122.661 141.024C122.885 139.832 120.143 135.966 120.143 135.966C120.143 135.966 126.363 137.863 131.438 136.667C136.513 135.476 141.292 133.367 142.204 131.398C143.088 129.501 142.593 126.995 142.559 126.821C146.554 131.06 140.507 138.091 124.276 140.571Z" fill="black"/>
<path d="M106.233 149.947C105.608 148.388 105.023 146.81 104.562 145.191C104.35 144.375 104.033 143.455 104.226 142.589C105.381 137.758 107.993 131.798 111.736 128.424C113.482 126.754 116.015 126.461 118.275 126.124C121.619 125.675 124.991 125.5 128.358 125.462C130.6 125.435 132.843 125.487 135.081 125.63C137.286 125.859 139.642 125.859 141.678 126.812C139.567 126.123 137.26 126.315 135.062 126.252C132.836 126.257 130.611 126.341 128.39 126.452C126.169 126.582 123.949 126.719 121.743 126.955C119.545 127.185 117.321 127.438 115.234 127.973C114.159 128.219 113.352 128.651 112.54 129.365C110.09 131.518 108.45 134.445 107 137.363C106.183 139.1 105.395 140.88 104.879 142.73C104.669 143.511 104.899 144.284 105.033 145.078C105.371 146.713 105.798 148.331 106.233 149.947Z" fill="white"/>
</svg>
