<svg width="279" height="279" viewBox="0 0 279 279" fill="none" xmlns="http://www.w3.org/2000/svg">
<circle cx="139.5" cy="139.5" r="139.5" fill="#E9ECEF"/>
<path d="M112.109 156V144.145L139.809 118.497C142.165 116.217 144.14 114.165 145.736 112.341C147.357 110.517 148.586 108.732 149.422 106.984C150.258 105.21 150.676 103.298 150.676 101.246C150.676 98.9663 150.157 97.0031 149.118 95.3565C148.079 93.6847 146.661 92.4054 144.862 91.5188C143.064 90.6069 141.025 90.1509 138.745 90.1509C136.364 90.1509 134.286 90.6322 132.513 91.5948C130.74 92.5574 129.372 93.938 128.41 95.7365C127.447 97.535 126.966 99.6755 126.966 102.158H111.349C111.349 97.0664 112.501 92.6461 114.807 88.897C117.112 85.148 120.342 82.2475 124.496 80.1957C128.65 78.1438 133.438 77.1179 138.859 77.1179C144.432 77.1179 149.283 78.1058 153.412 80.0817C157.566 82.0322 160.796 84.7427 163.101 88.2131C165.406 91.6835 166.559 95.6605 166.559 100.144C166.559 103.083 165.976 105.983 164.811 108.846C163.671 111.708 161.632 114.887 158.693 118.383C155.755 121.853 151.613 126.02 146.268 130.884L134.907 142.017V142.549H167.585V156H112.109Z" fill="#2B9879"/>
<path d="M78.4343 179.455V202H75.8363V179.455H78.4343ZM90.0621 202.352C88.5356 202.352 87.1962 201.989 86.044 201.262C84.8991 200.536 84.0037 199.519 83.3579 198.213C82.7194 196.907 82.4002 195.38 82.4002 193.634C82.4002 191.872 82.7194 190.335 83.3579 189.021C84.0037 187.707 84.8991 186.687 86.044 185.961C87.1962 185.234 88.5356 184.871 90.0621 184.871C91.5886 184.871 92.9243 185.234 94.0692 185.961C95.2214 186.687 96.1168 187.707 96.7553 189.021C97.4011 190.335 97.724 191.872 97.724 193.634C97.724 195.38 97.4011 196.907 96.7553 198.213C96.1168 199.519 95.2214 200.536 94.0692 201.262C92.9243 201.989 91.5886 202.352 90.0621 202.352ZM90.0621 200.018C91.2217 200.018 92.1757 199.721 92.9243 199.127C93.6729 198.532 94.227 197.751 94.5866 196.782C94.9462 195.813 95.126 194.764 95.126 193.634C95.126 192.503 94.9462 191.45 94.5866 190.474C94.227 189.498 93.6729 188.709 92.9243 188.107C92.1757 187.505 91.2217 187.205 90.0621 187.205C88.9025 187.205 87.9485 187.505 87.1999 188.107C86.4513 188.709 85.8972 189.498 85.5376 190.474C85.178 191.45 84.9982 192.503 84.9982 193.634C84.9982 194.764 85.178 195.813 85.5376 196.782C85.8972 197.751 86.4513 198.532 87.1999 199.127C87.9485 199.721 88.9025 200.018 90.0621 200.018ZM108.559 202.352C106.974 202.352 105.609 201.978 104.464 201.229C103.319 200.481 102.438 199.45 101.822 198.136C101.205 196.822 100.897 195.321 100.897 193.634C100.897 191.916 101.213 190.401 101.844 189.087C102.482 187.766 103.37 186.735 104.508 185.994C105.653 185.245 106.989 184.871 108.515 184.871C109.704 184.871 110.776 185.091 111.73 185.531C112.684 185.972 113.465 186.588 114.074 187.381C114.684 188.173 115.062 189.098 115.208 190.155H112.61C112.412 189.384 111.972 188.702 111.289 188.107C110.614 187.505 109.704 187.205 108.559 187.205C107.546 187.205 106.658 187.469 105.895 187.997C105.139 188.518 104.548 189.256 104.123 190.21C103.704 191.157 103.495 192.268 103.495 193.545C103.495 194.852 103.701 195.989 104.112 196.958C104.53 197.927 105.117 198.679 105.873 199.215C106.636 199.751 107.532 200.018 108.559 200.018C109.234 200.018 109.847 199.901 110.398 199.666C110.948 199.431 111.414 199.094 111.796 198.653C112.177 198.213 112.449 197.685 112.61 197.068H115.208C115.062 198.066 114.698 198.965 114.118 199.765C113.546 200.558 112.786 201.189 111.84 201.659C110.9 202.121 109.807 202.352 108.559 202.352ZM123.982 202.396C122.911 202.396 121.938 202.194 121.065 201.791C120.192 201.38 119.498 200.789 118.984 200.018C118.471 199.241 118.214 198.301 118.214 197.2C118.214 196.232 118.404 195.446 118.786 194.844C119.168 194.235 119.678 193.758 120.316 193.413C120.955 193.068 121.659 192.812 122.43 192.643C123.208 192.467 123.989 192.327 124.775 192.224C125.802 192.092 126.635 191.993 127.274 191.927C127.919 191.854 128.389 191.733 128.683 191.564C128.984 191.395 129.134 191.102 129.134 190.683V190.595C129.134 189.509 128.837 188.665 128.242 188.063C127.655 187.461 126.764 187.161 125.567 187.161C124.327 187.161 123.355 187.432 122.65 187.975C121.946 188.518 121.45 189.098 121.164 189.714L118.698 188.834C119.138 187.806 119.725 187.006 120.459 186.434C121.201 185.854 122.008 185.451 122.881 185.223C123.762 184.988 124.628 184.871 125.479 184.871C126.022 184.871 126.646 184.937 127.351 185.069C128.063 185.194 128.749 185.454 129.409 185.85C130.077 186.247 130.631 186.845 131.072 187.645C131.512 188.445 131.732 189.516 131.732 190.859V202H129.134V199.71H129.002C128.826 200.077 128.532 200.47 128.121 200.888C127.71 201.306 127.164 201.662 126.481 201.956C125.799 202.25 124.966 202.396 123.982 202.396ZM124.378 200.062C125.406 200.062 126.272 199.861 126.976 199.457C127.688 199.053 128.224 198.532 128.584 197.894C128.951 197.255 129.134 196.584 129.134 195.879V193.501C129.024 193.634 128.782 193.755 128.408 193.865C128.041 193.967 127.615 194.059 127.131 194.14C126.654 194.213 126.187 194.279 125.732 194.338C125.285 194.389 124.922 194.433 124.643 194.47C123.967 194.558 123.336 194.701 122.749 194.9C122.169 195.09 121.7 195.38 121.34 195.769C120.988 196.151 120.812 196.672 120.812 197.332C120.812 198.235 121.146 198.918 121.813 199.38C122.489 199.835 123.344 200.062 124.378 200.062ZM143.828 185.091V187.293H135.065V185.091H143.828ZM137.619 181.04H140.217V197.156C140.217 197.89 140.323 198.441 140.536 198.808C140.756 199.167 141.035 199.409 141.373 199.534C141.718 199.652 142.081 199.71 142.463 199.71C142.749 199.71 142.984 199.696 143.167 199.666C143.351 199.629 143.497 199.6 143.608 199.578L144.136 201.912C143.96 201.978 143.714 202.044 143.398 202.11C143.083 202.183 142.683 202.22 142.198 202.22C141.465 202.22 140.745 202.062 140.041 201.747C139.344 201.431 138.764 200.951 138.301 200.305C137.846 199.659 137.619 198.844 137.619 197.861V181.04ZM147.736 202V185.091H150.334V202H147.736ZM149.057 182.273C148.55 182.273 148.114 182.1 147.747 181.755C147.387 181.41 147.207 180.996 147.207 180.511C147.207 180.027 147.387 179.612 147.747 179.267C148.114 178.922 148.55 178.75 149.057 178.75C149.563 178.75 149.996 178.922 150.356 179.267C150.723 179.612 150.906 180.027 150.906 180.511C150.906 180.996 150.723 181.41 150.356 181.755C149.996 182.1 149.563 182.273 149.057 182.273ZM161.962 202.352C160.435 202.352 159.096 201.989 157.943 201.262C156.799 200.536 155.903 199.519 155.257 198.213C154.619 196.907 154.3 195.38 154.3 193.634C154.3 191.872 154.619 190.335 155.257 189.021C155.903 187.707 156.799 186.687 157.943 185.961C159.096 185.234 160.435 184.871 161.962 184.871C163.488 184.871 164.824 185.234 165.969 185.961C167.121 186.687 168.016 187.707 168.655 189.021C169.301 190.335 169.623 191.872 169.623 193.634C169.623 195.38 169.301 196.907 168.655 198.213C168.016 199.519 167.121 200.536 165.969 201.262C164.824 201.989 163.488 202.352 161.962 202.352ZM161.962 200.018C163.121 200.018 164.075 199.721 164.824 199.127C165.572 198.532 166.126 197.751 166.486 196.782C166.846 195.813 167.025 194.764 167.025 193.634C167.025 192.503 166.846 191.45 166.486 190.474C166.126 189.498 165.572 188.709 164.824 188.107C164.075 187.505 163.121 187.205 161.962 187.205C160.802 187.205 159.848 187.505 159.099 188.107C158.351 188.709 157.797 189.498 157.437 190.474C157.077 191.45 156.898 192.503 156.898 193.634C156.898 194.764 157.077 195.813 157.437 196.782C157.797 197.751 158.351 198.532 159.099 199.127C159.848 199.721 160.802 200.018 161.962 200.018ZM176.187 191.828V202H173.589V185.091H176.099V187.733H176.319C176.716 186.874 177.317 186.184 178.125 185.663C178.932 185.135 179.974 184.871 181.251 184.871C182.396 184.871 183.398 185.106 184.257 185.575C185.115 186.038 185.783 186.742 186.26 187.689C186.737 188.628 186.976 189.817 186.976 191.256V202H184.378V191.432C184.378 190.103 184.033 189.069 183.343 188.327C182.653 187.579 181.706 187.205 180.503 187.205C179.673 187.205 178.932 187.384 178.279 187.744C177.633 188.104 177.123 188.628 176.749 189.318C176.374 190.008 176.187 190.845 176.187 191.828ZM203.7 188.878L201.367 189.538C201.22 189.149 201.003 188.771 200.717 188.404C200.438 188.03 200.057 187.722 199.572 187.48C199.088 187.238 198.468 187.116 197.712 187.116C196.677 187.116 195.815 187.355 195.125 187.832C194.442 188.302 194.101 188.9 194.101 189.626C194.101 190.272 194.336 190.782 194.805 191.157C195.275 191.531 196.009 191.843 197.007 192.092L199.517 192.709C201.029 193.076 202.155 193.637 202.897 194.393C203.638 195.142 204.009 196.107 204.009 197.288C204.009 198.257 203.73 199.123 203.172 199.886C202.621 200.65 201.851 201.251 200.86 201.692C199.869 202.132 198.717 202.352 197.403 202.352C195.679 202.352 194.251 201.978 193.121 201.229C191.991 200.481 191.275 199.387 190.974 197.949L193.44 197.332C193.675 198.242 194.119 198.925 194.772 199.38C195.433 199.835 196.295 200.062 197.359 200.062C198.57 200.062 199.532 199.806 200.244 199.292C200.963 198.771 201.322 198.147 201.322 197.42C201.322 196.833 201.117 196.342 200.706 195.945C200.295 195.542 199.664 195.241 198.813 195.043L195.994 194.382C194.446 194.015 193.308 193.446 192.582 192.676C191.862 191.898 191.503 190.925 191.503 189.759C191.503 188.804 191.771 187.96 192.307 187.227C192.85 186.493 193.587 185.917 194.519 185.498C195.459 185.08 196.523 184.871 197.712 184.871C199.385 184.871 200.699 185.238 201.653 185.972C202.614 186.705 203.297 187.674 203.7 188.878Z" fill="black"/>
</svg>
