<svg width="416" height="154" viewBox="0 0 416 154" fill="none" xmlns="http://www.w3.org/2000/svg">
<rect width="416" height="154" rx="15" fill="#E9ECEF"/>
<path d="M53.0284 33.8182V92H40.7273V45.4943H40.3864L27.0625 53.8466V42.9375L41.4659 33.8182H53.0284ZM88.1065 92.7955C84.0914 92.7955 80.5118 92.0568 77.3679 90.5795C74.2429 89.1023 71.7618 87.0663 69.9247 84.4716C68.0876 81.8769 67.1312 78.9034 67.0554 75.5511H78.9872C79.1198 77.8049 80.0668 79.6326 81.8281 81.0341C83.5895 82.4356 85.6823 83.1364 88.1065 83.1364C90.0384 83.1364 91.7429 82.7102 93.2202 81.858C94.7164 80.9867 95.8812 79.7841 96.7145 78.25C97.5668 76.697 97.9929 74.9167 97.9929 72.9091C97.9929 70.8636 97.5573 69.0644 96.6861 67.5114C95.8338 65.9583 94.6501 64.7462 93.1349 63.875C91.6198 63.0038 89.8868 62.5587 87.9361 62.5398C86.2315 62.5398 84.5743 62.8902 82.9645 63.5909C81.3736 64.2917 80.133 65.2481 79.2429 66.4602L68.3054 64.5L71.0611 33.8182H106.629V43.875H81.2031L79.6974 58.4489H80.0384C81.0611 57.0095 82.6046 55.8163 84.669 54.8693C86.7334 53.9223 89.044 53.4489 91.6009 53.4489C95.1046 53.4489 98.2296 54.2727 100.976 55.9205C103.722 57.5682 105.891 59.8314 107.482 62.7102C109.072 65.5701 109.858 68.8655 109.839 72.5966C109.858 76.517 108.949 80.0019 107.112 83.0511C105.294 86.0814 102.747 88.4678 99.4702 90.2102C96.2126 91.9337 92.4247 92.7955 88.1065 92.7955ZM118.76 92V33.8182H131.061V59.4716H131.828L152.766 33.8182H167.51L145.919 59.8693L167.766 92H153.05L137.112 68.0795L131.061 75.4659V92H118.76ZM187.446 83.1364V42.9091H197.616V83.1364H187.446ZM172.418 68.108V57.9375H212.645V68.108H172.418Z" fill="#2B9879"/>
<path d="M24.5341 131.091V116.091H26.1534V117.824H26.3523C26.4754 117.634 26.6458 117.393 26.8636 117.099C27.0862 116.801 27.4034 116.536 27.8153 116.304C28.232 116.067 28.7955 115.949 29.5057 115.949C30.4242 115.949 31.2339 116.179 31.9347 116.638C32.6354 117.097 33.1823 117.748 33.5753 118.591C33.9683 119.434 34.1648 120.428 34.1648 121.574C34.1648 122.729 33.9683 123.731 33.5753 124.578C33.1823 125.421 32.6378 126.074 31.9418 126.538C31.2457 126.998 30.4432 127.227 29.5341 127.227C28.8333 127.227 28.2723 127.111 27.8509 126.879C27.4295 126.643 27.1051 126.375 26.8778 126.077C26.6506 125.774 26.4754 125.523 26.3523 125.324H26.2102V131.091H24.5341ZM26.1818 121.545C26.1818 122.369 26.3026 123.096 26.544 123.726C26.7855 124.351 27.1383 124.841 27.6023 125.196C28.0663 125.546 28.6345 125.722 29.3068 125.722C30.0076 125.722 30.5923 125.537 31.0611 125.168C31.5346 124.794 31.8897 124.292 32.1264 123.662C32.3679 123.027 32.4886 122.322 32.4886 121.545C32.4886 120.778 32.3703 120.087 32.1335 119.472C31.9015 118.851 31.5488 118.361 31.0753 118.001C30.6065 117.637 30.017 117.455 29.3068 117.455C28.625 117.455 28.0521 117.627 27.5881 117.973C27.1241 118.314 26.7737 118.792 26.5369 119.408C26.3002 120.018 26.1818 120.731 26.1818 121.545ZM39.9318 127.256C39.2405 127.256 38.6132 127.125 38.0497 126.865C37.4863 126.6 37.0388 126.219 36.7074 125.722C36.3759 125.22 36.2102 124.614 36.2102 123.903C36.2102 123.278 36.3333 122.772 36.5795 122.384C36.8258 121.991 37.1548 121.683 37.5668 121.46C37.9787 121.238 38.4332 121.072 38.9304 120.963C39.4323 120.849 39.9366 120.759 40.4432 120.693C41.1061 120.608 41.6435 120.544 42.0554 120.501C42.4721 120.454 42.7751 120.376 42.9645 120.267C43.1586 120.158 43.2557 119.969 43.2557 119.699V119.642C43.2557 118.941 43.0639 118.397 42.6804 118.009C42.3016 117.62 41.7263 117.426 40.9545 117.426C40.1544 117.426 39.527 117.601 39.0724 117.952C38.6179 118.302 38.2983 118.676 38.1136 119.074L36.5227 118.506C36.8068 117.843 37.1856 117.327 37.6591 116.957C38.1373 116.583 38.6581 116.323 39.2216 116.176C39.7898 116.025 40.3485 115.949 40.8977 115.949C41.2481 115.949 41.6506 115.991 42.1051 116.077C42.5644 116.157 43.0071 116.325 43.4332 116.581C43.8641 116.837 44.2216 117.223 44.5057 117.739C44.7898 118.255 44.9318 118.946 44.9318 119.812V127H43.2557V125.523H43.1705C43.0568 125.759 42.8674 126.013 42.6023 126.283C42.3371 126.553 41.9844 126.782 41.544 126.972C41.1037 127.161 40.5663 127.256 39.9318 127.256ZM40.1875 125.75C40.8504 125.75 41.4091 125.62 41.8636 125.359C42.3229 125.099 42.6686 124.763 42.9006 124.351C43.1373 123.939 43.2557 123.506 43.2557 123.051V121.517C43.1847 121.602 43.0284 121.68 42.7869 121.751C42.5502 121.818 42.2756 121.877 41.9631 121.929C41.6553 121.976 41.3546 122.019 41.0611 122.057C40.7723 122.09 40.5379 122.118 40.358 122.142C39.9223 122.199 39.5152 122.291 39.1364 122.419C38.7623 122.542 38.4593 122.729 38.2273 122.98C38 123.226 37.8864 123.562 37.8864 123.989C37.8864 124.571 38.1018 125.011 38.5327 125.31C38.9683 125.603 39.5199 125.75 40.1875 125.75ZM52.7354 116.091V117.511H47.082V116.091H52.7354ZM48.7298 113.477H50.4059V123.875C50.4059 124.348 50.4746 124.704 50.6119 124.94C50.7539 125.172 50.9338 125.329 51.1516 125.409C51.3742 125.485 51.6085 125.523 51.8548 125.523C52.0394 125.523 52.1909 125.513 52.3093 125.494C52.4277 125.471 52.5224 125.452 52.5934 125.438L52.9343 126.943C52.8207 126.986 52.6621 127.028 52.4585 127.071C52.2549 127.118 51.9968 127.142 51.6843 127.142C51.2108 127.142 50.7468 127.04 50.2923 126.837C49.8424 126.633 49.4684 126.323 49.1701 125.906C48.8765 125.49 48.7298 124.964 48.7298 124.33V113.477ZM55.2567 127V116.091H56.9329V127H55.2567ZM56.109 114.273C55.7823 114.273 55.5006 114.161 55.2638 113.939C55.0318 113.716 54.9158 113.449 54.9158 113.136C54.9158 112.824 55.0318 112.556 55.2638 112.334C55.5006 112.111 55.7823 112 56.109 112C56.4357 112 56.7151 112.111 56.9471 112.334C57.1838 112.556 57.3022 112.824 57.3022 113.136C57.3022 113.449 57.1838 113.716 56.9471 113.939C56.7151 114.161 56.4357 114.273 56.109 114.273ZM64.5767 127.227C63.5256 127.227 62.6188 126.995 61.8565 126.531C61.099 126.062 60.5142 125.409 60.1023 124.571C59.6951 123.728 59.4915 122.748 59.4915 121.631C59.4915 120.513 59.6951 119.528 60.1023 118.676C60.5142 117.819 61.0871 117.152 61.821 116.673C62.5597 116.19 63.4214 115.949 64.4062 115.949C64.9744 115.949 65.5355 116.044 66.0895 116.233C66.6435 116.422 67.1477 116.73 67.6023 117.156C68.0568 117.578 68.419 118.136 68.6889 118.832C68.9588 119.528 69.0938 120.385 69.0938 121.403V122.114H60.6847V120.665H67.3892C67.3892 120.049 67.2661 119.5 67.0199 119.017C66.7784 118.534 66.4328 118.153 65.983 117.874C65.5379 117.594 65.0123 117.455 64.4062 117.455C63.7386 117.455 63.161 117.62 62.6733 117.952C62.1903 118.278 61.8187 118.705 61.5582 119.23C61.2978 119.756 61.1676 120.319 61.1676 120.92V121.886C61.1676 122.71 61.3097 123.409 61.5938 123.982C61.8826 124.55 62.2827 124.983 62.794 125.281C63.3054 125.575 63.8996 125.722 64.5767 125.722C65.017 125.722 65.4148 125.66 65.7699 125.537C66.1297 125.409 66.4399 125.22 66.7003 124.969C66.9607 124.713 67.1619 124.396 67.304 124.017L68.9233 124.472C68.7528 125.021 68.4664 125.504 68.0639 125.92C67.6615 126.332 67.1643 126.654 66.5724 126.886C65.9806 127.114 65.3153 127.227 64.5767 127.227ZM73.3196 120.438V127H71.6435V116.091H73.2628V117.795H73.4048C73.6605 117.241 74.0488 116.796 74.5696 116.46C75.0904 116.119 75.7628 115.949 76.5866 115.949C77.3253 115.949 77.9716 116.1 78.5256 116.403C79.0795 116.702 79.5104 117.156 79.8182 117.767C80.1259 118.373 80.2798 119.14 80.2798 120.068V127H78.6037V120.182C78.6037 119.325 78.3812 118.657 77.9361 118.179C77.491 117.696 76.8802 117.455 76.1037 117.455C75.5687 117.455 75.0904 117.571 74.669 117.803C74.2524 118.035 73.9233 118.373 73.6818 118.818C73.4403 119.263 73.3196 119.803 73.3196 120.438ZM88.087 116.091V117.511H82.4336V116.091H88.087ZM84.0813 113.477H85.7575V123.875C85.7575 124.348 85.8261 124.704 85.9634 124.94C86.1055 125.172 86.2854 125.329 86.5032 125.409C86.7257 125.485 86.9601 125.523 87.2063 125.523C87.391 125.523 87.5425 125.513 87.6609 125.494C87.7792 125.471 87.8739 125.452 87.945 125.438L88.2859 126.943C88.1722 126.986 88.0136 127.028 87.81 127.071C87.6064 127.118 87.3484 127.142 87.0359 127.142C86.5624 127.142 86.0984 127.04 85.6438 126.837C85.194 126.633 84.82 126.323 84.5217 125.906C84.2281 125.49 84.0813 124.964 84.0813 124.33V113.477ZM98.1403 118.534L96.6346 118.96C96.5399 118.709 96.4002 118.465 96.2156 118.229C96.0356 117.987 95.7894 117.788 95.4769 117.632C95.1644 117.476 94.7643 117.398 94.2766 117.398C93.609 117.398 93.0527 117.552 92.6076 117.859C92.1673 118.162 91.9471 118.548 91.9471 119.017C91.9471 119.434 92.0986 119.763 92.4016 120.004C92.7047 120.246 93.1781 120.447 93.8221 120.608L95.4414 121.006C96.4168 121.242 97.1436 121.605 97.6218 122.092C98.1 122.575 98.3391 123.198 98.3391 123.96C98.3391 124.585 98.1592 125.144 97.7994 125.636C97.4442 126.129 96.9471 126.517 96.3079 126.801C95.6687 127.085 94.9253 127.227 94.0778 127.227C92.9651 127.227 92.0442 126.986 91.315 126.503C90.5858 126.02 90.1242 125.314 89.93 124.386L91.521 123.989C91.6725 124.576 91.9589 125.016 92.3803 125.31C92.8065 125.603 93.3628 125.75 94.0494 125.75C94.8306 125.75 95.4509 125.584 95.9102 125.253C96.3742 124.917 96.6062 124.514 96.6062 124.045C96.6062 123.667 96.4736 123.349 96.2085 123.094C95.9433 122.833 95.5361 122.639 94.9869 122.511L93.1687 122.085C92.1696 121.848 91.4357 121.482 90.967 120.984C90.503 120.482 90.271 119.855 90.271 119.102C90.271 118.487 90.4438 117.942 90.7894 117.469C91.1398 116.995 91.6156 116.624 92.217 116.354C92.823 116.084 93.5096 115.949 94.2766 115.949C95.3562 115.949 96.2037 116.186 96.8192 116.659C97.4395 117.133 97.8799 117.758 98.1403 118.534ZM109.697 127.256C109.006 127.256 108.379 127.125 107.815 126.865C107.252 126.6 106.804 126.219 106.473 125.722C106.142 125.22 105.976 124.614 105.976 123.903C105.976 123.278 106.099 122.772 106.345 122.384C106.591 121.991 106.92 121.683 107.332 121.46C107.744 121.238 108.199 121.072 108.696 120.963C109.198 120.849 109.702 120.759 110.209 120.693C110.872 120.608 111.409 120.544 111.821 120.501C112.238 120.454 112.541 120.376 112.73 120.267C112.924 120.158 113.021 119.969 113.021 119.699V119.642C113.021 118.941 112.83 118.397 112.446 118.009C112.067 117.62 111.492 117.426 110.72 117.426C109.92 117.426 109.293 117.601 108.838 117.952C108.384 118.302 108.064 118.676 107.879 119.074L106.288 118.506C106.572 117.843 106.951 117.327 107.425 116.957C107.903 116.583 108.424 116.323 108.987 116.176C109.555 116.025 110.114 115.949 110.663 115.949C111.014 115.949 111.416 115.991 111.871 116.077C112.33 116.157 112.773 116.325 113.199 116.581C113.63 116.837 113.987 117.223 114.271 117.739C114.555 118.255 114.697 118.946 114.697 119.812V127H113.021V125.523H112.936C112.822 125.759 112.633 126.013 112.368 126.283C112.103 126.553 111.75 126.782 111.31 126.972C110.869 127.161 110.332 127.256 109.697 127.256ZM109.953 125.75C110.616 125.75 111.175 125.62 111.629 125.359C112.089 125.099 112.434 124.763 112.666 124.351C112.903 123.939 113.021 123.506 113.021 123.051V121.517C112.95 121.602 112.794 121.68 112.553 121.751C112.316 121.818 112.041 121.877 111.729 121.929C111.421 121.976 111.12 122.019 110.827 122.057C110.538 122.09 110.304 122.118 110.124 122.142C109.688 122.199 109.281 122.291 108.902 122.419C108.528 122.542 108.225 122.729 107.993 122.98C107.766 123.226 107.652 123.562 107.652 123.989C107.652 124.571 107.867 125.011 108.298 125.31C108.734 125.603 109.286 125.75 109.953 125.75ZM117.757 127V116.091H119.376V117.739H119.49C119.689 117.199 120.048 116.761 120.569 116.425C121.09 116.089 121.677 115.92 122.331 115.92C122.454 115.92 122.608 115.923 122.792 115.928C122.977 115.932 123.117 115.939 123.211 115.949V117.653C123.154 117.639 123.024 117.618 122.821 117.589C122.622 117.556 122.411 117.54 122.189 117.54C121.658 117.54 121.185 117.651 120.768 117.874C120.356 118.091 120.029 118.394 119.788 118.783C119.551 119.166 119.433 119.604 119.433 120.097V127H117.757ZM129.44 127.227C128.389 127.227 127.482 126.995 126.72 126.531C125.962 126.062 125.377 125.409 124.966 124.571C124.558 123.728 124.355 122.748 124.355 121.631C124.355 120.513 124.558 119.528 124.966 118.676C125.377 117.819 125.95 117.152 126.684 116.673C127.423 116.19 128.285 115.949 129.27 115.949C129.838 115.949 130.399 116.044 130.953 116.233C131.507 116.422 132.011 116.73 132.466 117.156C132.92 117.578 133.282 118.136 133.552 118.832C133.822 119.528 133.957 120.385 133.957 121.403V122.114H125.548V120.665H132.252C132.252 120.049 132.129 119.5 131.883 119.017C131.642 118.534 131.296 118.153 130.846 117.874C130.401 117.594 129.876 117.455 129.27 117.455C128.602 117.455 128.024 117.62 127.537 117.952C127.054 118.278 126.682 118.705 126.422 119.23C126.161 119.756 126.031 120.319 126.031 120.92V121.886C126.031 122.71 126.173 123.409 126.457 123.982C126.746 124.55 127.146 124.983 127.657 125.281C128.169 125.575 128.763 125.722 129.44 125.722C129.88 125.722 130.278 125.66 130.633 125.537C130.993 125.409 131.303 125.22 131.564 124.969C131.824 124.713 132.025 124.396 132.167 124.017L133.787 124.472C133.616 125.021 133.33 125.504 132.927 125.92C132.525 126.332 132.028 126.654 131.436 126.886C130.844 127.114 130.179 127.227 129.44 127.227ZM143.808 120.438V127H142.132V112.455H143.808V117.795H143.95C144.206 117.232 144.589 116.785 145.1 116.453C145.617 116.117 146.303 115.949 147.16 115.949C147.904 115.949 148.555 116.098 149.113 116.396C149.672 116.69 150.105 117.142 150.413 117.753C150.725 118.359 150.882 119.131 150.882 120.068V127H149.206V120.182C149.206 119.315 148.981 118.645 148.531 118.172C148.086 117.694 147.468 117.455 146.677 117.455C146.128 117.455 145.636 117.571 145.2 117.803C144.769 118.035 144.428 118.373 144.177 118.818C143.931 119.263 143.808 119.803 143.808 120.438ZM158.522 127.227C157.471 127.227 156.564 126.995 155.802 126.531C155.044 126.062 154.46 125.409 154.048 124.571C153.64 123.728 153.437 122.748 153.437 121.631C153.437 120.513 153.64 119.528 154.048 118.676C154.46 117.819 155.032 117.152 155.766 116.673C156.505 116.19 157.367 115.949 158.352 115.949C158.92 115.949 159.481 116.044 160.035 116.233C160.589 116.422 161.093 116.73 161.548 117.156C162.002 117.578 162.364 118.136 162.634 118.832C162.904 119.528 163.039 120.385 163.039 121.403V122.114H154.63V120.665H161.335C161.335 120.049 161.211 119.5 160.965 119.017C160.724 118.534 160.378 118.153 159.928 117.874C159.483 117.594 158.958 117.455 158.352 117.455C157.684 117.455 157.106 117.62 156.619 117.952C156.136 118.278 155.764 118.705 155.504 119.23C155.243 119.756 155.113 120.319 155.113 120.92V121.886C155.113 122.71 155.255 123.409 155.539 123.982C155.828 124.55 156.228 124.983 156.739 125.281C157.251 125.575 157.845 125.722 158.522 125.722C158.962 125.722 159.36 125.66 159.715 125.537C160.075 125.409 160.385 125.22 160.646 124.969C160.906 124.713 161.107 124.396 161.249 124.017L162.869 124.472C162.698 125.021 162.412 125.504 162.009 125.92C161.607 126.332 161.11 126.654 160.518 126.886C159.926 127.114 159.261 127.227 158.522 127.227ZM167.265 112.455V127H165.589V112.455H167.265ZM170.335 131.091V116.091H171.954V117.824H172.153C172.276 117.634 172.447 117.393 172.664 117.099C172.887 116.801 173.204 116.536 173.616 116.304C174.033 116.067 174.596 115.949 175.306 115.949C176.225 115.949 177.035 116.179 177.735 116.638C178.436 117.097 178.983 117.748 179.376 118.591C179.769 119.434 179.966 120.428 179.966 121.574C179.966 122.729 179.769 123.731 179.376 124.578C178.983 125.421 178.439 126.074 177.743 126.538C177.047 126.998 176.244 127.227 175.335 127.227C174.634 127.227 174.073 127.111 173.652 126.879C173.23 126.643 172.906 126.375 172.679 126.077C172.451 125.774 172.276 125.523 172.153 125.324H172.011V131.091H170.335ZM171.983 121.545C171.983 122.369 172.103 123.096 172.345 123.726C172.586 124.351 172.939 124.841 173.403 125.196C173.867 125.546 174.435 125.722 175.108 125.722C175.808 125.722 176.393 125.537 176.862 125.168C177.335 124.794 177.69 124.292 177.927 123.662C178.169 123.027 178.289 122.322 178.289 121.545C178.289 120.778 178.171 120.087 177.934 119.472C177.702 118.851 177.35 118.361 176.876 118.001C176.407 117.637 175.818 117.455 175.108 117.455C174.426 117.455 173.853 117.627 173.389 117.973C172.925 118.314 172.574 118.792 172.338 119.408C172.101 120.018 171.983 120.731 171.983 121.545ZM187.096 127.227C186.045 127.227 185.138 126.995 184.376 126.531C183.618 126.062 183.034 125.409 182.622 124.571C182.215 123.728 182.011 122.748 182.011 121.631C182.011 120.513 182.215 119.528 182.622 118.676C183.034 117.819 183.607 117.152 184.341 116.673C185.079 116.19 185.941 115.949 186.926 115.949C187.494 115.949 188.055 116.044 188.609 116.233C189.163 116.422 189.667 116.73 190.122 117.156C190.576 117.578 190.939 118.136 191.208 118.832C191.478 119.528 191.613 120.385 191.613 121.403V122.114H183.204V120.665H189.909C189.909 120.049 189.786 119.5 189.539 119.017C189.298 118.534 188.952 118.153 188.502 117.874C188.057 117.594 187.532 117.455 186.926 117.455C186.258 117.455 185.681 117.62 185.193 117.952C184.71 118.278 184.338 118.705 184.078 119.23C183.817 119.756 183.687 120.319 183.687 120.92V121.886C183.687 122.71 183.829 123.409 184.113 123.982C184.402 124.55 184.802 124.983 185.314 125.281C185.825 125.575 186.419 125.722 187.096 125.722C187.537 125.722 187.934 125.66 188.289 125.537C188.649 125.409 188.959 125.22 189.22 124.969C189.48 124.713 189.681 124.396 189.824 124.017L191.443 124.472C191.272 125.021 190.986 125.504 190.583 125.92C190.181 126.332 189.684 126.654 189.092 126.886C188.5 127.114 187.835 127.227 187.096 127.227ZM198.282 127.227C197.373 127.227 196.571 126.998 195.875 126.538C195.179 126.074 194.634 125.421 194.241 124.578C193.848 123.731 193.652 122.729 193.652 121.574C193.652 120.428 193.848 119.434 194.241 118.591C194.634 117.748 195.181 117.097 195.882 116.638C196.583 116.179 197.392 115.949 198.311 115.949C199.021 115.949 199.582 116.067 199.994 116.304C200.411 116.536 200.728 116.801 200.946 117.099C201.168 117.393 201.341 117.634 201.464 117.824H201.606V112.455H203.282V127H201.663V125.324H201.464C201.341 125.523 201.166 125.774 200.939 126.077C200.711 126.375 200.387 126.643 199.966 126.879C199.544 127.111 198.983 127.227 198.282 127.227ZM198.51 125.722C199.182 125.722 199.75 125.546 200.214 125.196C200.678 124.841 201.031 124.351 201.272 123.726C201.514 123.096 201.635 122.369 201.635 121.545C201.635 120.731 201.516 120.018 201.279 119.408C201.043 118.792 200.692 118.314 200.228 117.973C199.764 117.627 199.191 117.455 198.51 117.455C197.799 117.455 197.208 117.637 196.734 118.001C196.265 118.361 195.913 118.851 195.676 119.472C195.444 120.087 195.328 120.778 195.328 121.545C195.328 122.322 195.446 123.027 195.683 123.662C195.924 124.292 196.279 124.794 196.748 125.168C197.222 125.537 197.809 125.722 198.51 125.722Z" fill="black"/>
</svg>
