<svg width="467" height="351" viewBox="0 0 467 351" fill="none" xmlns="http://www.w3.org/2000/svg">
<g clip-path="url(#clip0_859_1036)">
<path d="M138.93 511.341C135.388 509.934 131.905 508.455 128.494 506.893C82.9943 485.985 49.0392 446.508 31.197 406.447C23.3732 388.903 18.2447 370.56 15.3943 352.002C-3.27086 230.255 105.703 172.614 130.701 129.928C155.699 87.2432 199.148 21.1698 305.461 16.9955C386.288 13.811 467.46 45.6074 510.563 115.414C515.322 123.106 519.615 131.252 523.396 139.875C530.421 155.917 535.669 173.556 538.805 192.841C547.822 248.252 537.696 295.184 504.397 343.701C496.657 354.984 487.771 366.326 488.165 379.803C488.451 389.595 493.413 398.361 502.882 387.03C514.01 373.72 540.046 384.74 526.402 416.907C503.61 470.624 444.573 498.258 383.282 515.003C308.049 535.564 212.171 540.359 138.93 511.341Z" fill="#75E6A4"/>
<path opacity="0.7" d="M138.93 511.341C135.388 509.934 131.905 508.455 128.494 506.893C82.9943 485.985 49.0392 446.508 31.197 406.447C23.3732 388.903 18.2447 370.56 15.3943 352.002C-3.27086 230.255 105.703 172.614 130.701 129.928C155.699 87.2432 199.148 21.1698 305.461 16.9955C386.288 13.811 467.46 45.6074 510.563 115.414C515.322 123.106 519.615 131.252 523.396 139.875C530.421 155.917 535.669 173.556 538.805 192.841C547.822 248.252 537.696 295.184 504.397 343.701C496.657 354.984 487.771 366.326 488.165 379.803C488.451 389.595 493.413 398.361 502.882 387.03C514.01 373.72 540.046 384.74 526.402 416.907C503.61 470.624 444.573 498.258 383.282 515.003C308.049 535.564 212.171 540.359 138.93 511.341Z" fill="#F8F9FA"/>
<path d="M114.397 24.2587H61.9438V91.7036H114.397V24.2587Z" stroke="#263238" stroke-miterlimit="10" stroke-linecap="round" stroke-linejoin="round"/>
<path d="M111.01 28.6119H65.3311V87.3505H111.01V28.6119Z" stroke="#263238" stroke-miterlimit="10" stroke-linecap="round" stroke-linejoin="round"/>
<path d="M95.5411 48.5055H80.7998V67.4688H95.5411V48.5055Z" stroke="#263238" stroke-miterlimit="10" stroke-linecap="round" stroke-linejoin="round"/>
<path d="M181.496 74.6725H129.043V142.117H181.496V74.6725Z" stroke="#263238" stroke-miterlimit="10" stroke-linecap="round" stroke-linejoin="round"/>
<path d="M178.109 79.0258H132.43V137.764H178.109V79.0258Z" stroke="#263238" stroke-miterlimit="10" stroke-linecap="round" stroke-linejoin="round"/>
<path d="M162.64 98.9193H147.899V117.883H162.64V98.9193Z" stroke="#263238" stroke-miterlimit="10" stroke-linecap="round" stroke-linejoin="round"/>
<path d="M114.397 102.318H61.9438V141.712H114.397V102.318Z" stroke="#263238" stroke-miterlimit="10" stroke-linecap="round" stroke-linejoin="round"/>
<path d="M111.01 104.859H65.3311V139.172H111.01V104.859Z" stroke="#263238" stroke-miterlimit="10" stroke-linecap="round" stroke-linejoin="round"/>
<path d="M95.5411 116.487H80.7998V127.567H95.5411V116.487Z" stroke="#263238" stroke-miterlimit="10" stroke-linecap="round" stroke-linejoin="round"/>
<path d="M123.02 263.101C128.113 263.101 132.871 260.298 135.102 255.718C137.248 251.282 138.501 246.034 138.501 240.417C138.501 233.69 136.712 227.488 133.718 222.574C128.649 214.25 126.288 204.553 126.288 194.797V194.237H127.361C128.59 194.237 129.711 193.354 129.83 192.126C129.973 190.718 128.864 189.526 127.492 189.526H104.617C103.389 189.526 102.268 190.408 102.148 191.637C102.005 193.044 103.115 194.237 104.486 194.237H105.703V194.797C105.703 204.541 103.341 214.25 98.2723 222.574C95.2787 227.488 93.4897 233.678 93.4897 240.417C93.4897 245.819 94.6347 250.864 96.6384 255.194C98.8686 260.012 103.675 263.101 108.982 263.101H123.02Z" fill="#F8F9FA" stroke="#263238" stroke-miterlimit="10" stroke-linecap="round" stroke-linejoin="round"/>
<path d="M146.277 130.584H85.7017V200.904H146.277V130.584Z" fill="#75E6A4" stroke="#263238" stroke-miterlimit="10"/>
<path d="M173.816 268.706H55.3726V441.416H173.816V268.706Z" fill="#F8F9FA" stroke="#263238" stroke-miterlimit="10" stroke-linecap="round" stroke-linejoin="round"/>
<path d="M173.827 268.706H97.8906V441.416H173.827V268.706Z" fill="#C7C7C7" stroke="#263238" stroke-miterlimit="10"/>
<path d="M167.876 281.301H103.83V316.508H167.876V281.301Z" fill="#C7C7C7" stroke="#263238" stroke-miterlimit="10"/>
<path d="M148.233 295.553H123.485V302.256H148.233V295.553Z" fill="#263238" stroke="#263238" stroke-miterlimit="10" stroke-linecap="round" stroke-linejoin="round"/>
<path d="M167.876 329.52H103.83V364.727H167.876V329.52Z" fill="#C7C7C7" stroke="#263238" stroke-miterlimit="10"/>
<path d="M148.233 343.772H123.485V350.475H148.233V343.772Z" fill="#263238" stroke="#263238" stroke-miterlimit="10" stroke-linecap="round" stroke-linejoin="round"/>
<path d="M177.62 263.113H50.5898V273.692H177.62V263.113Z" fill="#F8F9FA" stroke="#263238" stroke-miterlimit="10" stroke-linecap="round" stroke-linejoin="round"/>
<path d="M177.632 263.113H89.6494V273.692H177.632V263.113Z" fill="#C7C7C7" stroke="#263238" stroke-miterlimit="10"/>
<path d="M468.558 42.256H317.853V249.695H468.558V42.256Z" fill="#263238" stroke="#263238" stroke-miterlimit="10" stroke-linecap="round" stroke-linejoin="round"/>
<path d="M461.378 51.511H325.033V240.44H461.378V51.511Z" fill="#F8F9FA" stroke="#263238" stroke-miterlimit="10" stroke-linecap="round" stroke-linejoin="round"/>
<path d="M407.577 80.767L373.956 114.388" stroke="#263238" stroke-miterlimit="10" stroke-linecap="round" stroke-linejoin="round"/>
<path d="M425.145 63.1991L410.94 77.4037" stroke="#263238" stroke-miterlimit="10" stroke-linecap="round" stroke-linejoin="round"/>
<path d="M384.786 91.5963L364.618 111.776" stroke="#263238" stroke-miterlimit="10" stroke-linecap="round" stroke-linejoin="round"/>
<path d="M379.931 224.232L373.956 230.207" stroke="#263238" stroke-miterlimit="10" stroke-linecap="round" stroke-linejoin="round"/>
<path d="M425.145 179.03L383.295 220.869" stroke="#263238" stroke-miterlimit="10" stroke-linecap="round" stroke-linejoin="round"/>
<path d="M384.786 207.416L364.618 227.595" stroke="#263238" stroke-miterlimit="10" stroke-linecap="round" stroke-linejoin="round"/>
<path d="M398.203 153.722C398.203 151.205 396.163 149.178 393.659 149.178C391.142 149.178 389.115 151.217 389.115 153.722C389.115 156.239 391.154 158.266 393.659 158.266C396.163 158.266 398.203 156.239 398.203 153.722Z" fill="#263238" stroke="#263238" stroke-miterlimit="10" stroke-linecap="round" stroke-linejoin="round"/>
<path d="M461.378 153.078H325.033V161.439H461.378V153.078Z" fill="#263238" stroke="#263238" stroke-miterlimit="10" stroke-linecap="round" stroke-linejoin="round"/>
<path d="M472.995 29.8523H314.311V47.5872H472.995V29.8523Z" fill="#263238" stroke="#263238" stroke-miterlimit="10" stroke-linecap="round" stroke-linejoin="round"/>
<path d="M472.995 243.494H314.311V261.229H472.995V243.494Z" fill="#263238" stroke="#263238" stroke-miterlimit="10" stroke-linecap="round" stroke-linejoin="round"/>
<path d="M528.847 5.03296H257.576V10.3522H528.847V5.03296Z" fill="#F8F9FA" stroke="#263238" stroke-miterlimit="10" stroke-linecap="round" stroke-linejoin="round"/>
<path d="M277.052 280.728H272.687C269.729 280.728 267.332 278.331 267.332 275.373V5.95136C267.332 2.99356 269.729 0.596313 272.687 0.596313H277.052C280.01 0.596313 282.407 2.99356 282.407 5.95136V275.385C282.395 278.331 279.998 280.728 277.052 280.728Z" fill="#F8F9FA" stroke="#263238" stroke-miterlimit="10" stroke-linecap="round" stroke-linejoin="round"/>
<path d="M291.233 280.728H286.868C283.91 280.728 281.513 278.331 281.513 275.373V5.95136C281.513 2.99356 283.91 0.596313 286.868 0.596313H291.233C294.191 0.596313 296.588 2.99356 296.588 5.95136V275.385C296.588 278.331 294.191 280.728 291.233 280.728Z" fill="#F8F9FA" stroke="#263238" stroke-miterlimit="10" stroke-linecap="round" stroke-linejoin="round"/>
<path d="M305.414 280.728H301.049C298.091 280.728 295.694 278.331 295.694 275.373V5.95136C295.694 2.99356 298.091 0.596313 301.049 0.596313H305.414C308.372 0.596313 310.769 2.99356 310.769 5.95136V275.385C310.769 278.331 308.372 280.728 305.414 280.728Z" fill="#F8F9FA" stroke="#263238" stroke-miterlimit="10" stroke-linecap="round" stroke-linejoin="round"/>
<path d="M319.595 280.728H315.23C312.272 280.728 309.875 278.331 309.875 275.373V5.95136C309.875 2.99356 312.272 0.596313 315.23 0.596313H319.595C322.553 0.596313 324.95 2.99356 324.95 5.95136V275.385C324.95 278.331 322.553 280.728 319.595 280.728Z" fill="#F8F9FA" stroke="#263238" stroke-miterlimit="10" stroke-linecap="round" stroke-linejoin="round"/>
<path d="M472.076 280.728H467.711C464.753 280.728 462.356 278.331 462.356 275.373V5.95136C462.356 2.99356 464.753 0.596313 467.711 0.596313H472.076C475.034 0.596313 477.431 2.99356 477.431 5.95136V275.385C477.431 278.331 475.034 280.728 472.076 280.728Z" fill="#F8F9FA" stroke="#263238" stroke-miterlimit="10" stroke-linecap="round" stroke-linejoin="round"/>
<path d="M195.128 48.1001C195.128 48.1001 190.072 51.0698 187.102 58.9414C184.132 66.8129 187.161 82.0909 187.006 83.868C186.863 85.645 183.894 88.8771 179.588 94.8285C175.283 100.768 182.498 106.35 183.536 108.127C184.573 109.916 180.828 117.501 181.282 120.614C181.723 123.739 187.555 121.198 194.532 123.285C201.521 125.361 209.989 127.448 219.793 114.817C229.596 102.187 215.332 73.957 212.959 64.5946C210.573 55.2322 203.143 44.379 195.128 48.1001Z" fill="#263238" stroke="#263238" stroke-miterlimit="10"/>
<path d="M185.599 262.552L194.592 405.469L193.65 463.206C193.65 463.206 188.45 467.463 189.869 470.302C191.288 473.14 193.184 476.456 193.184 476.456C193.184 476.456 203.596 473.617 205.958 474.56C208.319 475.502 208.319 475.502 208.319 475.502L214.939 480.237C214.939 480.237 216.835 476.456 217.777 471.244C218.719 466.032 215.881 463.671 217.777 457.517C219.673 451.362 231.028 298.046 231.028 298.046L256.586 426.758L264.16 455.62C264.16 455.62 260.844 460.82 261.321 463.194C261.798 465.555 264.16 469.813 264.16 469.813C264.16 469.813 269.36 468.871 272.675 469.336C275.991 469.813 278.829 470.755 278.829 470.755L287.345 472.651C287.345 472.651 289.706 464.136 289.706 458.924C289.706 453.712 286.391 443.312 286.391 443.312L278.34 333.05C278.34 333.05 280.702 283.841 280.237 273.895C279.76 263.96 278.817 260.644 278.817 260.644L185.599 262.552Z" fill="#75E6A4" stroke="#263238" stroke-miterlimit="10"/>
<path d="M191.157 273.37C191.157 273.37 224.754 280.406 229.238 281.694C233.723 282.971 279.795 275.934 279.795 275.934L279.473 266.011L191.157 273.37Z" fill="#263238" stroke="#263238" stroke-miterlimit="10"/>
<path d="M202.106 106.195C202.106 106.195 201.628 103.416 199.732 104.274C197.836 105.133 181.687 116.988 178.932 119.397C176.177 121.807 176.702 125.933 177.215 127.126C177.728 128.33 194.568 192.949 194.568 195.525C194.568 198.101 193.363 202.228 193.363 203.778C193.363 205.329 181.365 249.97 182.26 273.668C182.26 273.668 205.946 277.27 235.631 275.767C265.317 274.264 284.506 268.575 284.506 268.575C284.506 268.575 279.414 198.411 279.712 195.406C280.01 192.412 270.719 106.946 268.62 105.145C266.521 103.344 250.027 99.7423 247.033 98.8478C244.039 97.9533 242.954 100.553 242.954 100.553L202.106 106.195Z" fill="#75E6A4" stroke="#263238" stroke-miterlimit="10"/>
<path d="M208.355 94.757C208.355 94.757 209.547 99.3606 207.914 101.293C206.28 103.225 202.117 106.195 202.117 106.195C202.117 106.195 214.151 119.862 222.178 128.927C230.204 137.991 231.54 139.923 231.54 139.923C231.54 139.923 234.915 126.076 237.587 120.28C240.258 114.484 242.978 100.553 242.978 100.553C242.978 100.553 237.921 97.2854 237.778 96.2478C237.623 95.1982 208.355 94.757 208.355 94.757Z" fill="#F8F9FA" stroke="#263238" stroke-miterlimit="10"/>
<path d="M226.28 107.972L240.783 110.166L242.966 100.553L233.866 95.5083L226.28 107.972Z" fill="#263238" stroke="#263238" stroke-miterlimit="10"/>
<path d="M201.366 37.545C201.366 37.545 195.271 43.0431 193.041 53.0019C190.811 62.9606 195.414 70.9872 195.414 70.9872C195.414 70.9872 193.924 72.1798 194.377 74.9945C194.818 77.8211 197.048 81.9835 198.086 83.4624C199.124 84.9532 201.95 84.7982 201.95 84.7982C201.95 84.7982 202.344 87.7679 204.86 92.9679C207.377 98.1679 219.292 108.568 225.088 107.972C230.884 107.375 237.134 102.032 240.259 95.4964C243.383 88.9606 241.916 75.2808 242.358 73.5037C242.799 71.7147 243.55 71.2734 243.395 68.4468C243.24 65.6202 243.252 65.6202 243.252 65.6202C243.252 65.6202 245.924 61.1597 243.55 52.0954C241.177 43.0312 238.35 38.4275 231.659 35.1597C224.992 31.9037 207.162 31.6055 201.366 37.545Z" fill="#F8F9FA" stroke="#263238" stroke-miterlimit="10"/>
<path d="M230.479 32.3092C218.302 28.1349 205.147 31.4028 199.35 37.3542C199.35 37.3542 194.448 40.4432 192.218 50.39C189.988 60.3487 195.414 70.9753 195.414 70.9753C195.414 70.9753 197.346 74.1001 198.837 74.2432C200.328 74.3863 201.211 74.2432 200.626 70.534C200.03 66.8248 204.049 59.0964 210.585 57.1643C217.121 55.2322 215.189 55.6735 214.891 54.4927C214.592 53.3001 205.528 42.1606 208.355 42.4588C211.181 42.7569 216.524 54.6478 218.158 55.5303C219.792 56.4248 231.23 58.3569 236.287 60.134C241.344 61.923 240.449 70.2358 241.487 69.6395C242.25 69.2102 243.002 66.4909 243.359 65.0478C243.502 63.7001 245.423 59.156 243.574 52.1074C241.189 43.0432 237.515 34.7303 230.479 32.3092Z" fill="#263238" stroke="#263238" stroke-miterlimit="10"/>
<path d="M218.266 80.2781C218.552 81.6497 217.992 82.9139 217.038 83.1166C216.071 83.3194 215.058 82.3772 214.783 81.0056C214.497 79.6341 215.058 78.3698 216.012 78.1671C216.978 77.9643 217.98 78.9065 218.266 80.2781Z" fill="#263238"/>
<path d="M234.617 78.2028C234.903 79.5743 234.343 80.8386 233.389 81.0413C232.423 81.2441 231.409 80.3019 231.135 78.9303C230.86 77.5588 231.409 76.2945 232.363 76.0918C233.317 75.889 234.331 76.8312 234.617 78.2028Z" fill="#263238"/>
<path d="M222.023 87.3266C222.023 87.3266 221.724 88.8174 222.762 89.5569C223.8 90.2963 227.223 91.3459 228.117 90.1532C229.012 88.9606 230.049 87.7798 229.906 86.5872" stroke="#263238" stroke-miterlimit="10"/>
<path d="M216.37 92.2285C216.37 92.2285 222.011 97.4285 228.404 94.6019C231.695 93.1469 233.162 91.0359 233.162 91.0359" stroke="#263238" stroke-miterlimit="10"/>
<path d="M209.237 76.6285C209.38 76.1872 213.996 73.0625 219.339 75.1377" stroke="#263238" stroke-miterlimit="10"/>
<path d="M229.155 74.5533C229.155 74.5533 234.355 69.9496 238.076 72.478" stroke="#263238" stroke-miterlimit="10"/>
<path d="M177.155 120.268C177.155 120.268 171.692 123.917 170.202 131.205C168.711 138.492 157.285 187.689 157.285 187.689L193.888 191.995L177.226 127.15C177.226 127.138 176.165 121.425 177.155 120.268Z" fill="#75E6A4" stroke="#263238" stroke-miterlimit="10"/>
<path d="M172.683 143.453L187.591 167.962" stroke="#263238" stroke-miterlimit="10"/>
<path d="M268.632 105.145C268.632 105.145 300.19 153.46 300.738 156.751C301.287 160.031 275.12 181.845 275.12 181.845L268.632 105.145Z" fill="#75E6A4" stroke="#263238" stroke-miterlimit="10"/>
<path d="M265.627 165.887C265.627 165.887 257.552 186.186 255.942 200.248C254.332 214.321 255.716 239.224 254.785 244.758C253.867 250.292 251.327 250.757 249.716 252.832C248.106 254.907 237.718 261.372 237.718 263.447C237.718 265.522 239.102 268.289 239.102 269.207C239.102 270.126 241.869 276.817 244.171 277.508C246.472 278.2 251.553 277.735 255.238 276.817C258.924 275.898 260.999 274.515 263.074 271.974C265.149 269.434 266.533 265.975 265.841 263.673C265.149 261.372 264.231 260.441 264.231 258.14C264.231 255.838 264.004 251.449 264.696 248.455C265.388 245.462 271.387 222.849 275.311 211.089C279.235 199.329 280.845 188.715 281.537 185.948C282.228 183.181 283.385 178.112 283.385 178.112L265.627 165.887Z" fill="#C7C7C7" stroke="#263238" stroke-miterlimit="10"/>
<path d="M289.944 94.8404C289.944 94.8404 282.311 100.947 277.517 110.106C272.722 119.266 250.706 149.786 252.006 156.107C253.318 162.428 269.443 178.124 275.12 181.833C280.785 185.542 287.977 179.651 287.977 179.651C287.977 179.651 299.092 195.346 301.489 200.367C303.887 205.376 303.016 215.192 303.016 217.374C303.016 219.557 305.413 293.466 306.069 307.85C306.725 322.233 319.582 366.063 323.077 376.523C326.559 386.983 326.786 389.606 347.932 391.348C369.078 393.089 387.17 381.103 390.879 378.706C394.589 376.308 401.339 382.629 408.101 380.018C414.864 377.406 418.788 372.384 418.788 372.384C418.788 372.384 416.605 313.956 413.993 300.217C411.381 286.477 412.681 258.354 405.489 232.414C398.298 206.473 395.459 195.573 395.459 195.573L391.321 172.029C391.321 172.029 409.413 152.41 410.725 140.853C412.037 129.296 409.64 115.342 395.459 100.959C381.278 86.5753 370.771 84.1065 363.711 86.4322C356.65 88.7459 321.55 97.4762 318.282 98.1322C315.014 98.7643 289.944 94.8404 289.944 94.8404Z" fill="#75E6A4" stroke="#263238" stroke-miterlimit="10"/>
<path d="M339.881 231.173C339.881 231.173 336.733 260.513 330.972 276.232" stroke="#263238" stroke-miterlimit="10"/>
<path d="M311.591 285.129C311.591 285.129 315.778 307.134 322.588 323.378" stroke="#263238" stroke-miterlimit="10"/>
<path d="M391.762 189.239C391.762 189.239 402.878 196.431 406.146 194.905C409.414 193.378 414.649 188.584 415.305 186.401C415.961 184.218 406.802 162.858 403.963 165.47C401.137 168.094 392.633 184.23 391.762 189.239Z" fill="#263238" stroke="#263238" stroke-miterlimit="10"/>
<path d="M407.517 517.615C405.705 517.615 404.238 516.148 404.238 514.347L404.631 324.046C404.965 314.982 403.665 289.161 393.754 287.801C391.953 287.55 390.701 285.893 390.951 284.104C391.202 282.315 392.86 281.05 394.649 281.301C412.169 283.71 411.334 320.027 411.179 324.165L410.785 514.335C410.797 516.148 409.33 517.615 407.517 517.615Z" fill="#C7C7C7" stroke="#263238" stroke-miterlimit="10"/>
<path d="M365.13 342.162C364.152 342.162 363.174 341.721 362.53 340.886C361.421 339.455 361.683 337.392 363.114 336.283L404.249 304.438C405.68 303.329 407.744 303.592 408.853 305.023C409.962 306.454 409.7 308.517 408.269 309.627L367.134 341.471C366.537 341.936 365.822 342.162 365.13 342.162Z" fill="#F8F9FA" stroke="#263238" stroke-miterlimit="10"/>
<path d="M263.265 497.912C263.205 497.912 263.145 497.912 263.086 497.912C261.273 497.817 259.889 496.278 259.985 494.465C263.658 424.444 271.327 278.808 271.017 271.772C270.957 270.448 270.48 269.923 270.063 269.613C268.023 268.086 263.038 268.635 261.07 269.124C259.305 269.553 257.528 268.48 257.099 266.727C256.657 264.973 257.731 263.184 259.496 262.755C260.45 262.517 268.93 260.561 273.999 264.353C276.205 266.011 277.445 268.468 277.577 271.485C277.97 280.609 266.974 486.534 266.545 494.811C266.437 496.552 264.994 497.912 263.265 497.912Z" fill="#F8F9FA" stroke="#263238" stroke-miterlimit="10"/>
<path d="M229.262 309.937C228.022 309.937 226.829 309.221 226.281 308.017C225.529 306.371 226.257 304.427 227.903 303.663C228.153 303.556 252.758 292.238 270.087 279.059C271.53 277.962 273.593 278.248 274.679 279.691C275.776 281.134 275.49 283.197 274.047 284.283C256.121 297.903 231.648 309.15 230.622 309.627C230.181 309.841 229.727 309.937 229.262 309.937Z" fill="#F8F9FA" stroke="#263238" stroke-miterlimit="10"/>
<path d="M357.437 410.526C356.555 410.526 355.672 410.168 355.028 409.464C331.461 383.846 293.379 344.44 285.055 340.874C278.578 338.095 249.776 353.35 225.66 369.701C224.157 370.715 222.118 370.321 221.104 368.83C220.09 367.328 220.484 365.288 221.975 364.274C230.657 358.383 274.655 329.282 287.631 334.851C299.915 340.111 353.752 398.396 359.846 405.028C361.075 406.363 360.991 408.439 359.656 409.667C359.035 410.239 358.236 410.526 357.437 410.526Z" fill="#F8F9FA" stroke="#263238" stroke-miterlimit="10"/>
<path d="M281.417 134.401C280.248 130.596 278.555 126.684 278.555 126.684" stroke="#263238" stroke-miterlimit="10"/>
<path d="M287.989 179.651C287.989 179.651 281.178 169.274 281.393 164.695C281.608 160.103 282.264 143.728 282.49 140.006" stroke="#263238" stroke-miterlimit="10"/>
<path d="M341.635 257.662C340.048 271.02 338.629 284.616 339.07 286.358C339.941 289.852 341.468 285.702 342.565 272.594" stroke="#263238" stroke-miterlimit="10"/>
<path d="M335.087 189.967C341.802 196.92 350.258 206.39 349.995 209.694C349.554 215.156 345.63 228.919 345.189 230.446C345.01 231.09 343.722 240.572 342.374 251.556" stroke="#263238" stroke-miterlimit="10"/>
<path d="M327.048 181.952C327.048 181.952 328.885 183.705 331.533 186.353" stroke="#263238" stroke-miterlimit="10"/>
<path d="M373.574 205.543C373.574 205.543 368.768 207.296 362.649 208.167C356.531 209.038 347.574 208.608 347.359 209.264C347.145 209.92 346.489 211.447 347.801 212.103C349.113 212.759 356.543 212.759 364.403 211.006C372.274 209.252 375.327 208.382 373.574 205.543Z" fill="#263238" stroke="#263238" stroke-miterlimit="10"/>
<path d="M361.122 209.694C361.122 209.694 355.875 224.984 355.66 230.231C355.445 235.479 362.434 231.758 362.434 231.758C362.434 231.758 363.305 245.08 363.305 257.973C363.305 270.865 359.596 303.186 359.596 303.186C359.596 303.186 363.532 302.316 365.273 299.036C367.026 295.756 367.67 242.241 368.553 235.026C369.423 227.822 369.865 219.521 369.865 219.521C369.865 219.521 374.886 221.489 373.8 217.339C372.703 213.188 367.682 207.511 365.714 207.07C363.746 206.628 365.273 205.328 361.122 209.694Z" fill="#263238" stroke="#263238" stroke-miterlimit="10"/>
<path d="M362.434 231.758C362.434 231.758 364.402 220.177 364.402 215.597C364.402 211.006 360.466 213.844 359.596 215.812" stroke="#263238" stroke-miterlimit="10"/>
<path d="M365.714 207.07C365.714 207.07 372.703 201.607 374.457 195.06" stroke="#263238" stroke-miterlimit="10"/>
<path d="M373.574 205.543C373.574 205.543 383.843 201.607 385.155 190.909" stroke="#263238" stroke-miterlimit="10"/>
<path d="M331.187 203.706C334.359 203.539 337.365 203.599 339.715 204.446" stroke="#263238" stroke-miterlimit="10"/>
<path d="M302.36 191.78C302.36 191.78 310.447 202.705 316.78 204.016C318.724 204.422 321.061 204.41 323.554 204.267" stroke="#263238" stroke-miterlimit="10"/>
<path d="M269.407 154.915C269.073 158.54 268.99 161.796 269.371 164.027" stroke="#263238" stroke-miterlimit="10"/>
<path d="M273.701 129.869C273.701 129.869 271.172 140.794 269.872 150.812" stroke="#263238" stroke-miterlimit="10"/>
<path d="M394.827 280.001C393.348 279.798 391.786 279.834 390.188 280.096C374.194 282.816 364.033 295.184 360.801 315.84C360.443 318.118 359.906 326.479 359.274 338.704C351.736 337.905 336.53 336.151 311.007 332.609C277.434 327.958 240.282 314.922 230.359 311.284C231.588 299.131 232.697 290.771 233.651 288.063C238.827 273.227 255.715 269.768 255.99 269.708C257.767 269.374 258.936 267.657 258.602 265.88C258.268 264.103 256.562 262.922 254.773 263.256C253.926 263.411 233.913 267.371 227.449 285.893C226.352 289.053 225.052 298.547 223.669 311.964C223.633 312.048 223.585 312.119 223.549 312.203C223.299 312.871 223.275 313.562 223.442 314.195C217.336 374.782 209.643 508.312 209.178 515.039C209.058 516.851 210.418 518.414 212.231 518.533C212.302 518.533 212.386 518.545 212.458 518.545C214.163 518.545 215.606 517.221 215.725 515.492C219.327 462.311 225.124 366.994 229.703 318.023C241.797 322.376 277.553 334.589 310.113 339.097C336.077 342.699 351.438 344.464 358.952 345.251C355.97 405.039 351.164 533.775 350.913 540.621C350.818 543.161 352.798 545.284 355.326 545.38C355.386 545.38 355.446 545.38 355.505 545.38C357.962 545.38 360.002 543.436 360.097 540.955C362.816 467.845 368.374 326.992 369.901 317.224C372.501 300.598 379.847 291.14 391.75 289.113C392.418 288.994 393.038 288.982 393.599 289.053C396.091 289.387 398.429 287.646 398.775 285.129C399.097 282.661 397.344 280.347 394.827 280.001Z" fill="#F8F9FA" stroke="#263238" stroke-miterlimit="10"/>
<path d="M252.972 259.833C252.972 259.833 252.519 269.887 252.209 273.084C251.899 276.28 254.642 279.178 256.168 279.631C257.695 280.084 259.222 278.868 258.756 276.888C258.303 274.908 257.54 273.537 257.54 273.537C257.54 273.537 259.675 266.989 260.283 265.916C260.891 264.854 262.716 264.544 263.479 261.801C264.243 259.058 263.026 254.645 263.026 254.645" fill="#C7C7C7"/>
<path d="M252.972 259.833C252.972 259.833 252.519 269.887 252.209 273.084C251.899 276.28 254.642 279.178 256.168 279.631C257.695 280.084 259.222 278.868 258.756 276.888C258.303 274.908 257.54 273.537 257.54 273.537C257.54 273.537 259.675 266.989 260.283 265.916C260.891 264.854 262.716 264.544 263.479 261.801C264.243 259.058 263.026 254.645 263.026 254.645" stroke="#263238" stroke-miterlimit="10"/>
<path d="M397.427 171.588C397.427 171.588 410.511 189.466 410.069 191.649C409.628 193.831 402.878 210.397 401.351 221.298C399.824 232.199 392.847 249.206 390.009 255.957C387.17 262.719 382.817 269.47 382.59 270.34C382.364 271.211 373.216 276.232 372.775 279.929C372.334 283.639 373.586 287.789 373.586 287.789C373.586 287.789 381.279 281.432 383.89 282.339C388.423 283.913 388.375 289.817 385.274 291.2C382.614 292.381 380.682 294.599 380.682 294.599C380.36 294.134 377.844 296.424 380.181 298.69C381.529 300.002 384.976 301.958 387.158 301.528C389.341 301.087 393.265 297.163 393.265 297.163C393.265 297.163 399.801 293.239 402.424 292.369C405.036 291.498 407.66 288.004 406.79 282.995C405.919 277.985 403.307 275.147 403.08 269.255C402.866 263.363 409.187 251.818 415.949 242.003C422.712 232.187 426.194 220.857 430.333 211.697C434.471 202.538 437.095 192.293 436.224 188.583C435.354 184.874 431.859 175.071 431.859 175.071C431.859 175.071 415.508 157.407 412.455 156.107C409.413 154.795 397.427 171.588 397.427 171.588Z" fill="#C7C7C7" stroke="#263238" stroke-miterlimit="10"/>
<path d="M396.556 282.339C396.556 282.339 397.868 284.95 396.771 287.133C395.686 289.316 393.289 292.142 393.289 292.142L390.235 299.561" stroke="#263238" stroke-miterlimit="10"/>
<path d="M401.792 287.133C401.792 287.133 401.351 289.745 400.266 290.401C399.18 291.057 397.868 291.713 397.868 291.713L395.03 295.637" stroke="#263238" stroke-miterlimit="10"/>
<path d="M381.732 106.183C381.732 106.183 374.313 126.899 373.884 143.251C373.443 159.602 379.99 169.417 381.517 172.459C383.044 175.512 390.021 189.681 391.762 189.251C393.503 188.81 410.725 158.946 410.725 158.946C410.725 158.946 417.702 165.482 422.712 168.535C427.721 171.588 432.086 176.168 431.871 175.071C431.657 173.985 421.626 141.497 417.261 134.52C412.896 127.543 406.575 111.848 401.124 105.527C395.674 99.2056 386.514 97.023 384.117 99.4202" fill="#75E6A4"/>
<path d="M381.732 106.183C381.732 106.183 374.313 126.899 373.884 143.251C373.443 159.602 379.99 169.417 381.517 172.459C383.044 175.512 390.021 189.681 391.762 189.251C393.503 188.81 410.725 158.946 410.725 158.946C410.725 158.946 417.702 165.482 422.712 168.535C427.721 171.588 432.086 176.168 431.871 175.071C431.657 173.985 421.626 141.497 417.261 134.52C412.896 127.543 406.575 111.848 401.124 105.527C395.674 99.2056 386.514 97.023 384.117 99.4202" stroke="#263238" stroke-miterlimit="10"/>
<path d="M378.094 153.018C378.118 156.262 378.345 159.232 378.905 161.558" stroke="#263238" stroke-miterlimit="10"/>
<path d="M380.861 125.146C380.861 125.146 378.762 136.858 378.213 147.794" stroke="#263238" stroke-miterlimit="10"/>
<path d="M393.718 110.762C393.718 110.762 380.849 129.952 382.376 140.853" stroke="#263238" stroke-miterlimit="10"/>
<path d="M311.544 108.556C311.544 108.556 317.006 127.567 330.328 122.319C343.65 117.072 358.07 98.5138 362.876 94.1368C367.682 89.7716 370.08 89.9863 373.145 91.0836C376.198 92.1808 388.649 102.438 393.026 108.127C397.392 113.804 402.854 124.073 404.607 133.685C406.36 143.298 406.575 147.234 406.79 152.04C407.004 156.847 388.96 186.198 388.96 186.198L390.343 188.798L392.943 190.027L410.738 158.958L419.993 167.104L431.895 175.083C431.895 175.083 431.359 171.874 430.047 169.907C428.735 167.939 414.661 153.782 414.661 153.782C414.661 153.782 414.471 150.001 410.738 140.853C407.016 131.718 406.134 120.578 401.769 112.277C397.404 103.976 392.371 96.7725 386.264 92.8368C380.146 88.901 370.974 85.6331 367.694 85.4065C364.415 85.1918 365.071 80.8148 362.673 83.0092C360.276 85.1918 352.19 96.1166 352.19 96.1166C352.19 96.1166 336.029 116.213 326.631 115.557C317.233 114.901 315.706 106.385 315.706 106.385L311.544 108.556Z" fill="#263238" stroke="#263238" stroke-miterlimit="10"/>
<path d="M359.333 43.1863C359.333 43.1863 360.824 41.4569 361.313 37.9863C361.814 34.5156 359.822 35.267 359.822 35.267C359.822 35.267 361.552 32.0468 360.073 29.3275C358.582 26.6083 357.592 28.0872 357.592 28.0872C357.592 28.0872 359.083 23.8771 355.612 19.178C352.142 14.4789 348.683 18.9275 348.683 18.9275C348.683 18.9275 347.55 14.8725 344.819 13.1312C342.1 11.4018 338.999 12.3679 338.999 12.3679C338.999 12.3679 338.903 11.9743 335.433 10.9844C334.133 10.6147 329.577 11.5569 328.503 12.4514C328.491 12.4395 328.479 12.4275 328.467 12.4037C326.559 10.1496 324.889 12.3441 324.055 13.9064C323.601 13.4294 324.007 15.123 323.434 14.5982C322.838 14.0376 324.615 16.0532 324.102 15.9101C323.506 15.2303 323.697 16.6853 322.826 15.8863C319.081 12.3918 318.759 19.0587 318.759 19.0587C318.759 19.0587 317.173 15.6358 313.416 16.3872C309.671 17.1385 309.373 18.3551 309.373 18.3551C309.373 18.3551 308.61 18.7725 305.855 17.2697C303.1 15.767 301.12 19.8459 301.12 19.8459C301.12 19.8459 299.367 18.3431 295.371 17.5918C291.376 16.8404 292.867 20.5973 292.867 20.5973C292.867 20.5973 290.362 17.8422 285.365 19.345C280.367 20.8477 282.109 24.5927 282.109 24.5927C282.109 24.5927 277.362 24.3422 275.859 26.8468C274.356 29.3514 273.856 33.8477 273.856 33.8477C273.856 33.8477 271.1 34.8496 268.858 36.8532C266.843 38.6541 268.441 42.0532 268.787 42.7211C268.477 42.1606 267.189 40.0853 266.103 42.2679C264.851 44.7725 266.354 49.2688 266.354 49.2688C266.354 49.2688 264.851 49.7697 263.098 52.2743C261.345 54.7789 266.592 57.7725 266.592 57.7725C266.592 57.7725 263.336 60.2771 266.342 65.2743C267.427 67.0872 268.763 67.9101 270.015 68.2202C270.075 68.3156 270.111 68.411 270.17 68.5064C272.711 72.7285 273.08 71.1541 274.213 70.7009C274.714 71.1184 275.167 71.4165 275.466 71.5119C276.682 72.7642 278.769 74.7918 279.461 74.7918C280.463 74.7918 283.206 71.5596 287.953 69.8064C292.7 68.0532 301.203 73.0624 304.209 74.8037C307.214 76.5569 320.715 84.3092 326.464 82.3055C331.592 80.5285 332.94 77.7496 335.301 76.2826V72.645C335.301 72.645 336.041 70.6652 338.021 68.6853C340 66.7055 339.75 62.9844 339.75 62.9844L339.011 60.5037C339.011 60.5037 341.98 65.4532 345.701 65.4532C349.422 65.4532 349.411 62.734 349.411 62.734C349.411 62.734 353.37 65.7037 356.34 62.233C359.31 58.7624 357.33 55.0532 357.33 55.0532C357.33 55.0532 360.8 53.3239 359.811 49.8532C359.25 47.9092 357.926 46.3587 356.853 45.3688C356.471 43.8422 355.958 42.5422 355.958 42.5422C355.958 42.5422 358.463 40.5385 356.209 34.289C358.332 35.8275 359.333 43.1863 359.333 43.1863Z" fill="#263238" stroke="#263238" stroke-miterlimit="10"/>
<path d="M331.878 20.1441C331.878 20.1441 333.441 18.8083 336.327 21.9211C339.213 25.034 337.663 27.9321 337.663 27.9321C337.663 27.9321 341.885 28.8266 341.217 31.7129C340.549 34.611 339.213 35.4936 339.213 35.4936C339.213 35.4936 342.111 36.8294 341.885 40.8367C341.658 44.8441 340.776 46.1799 340.776 46.1799C340.776 46.1799 345.892 47.289 344.115 51.9643C342.338 56.6395 340.108 57.7487 340.108 57.7487L339.022 60.5276" stroke="#969696" stroke-miterlimit="10"/>
<path d="M320.536 18.1404C320.536 18.1404 323.649 15.0275 327.43 18.8083" stroke="#969696" stroke-miterlimit="10"/>
<path d="M279.127 67.5881C279.127 67.5881 280.057 78.7037 281.906 84.8817C282.574 87.1239 286.426 88.4239 286.521 91.0716C286.545 91.5963 286.605 92.1807 286.676 92.7771C287.094 95.9973 288.931 98.8596 291.65 100.637C294.954 102.795 299.39 105.944 301.048 108.341C303.827 112.361 307.107 115.986 312.378 114.126C316.887 112.528 318.509 110.536 318.509 110.536C318.509 110.536 320.476 119.803 327.883 117.954C335.289 116.106 352.607 95.3771 355.386 93.8266C358.165 92.2881 363.722 86.4202 363.722 86.4202L342.421 81.1725L336.864 74.6844C336.864 74.6844 338.7 61.7917 333.775 60.4798C325.271 58.2138 325.748 66.9679 325.438 68.8165C325.438 68.8165 323.589 76.8431 321.121 74.6844C318.652 72.5257 317.411 69.1266 316.183 70.0569C314.943 70.9872 310.053 70.7486 308.514 69.1982C306.976 67.6596 306.308 65.4174 305.377 64.8092C304.447 64.189 306.618 62.0303 295.812 62.6505C285.007 63.2706 285.317 66.6697 283.766 67.278C282.216 67.8982 279.127 67.5881 279.127 67.5881Z" fill="#C7C7C7" stroke="#263238" stroke-miterlimit="10"/>
<path d="M336.864 74.6844C336.864 74.6844 335.075 78.9303 333.548 81.101C332.021 83.2835 330.065 81.101 330.065 81.101" stroke="#263238" stroke-miterlimit="10"/>
<path d="M294.966 84.1661C294.966 84.1661 300.464 80.3138 307.656 81.6257" stroke="#263238" stroke-miterlimit="10"/>
<path d="M298.019 86.3367L300.416 88.734C300.416 88.734 304.555 90.0459 307.608 86.1221" stroke="#263238" stroke-miterlimit="10"/>
<path d="M302.587 98.3348C302.587 99.4201 300.19 100.517 300.19 100.517C300.19 100.517 295.395 103.571 292.557 102.259C289.718 100.947 292.044 91.2623 292.044 91.2623C292.044 91.2623 292.366 87.9229 290.768 87.1357" fill="#C7C7C7"/>
<path d="M302.587 98.3348C302.587 99.4201 300.19 100.517 300.19 100.517C300.19 100.517 295.395 103.571 292.557 102.259C289.718 100.947 292.044 91.2623 292.044 91.2623C292.044 91.2623 292.366 87.9229 290.768 87.1357" stroke="#263238" stroke-miterlimit="10"/>
<path d="M300.416 102.915C300.416 102.915 305.425 103.571 308.478 99.6469" stroke="#263238" stroke-miterlimit="10"/>
<path d="M286.2 87.9349L287.285 90.3322C287.285 90.3322 290.064 91.1909 291.591 89.4496" stroke="#263238" stroke-miterlimit="10"/>
<path d="M290.159 86.122C290.159 86.122 285.198 83.4147 281.906 84.8697" stroke="#263238" stroke-miterlimit="10"/>
<path d="M318.509 110.536C318.509 110.536 324.174 107.697 326.356 105.3C328.539 102.903 330.28 98.1082 330.722 95.4844C330.722 95.4844 331.7 102.283 327.454 107.149C323.196 112.003 321.383 115.497 321.383 115.497C321.383 115.497 319.141 112.098 318.509 110.536Z" fill="#263238" stroke="#263238" stroke-miterlimit="10"/>
<path d="M167.721 189.001C167.721 189.001 172.026 209.205 175.342 214.679C178.657 220.141 220.067 233.559 227.02 234.716C233.973 235.873 237.289 237.697 243.586 236.373C249.883 235.05 253.354 233.726 254.022 233.225C254.69 232.724 262.8 232.724 264.791 232.891C266.783 233.058 269.932 231.567 268.93 230.41C267.94 229.253 267.773 229.253 266.282 229.253C264.791 229.253 262.144 229.42 259.663 228.919C257.182 228.418 253.533 227.762 253.533 227.762C253.533 227.762 257.337 226.105 258.995 226.105C260.653 226.105 266.044 226.462 267.94 227.095C270.922 228.084 271.256 223.779 270.755 223.779C270.755 223.779 273.068 222.455 272.079 220.797C271.089 219.14 267.105 217.983 263.801 216.993C260.486 216.003 255.846 215.168 255.846 215.168C255.846 215.168 260.987 212.687 262.311 212.52C263.634 212.353 271.089 214.011 271.59 212.687C272.09 211.363 271.089 210.695 266.449 209.038C261.81 207.38 258.339 208.37 254.356 209.861C250.384 211.351 239.769 220.666 236.454 221.501C233.138 222.324 231.158 221.501 231.158 221.501C231.158 221.501 199.207 203.897 197.048 201.584C194.89 199.27 191.586 197.445 191.586 197.445L190.429 191.482L167.721 189.001Z" fill="#F8F9FA" stroke="#263238" stroke-miterlimit="10"/>
<path d="M176.833 200.427C176.833 200.427 181.973 196.622 188.258 198.268" stroke="#263238" stroke-miterlimit="10"/>
<path d="M251.863 221.632C251.863 221.632 255.667 220.141 259.317 220.308C262.966 220.475 270.743 223.791 270.743 223.791" stroke="#263238" stroke-miterlimit="10"/>
</g>
<defs>
<clipPath id="clip0_859_1036">
<rect x="0.915527" width="541.015" height="546" rx="15" fill="white"/>
</clipPath>
</defs>
</svg>
