<svg width="416" height="154" viewBox="0 0 416 154" fill="none" xmlns="http://www.w3.org/2000/svg">
<rect width="416" height="154" rx="15" fill="#E9ECEF"/>
<path d="M48.9659 92.7955C44.9508 92.7955 41.3712 92.0568 38.2273 90.5795C35.1023 89.1023 32.6212 87.0663 30.7841 84.4716C28.947 81.8769 27.9905 78.9034 27.9148 75.5511H39.8466C39.9792 77.8049 40.9261 79.6326 42.6875 81.0341C44.4489 82.4356 46.5417 83.1364 48.9659 83.1364C50.8977 83.1364 52.6023 82.7102 54.0795 81.858C55.5758 80.9867 56.7405 79.7841 57.5739 78.25C58.4261 76.697 58.8523 74.9167 58.8523 72.9091C58.8523 70.8636 58.4167 69.0644 57.5455 67.5114C56.6932 65.9583 55.5095 64.7462 53.9943 63.875C52.4792 63.0038 50.7462 62.5587 48.7955 62.5398C47.0909 62.5398 45.4337 62.8902 43.8239 63.5909C42.233 64.2917 40.9924 65.2481 40.1023 66.4602L29.1648 64.5L31.9205 33.8182H67.4886V43.875H42.0625L40.5568 58.4489H40.8977C41.9205 57.0095 43.464 55.8163 45.5284 54.8693C47.5928 53.9223 49.9034 53.4489 52.4602 53.4489C55.964 53.4489 59.089 54.2727 61.8352 55.9205C64.5814 57.5682 66.75 59.8314 68.3409 62.7102C69.9318 65.5701 70.7178 68.8655 70.6989 72.5966C70.7178 76.517 69.8087 80.0019 67.9716 83.0511C66.1534 86.0814 63.6061 88.4678 60.3295 90.2102C57.072 91.9337 53.2841 92.7955 48.9659 92.7955ZM102.091 93.2784C97.2045 93.2595 93 92.0568 89.4773 89.6705C85.9735 87.2841 83.2746 83.8277 81.3807 79.3011C79.5057 74.7746 78.5777 69.3295 78.5966 62.9659C78.5966 56.6212 79.5341 51.214 81.4091 46.7443C83.303 42.2746 86.0019 38.875 89.5057 36.5455C93.0284 34.197 97.2235 33.0227 102.091 33.0227C106.958 33.0227 111.144 34.197 114.648 36.5455C118.17 38.8939 120.879 42.303 122.773 46.7727C124.667 51.2235 125.604 56.6212 125.585 62.9659C125.585 69.3485 124.638 74.803 122.744 79.3295C120.869 83.8561 118.18 87.3125 114.676 89.6989C111.172 92.0852 106.977 93.2784 102.091 93.2784ZM102.091 83.0795C105.424 83.0795 108.085 81.4034 110.074 78.0511C112.063 74.6989 113.047 69.6705 113.028 62.9659C113.028 58.553 112.574 54.8788 111.665 51.9432C110.775 49.0076 109.506 46.8011 107.858 45.3239C106.229 43.8466 104.307 43.108 102.091 43.108C98.7765 43.108 96.125 44.7652 94.1364 48.0795C92.1477 51.3939 91.1439 56.3561 91.125 62.9659C91.125 67.4356 91.5701 71.1667 92.4602 74.1591C93.3693 77.1326 94.6477 79.3674 96.2955 80.8636C97.9432 82.3409 99.875 83.0795 102.091 83.0795ZM157.169 93.2784C152.283 93.2595 148.078 92.0568 144.555 89.6705C141.052 87.2841 138.353 83.8277 136.459 79.3011C134.584 74.7746 133.656 69.3295 133.675 62.9659C133.675 56.6212 134.612 51.214 136.487 46.7443C138.381 42.2746 141.08 38.875 144.584 36.5455C148.107 34.197 152.302 33.0227 157.169 33.0227C162.036 33.0227 166.222 34.197 169.726 36.5455C173.249 38.8939 175.957 42.303 177.851 46.7727C179.745 51.2235 180.682 56.6212 180.663 62.9659C180.663 69.3485 179.716 74.803 177.822 79.3295C175.947 83.8561 173.258 87.3125 169.754 89.6989C166.25 92.0852 162.055 93.2784 157.169 93.2784ZM157.169 83.0795C160.502 83.0795 163.163 81.4034 165.152 78.0511C167.141 74.6989 168.125 69.6705 168.107 62.9659C168.107 58.553 167.652 54.8788 166.743 51.9432C165.853 49.0076 164.584 46.8011 162.936 45.3239C161.307 43.8466 159.385 43.108 157.169 43.108C153.855 43.108 151.203 44.7652 149.214 48.0795C147.226 51.3939 146.222 56.3561 146.203 62.9659C146.203 67.4356 146.648 71.1667 147.538 74.1591C148.447 77.1326 149.726 79.3674 151.374 80.8636C153.021 82.3409 154.953 83.0795 157.169 83.0795ZM206.821 83.1364V42.9091H216.991V83.1364H206.821ZM191.793 68.108V57.9375H232.02V68.108H191.793Z" fill="#2B9879"/>
<path d="M24.5341 131.091V116.091H26.1534V117.824H26.3523C26.4754 117.634 26.6458 117.393 26.8636 117.099C27.0862 116.801 27.4034 116.536 27.8153 116.304C28.232 116.067 28.7955 115.949 29.5057 115.949C30.4242 115.949 31.2339 116.179 31.9347 116.638C32.6354 117.097 33.1823 117.748 33.5753 118.591C33.9683 119.434 34.1648 120.428 34.1648 121.574C34.1648 122.729 33.9683 123.731 33.5753 124.578C33.1823 125.421 32.6378 126.074 31.9418 126.538C31.2457 126.998 30.4432 127.227 29.5341 127.227C28.8333 127.227 28.2723 127.111 27.8509 126.879C27.4295 126.643 27.1051 126.375 26.8778 126.077C26.6506 125.774 26.4754 125.523 26.3523 125.324H26.2102V131.091H24.5341ZM26.1818 121.545C26.1818 122.369 26.3026 123.096 26.544 123.726C26.7855 124.351 27.1383 124.841 27.6023 125.196C28.0663 125.546 28.6345 125.722 29.3068 125.722C30.0076 125.722 30.5923 125.537 31.0611 125.168C31.5346 124.794 31.8897 124.292 32.1264 123.662C32.3679 123.027 32.4886 122.322 32.4886 121.545C32.4886 120.778 32.3703 120.087 32.1335 119.472C31.9015 118.851 31.5488 118.361 31.0753 118.001C30.6065 117.637 30.017 117.455 29.3068 117.455C28.625 117.455 28.0521 117.627 27.5881 117.973C27.1241 118.314 26.7737 118.792 26.5369 119.408C26.3002 120.018 26.1818 120.731 26.1818 121.545ZM39.9318 127.256C39.2405 127.256 38.6132 127.125 38.0497 126.865C37.4863 126.6 37.0388 126.219 36.7074 125.722C36.3759 125.22 36.2102 124.614 36.2102 123.903C36.2102 123.278 36.3333 122.772 36.5795 122.384C36.8258 121.991 37.1548 121.683 37.5668 121.46C37.9787 121.238 38.4332 121.072 38.9304 120.963C39.4323 120.849 39.9366 120.759 40.4432 120.693C41.1061 120.608 41.6435 120.544 42.0554 120.501C42.4721 120.454 42.7751 120.376 42.9645 120.267C43.1586 120.158 43.2557 119.969 43.2557 119.699V119.642C43.2557 118.941 43.0639 118.397 42.6804 118.009C42.3016 117.62 41.7263 117.426 40.9545 117.426C40.1544 117.426 39.527 117.601 39.0724 117.952C38.6179 118.302 38.2983 118.676 38.1136 119.074L36.5227 118.506C36.8068 117.843 37.1856 117.327 37.6591 116.957C38.1373 116.583 38.6581 116.323 39.2216 116.176C39.7898 116.025 40.3485 115.949 40.8977 115.949C41.2481 115.949 41.6506 115.991 42.1051 116.077C42.5644 116.157 43.0071 116.325 43.4332 116.581C43.8641 116.837 44.2216 117.223 44.5057 117.739C44.7898 118.255 44.9318 118.946 44.9318 119.812V127H43.2557V125.523H43.1705C43.0568 125.759 42.8674 126.013 42.6023 126.283C42.3371 126.553 41.9844 126.782 41.544 126.972C41.1037 127.161 40.5663 127.256 39.9318 127.256ZM40.1875 125.75C40.8504 125.75 41.4091 125.62 41.8636 125.359C42.3229 125.099 42.6686 124.763 42.9006 124.351C43.1373 123.939 43.2557 123.506 43.2557 123.051V121.517C43.1847 121.602 43.0284 121.68 42.7869 121.751C42.5502 121.818 42.2756 121.877 41.9631 121.929C41.6553 121.976 41.3546 122.019 41.0611 122.057C40.7723 122.09 40.5379 122.118 40.358 122.142C39.9223 122.199 39.5152 122.291 39.1364 122.419C38.7623 122.542 38.4593 122.729 38.2273 122.98C38 123.226 37.8864 123.562 37.8864 123.989C37.8864 124.571 38.1018 125.011 38.5327 125.31C38.9683 125.603 39.5199 125.75 40.1875 125.75ZM52.7354 116.091V117.511H47.082V116.091H52.7354ZM48.7298 113.477H50.4059V123.875C50.4059 124.348 50.4746 124.704 50.6119 124.94C50.7539 125.172 50.9338 125.329 51.1516 125.409C51.3742 125.485 51.6085 125.523 51.8548 125.523C52.0394 125.523 52.1909 125.513 52.3093 125.494C52.4277 125.471 52.5224 125.452 52.5934 125.438L52.9343 126.943C52.8207 126.986 52.6621 127.028 52.4585 127.071C52.2549 127.118 51.9968 127.142 51.6843 127.142C51.2108 127.142 50.7468 127.04 50.2923 126.837C49.8424 126.633 49.4684 126.323 49.1701 125.906C48.8765 125.49 48.7298 124.964 48.7298 124.33V113.477ZM55.2567 127V116.091H56.9329V127H55.2567ZM56.109 114.273C55.7823 114.273 55.5006 114.161 55.2638 113.939C55.0318 113.716 54.9158 113.449 54.9158 113.136C54.9158 112.824 55.0318 112.556 55.2638 112.334C55.5006 112.111 55.7823 112 56.109 112C56.4357 112 56.7151 112.111 56.9471 112.334C57.1838 112.556 57.3022 112.824 57.3022 113.136C57.3022 113.449 57.1838 113.716 56.9471 113.939C56.7151 114.161 56.4357 114.273 56.109 114.273ZM64.5767 127.227C63.5256 127.227 62.6188 126.995 61.8565 126.531C61.099 126.062 60.5142 125.409 60.1023 124.571C59.6951 123.728 59.4915 122.748 59.4915 121.631C59.4915 120.513 59.6951 119.528 60.1023 118.676C60.5142 117.819 61.0871 117.152 61.821 116.673C62.5597 116.19 63.4214 115.949 64.4062 115.949C64.9744 115.949 65.5355 116.044 66.0895 116.233C66.6435 116.422 67.1477 116.73 67.6023 117.156C68.0568 117.578 68.419 118.136 68.6889 118.832C68.9588 119.528 69.0938 120.385 69.0938 121.403V122.114H60.6847V120.665H67.3892C67.3892 120.049 67.2661 119.5 67.0199 119.017C66.7784 118.534 66.4328 118.153 65.983 117.874C65.5379 117.594 65.0123 117.455 64.4062 117.455C63.7386 117.455 63.161 117.62 62.6733 117.952C62.1903 118.278 61.8187 118.705 61.5582 119.23C61.2978 119.756 61.1676 120.319 61.1676 120.92V121.886C61.1676 122.71 61.3097 123.409 61.5938 123.982C61.8826 124.55 62.2827 124.983 62.794 125.281C63.3054 125.575 63.8996 125.722 64.5767 125.722C65.017 125.722 65.4148 125.66 65.7699 125.537C66.1297 125.409 66.4399 125.22 66.7003 124.969C66.9607 124.713 67.1619 124.396 67.304 124.017L68.9233 124.472C68.7528 125.021 68.4664 125.504 68.0639 125.92C67.6615 126.332 67.1643 126.654 66.5724 126.886C65.9806 127.114 65.3153 127.227 64.5767 127.227ZM73.3196 120.438V127H71.6435V116.091H73.2628V117.795H73.4048C73.6605 117.241 74.0488 116.796 74.5696 116.46C75.0904 116.119 75.7628 115.949 76.5866 115.949C77.3253 115.949 77.9716 116.1 78.5256 116.403C79.0795 116.702 79.5104 117.156 79.8182 117.767C80.1259 118.373 80.2798 119.14 80.2798 120.068V127H78.6037V120.182C78.6037 119.325 78.3812 118.657 77.9361 118.179C77.491 117.696 76.8802 117.455 76.1037 117.455C75.5687 117.455 75.0904 117.571 74.669 117.803C74.2524 118.035 73.9233 118.373 73.6818 118.818C73.4403 119.263 73.3196 119.803 73.3196 120.438ZM88.087 116.091V117.511H82.4336V116.091H88.087ZM84.0813 113.477H85.7575V123.875C85.7575 124.348 85.8261 124.704 85.9634 124.94C86.1055 125.172 86.2854 125.329 86.5032 125.409C86.7257 125.485 86.9601 125.523 87.2063 125.523C87.391 125.523 87.5425 125.513 87.6609 125.494C87.7792 125.471 87.8739 125.452 87.945 125.438L88.2859 126.943C88.1722 126.986 88.0136 127.028 87.81 127.071C87.6064 127.118 87.3484 127.142 87.0359 127.142C86.5624 127.142 86.0984 127.04 85.6438 126.837C85.194 126.633 84.82 126.323 84.5217 125.906C84.2281 125.49 84.0813 124.964 84.0813 124.33V113.477ZM98.1403 118.534L96.6346 118.96C96.5399 118.709 96.4002 118.465 96.2156 118.229C96.0356 117.987 95.7894 117.788 95.4769 117.632C95.1644 117.476 94.7643 117.398 94.2766 117.398C93.609 117.398 93.0527 117.552 92.6076 117.859C92.1673 118.162 91.9471 118.548 91.9471 119.017C91.9471 119.434 92.0986 119.763 92.4016 120.004C92.7047 120.246 93.1781 120.447 93.8221 120.608L95.4414 121.006C96.4168 121.242 97.1436 121.605 97.6218 122.092C98.1 122.575 98.3391 123.198 98.3391 123.96C98.3391 124.585 98.1592 125.144 97.7994 125.636C97.4442 126.129 96.9471 126.517 96.3079 126.801C95.6687 127.085 94.9253 127.227 94.0778 127.227C92.9651 127.227 92.0442 126.986 91.315 126.503C90.5858 126.02 90.1242 125.314 89.93 124.386L91.521 123.989C91.6725 124.576 91.9589 125.016 92.3803 125.31C92.8065 125.603 93.3628 125.75 94.0494 125.75C94.8306 125.75 95.4509 125.584 95.9102 125.253C96.3742 124.917 96.6062 124.514 96.6062 124.045C96.6062 123.667 96.4736 123.349 96.2085 123.094C95.9433 122.833 95.5361 122.639 94.9869 122.511L93.1687 122.085C92.1696 121.848 91.4357 121.482 90.967 120.984C90.503 120.482 90.271 119.855 90.271 119.102C90.271 118.487 90.4438 117.942 90.7894 117.469C91.1398 116.995 91.6156 116.624 92.217 116.354C92.823 116.084 93.5096 115.949 94.2766 115.949C95.3562 115.949 96.2037 116.186 96.8192 116.659C97.4395 117.133 97.8799 117.758 98.1403 118.534ZM109.697 127.256C109.006 127.256 108.379 127.125 107.815 126.865C107.252 126.6 106.804 126.219 106.473 125.722C106.142 125.22 105.976 124.614 105.976 123.903C105.976 123.278 106.099 122.772 106.345 122.384C106.591 121.991 106.92 121.683 107.332 121.46C107.744 121.238 108.199 121.072 108.696 120.963C109.198 120.849 109.702 120.759 110.209 120.693C110.872 120.608 111.409 120.544 111.821 120.501C112.238 120.454 112.541 120.376 112.73 120.267C112.924 120.158 113.021 119.969 113.021 119.699V119.642C113.021 118.941 112.83 118.397 112.446 118.009C112.067 117.62 111.492 117.426 110.72 117.426C109.92 117.426 109.293 117.601 108.838 117.952C108.384 118.302 108.064 118.676 107.879 119.074L106.288 118.506C106.572 117.843 106.951 117.327 107.425 116.957C107.903 116.583 108.424 116.323 108.987 116.176C109.555 116.025 110.114 115.949 110.663 115.949C111.014 115.949 111.416 115.991 111.871 116.077C112.33 116.157 112.773 116.325 113.199 116.581C113.63 116.837 113.987 117.223 114.271 117.739C114.555 118.255 114.697 118.946 114.697 119.812V127H113.021V125.523H112.936C112.822 125.759 112.633 126.013 112.368 126.283C112.103 126.553 111.75 126.782 111.31 126.972C110.869 127.161 110.332 127.256 109.697 127.256ZM109.953 125.75C110.616 125.75 111.175 125.62 111.629 125.359C112.089 125.099 112.434 124.763 112.666 124.351C112.903 123.939 113.021 123.506 113.021 123.051V121.517C112.95 121.602 112.794 121.68 112.553 121.751C112.316 121.818 112.041 121.877 111.729 121.929C111.421 121.976 111.12 122.019 110.827 122.057C110.538 122.09 110.304 122.118 110.124 122.142C109.688 122.199 109.281 122.291 108.902 122.419C108.528 122.542 108.225 122.729 107.993 122.98C107.766 123.226 107.652 123.562 107.652 123.989C107.652 124.571 107.867 125.011 108.298 125.31C108.734 125.603 109.286 125.75 109.953 125.75ZM117.757 127V116.091H119.376V117.739H119.49C119.689 117.199 120.048 116.761 120.569 116.425C121.09 116.089 121.677 115.92 122.331 115.92C122.454 115.92 122.608 115.923 122.792 115.928C122.977 115.932 123.117 115.939 123.211 115.949V117.653C123.154 117.639 123.024 117.618 122.821 117.589C122.622 117.556 122.411 117.54 122.189 117.54C121.658 117.54 121.185 117.651 120.768 117.874C120.356 118.091 120.029 118.394 119.788 118.783C119.551 119.166 119.433 119.604 119.433 120.097V127H117.757ZM129.44 127.227C128.389 127.227 127.482 126.995 126.72 126.531C125.962 126.062 125.377 125.409 124.966 124.571C124.558 123.728 124.355 122.748 124.355 121.631C124.355 120.513 124.558 119.528 124.966 118.676C125.377 117.819 125.95 117.152 126.684 116.673C127.423 116.19 128.285 115.949 129.27 115.949C129.838 115.949 130.399 116.044 130.953 116.233C131.507 116.422 132.011 116.73 132.466 117.156C132.92 117.578 133.282 118.136 133.552 118.832C133.822 119.528 133.957 120.385 133.957 121.403V122.114H125.548V120.665H132.252C132.252 120.049 132.129 119.5 131.883 119.017C131.642 118.534 131.296 118.153 130.846 117.874C130.401 117.594 129.876 117.455 129.27 117.455C128.602 117.455 128.024 117.62 127.537 117.952C127.054 118.278 126.682 118.705 126.422 119.23C126.161 119.756 126.031 120.319 126.031 120.92V121.886C126.031 122.71 126.173 123.409 126.457 123.982C126.746 124.55 127.146 124.983 127.657 125.281C128.169 125.575 128.763 125.722 129.44 125.722C129.88 125.722 130.278 125.66 130.633 125.537C130.993 125.409 131.303 125.22 131.564 124.969C131.824 124.713 132.025 124.396 132.167 124.017L133.787 124.472C133.616 125.021 133.33 125.504 132.927 125.92C132.525 126.332 132.028 126.654 131.436 126.886C130.844 127.114 130.179 127.227 129.44 127.227ZM149.859 118.534L148.353 118.96C148.259 118.709 148.119 118.465 147.934 118.229C147.754 117.987 147.508 117.788 147.196 117.632C146.883 117.476 146.483 117.398 145.995 117.398C145.328 117.398 144.771 117.552 144.326 117.859C143.886 118.162 143.666 118.548 143.666 119.017C143.666 119.434 143.817 119.763 144.12 120.004C144.423 120.246 144.897 120.447 145.541 120.608L147.16 121.006C148.136 121.242 148.862 121.605 149.341 122.092C149.819 122.575 150.058 123.198 150.058 123.96C150.058 124.585 149.878 125.144 149.518 125.636C149.163 126.129 148.666 126.517 148.027 126.801C147.387 127.085 146.644 127.227 145.797 127.227C144.684 127.227 143.763 126.986 143.034 126.503C142.305 126.02 141.843 125.314 141.649 124.386L143.24 123.989C143.391 124.576 143.678 125.016 144.099 125.31C144.525 125.603 145.082 125.75 145.768 125.75C146.549 125.75 147.17 125.584 147.629 125.253C148.093 124.917 148.325 124.514 148.325 124.045C148.325 123.667 148.192 123.349 147.927 123.094C147.662 122.833 147.255 122.639 146.706 122.511L144.887 122.085C143.888 121.848 143.154 121.482 142.686 120.984C142.222 120.482 141.99 119.855 141.99 119.102C141.99 118.487 142.163 117.942 142.508 117.469C142.859 116.995 143.334 116.624 143.936 116.354C144.542 116.084 145.228 115.949 145.995 115.949C147.075 115.949 147.922 116.186 148.538 116.659C149.158 117.133 149.599 117.758 149.859 118.534ZM155.791 127.256C155.1 127.256 154.473 127.125 153.909 126.865C153.346 126.6 152.898 126.219 152.567 125.722C152.235 125.22 152.07 124.614 152.07 123.903C152.07 123.278 152.193 122.772 152.439 122.384C152.685 121.991 153.014 121.683 153.426 121.46C153.838 121.238 154.293 121.072 154.79 120.963C155.292 120.849 155.796 120.759 156.303 120.693C156.965 120.608 157.503 120.544 157.915 120.501C158.331 120.454 158.634 120.376 158.824 120.267C159.018 120.158 159.115 119.969 159.115 119.699V119.642C159.115 118.941 158.923 118.397 158.54 118.009C158.161 117.62 157.586 117.426 156.814 117.426C156.014 117.426 155.386 117.601 154.932 117.952C154.477 118.302 154.158 118.676 153.973 119.074L152.382 118.506C152.666 117.843 153.045 117.327 153.518 116.957C153.997 116.583 154.518 116.323 155.081 116.176C155.649 116.025 156.208 115.949 156.757 115.949C157.107 115.949 157.51 115.991 157.964 116.077C158.424 116.157 158.866 116.325 159.293 116.581C159.723 116.837 160.081 117.223 160.365 117.739C160.649 118.255 160.791 118.946 160.791 119.812V127H159.115V125.523H159.03C158.916 125.759 158.727 126.013 158.462 126.283C158.196 126.553 157.844 126.782 157.403 126.972C156.963 127.161 156.426 127.256 155.791 127.256ZM156.047 125.75C156.71 125.75 157.268 125.62 157.723 125.359C158.182 125.099 158.528 124.763 158.76 124.351C158.997 123.939 159.115 123.506 159.115 123.051V121.517C159.044 121.602 158.888 121.68 158.646 121.751C158.41 121.818 158.135 121.877 157.822 121.929C157.515 121.976 157.214 122.019 156.92 122.057C156.632 122.09 156.397 122.118 156.217 122.142C155.782 122.199 155.375 122.291 154.996 122.419C154.622 122.542 154.319 122.729 154.087 122.98C153.859 123.226 153.746 123.562 153.746 123.989C153.746 124.571 153.961 125.011 154.392 125.31C154.828 125.603 155.379 125.75 156.047 125.75ZM172.38 116.091L168.346 127H166.642L162.608 116.091H164.426L167.437 124.784H167.551L170.562 116.091H172.38ZM178.776 127.227C177.725 127.227 176.818 126.995 176.056 126.531C175.298 126.062 174.713 125.409 174.301 124.571C173.894 123.728 173.691 122.748 173.691 121.631C173.691 120.513 173.894 119.528 174.301 118.676C174.713 117.819 175.286 117.152 176.02 116.673C176.759 116.19 177.621 115.949 178.605 115.949C179.174 115.949 179.735 116.044 180.289 116.233C180.843 116.422 181.347 116.73 181.801 117.156C182.256 117.578 182.618 118.136 182.888 118.832C183.158 119.528 183.293 120.385 183.293 121.403V122.114H174.884V120.665H181.588C181.588 120.049 181.465 119.5 181.219 119.017C180.978 118.534 180.632 118.153 180.182 117.874C179.737 117.594 179.212 117.455 178.605 117.455C177.938 117.455 177.36 117.62 176.873 117.952C176.39 118.278 176.018 118.705 175.757 119.23C175.497 119.756 175.367 120.319 175.367 120.92V121.886C175.367 122.71 175.509 123.409 175.793 123.982C176.082 124.55 176.482 124.983 176.993 125.281C177.505 125.575 178.099 125.722 178.776 125.722C179.216 125.722 179.614 125.66 179.969 125.537C180.329 125.409 180.639 125.22 180.9 124.969C181.16 124.713 181.361 124.396 181.503 124.017L183.123 124.472C182.952 125.021 182.666 125.504 182.263 125.92C181.861 126.332 181.364 126.654 180.772 126.886C180.18 127.114 179.515 127.227 178.776 127.227ZM189.962 127.227C189.053 127.227 188.25 126.998 187.554 126.538C186.858 126.074 186.314 125.421 185.921 124.578C185.528 123.731 185.331 122.729 185.331 121.574C185.331 120.428 185.528 119.434 185.921 118.591C186.314 117.748 186.861 117.097 187.561 116.638C188.262 116.179 189.072 115.949 189.99 115.949C190.701 115.949 191.262 116.067 191.674 116.304C192.09 116.536 192.408 116.801 192.625 117.099C192.848 117.393 193.021 117.634 193.144 117.824H193.286V112.455H194.962V127H193.343V125.324H193.144C193.021 125.523 192.846 125.774 192.618 126.077C192.391 126.375 192.067 126.643 191.645 126.879C191.224 127.111 190.663 127.227 189.962 127.227ZM190.189 125.722C190.862 125.722 191.43 125.546 191.894 125.196C192.358 124.841 192.711 124.351 192.952 123.726C193.194 123.096 193.314 122.369 193.314 121.545C193.314 120.731 193.196 120.018 192.959 119.408C192.722 118.792 192.372 118.314 191.908 117.973C191.444 117.627 190.871 117.455 190.189 117.455C189.479 117.455 188.887 117.637 188.414 118.001C187.945 118.361 187.592 118.851 187.355 119.472C187.123 120.087 187.007 120.778 187.007 121.545C187.007 122.322 187.126 123.027 187.363 123.662C187.604 124.292 187.959 124.794 188.428 125.168C188.901 125.537 189.489 125.722 190.189 125.722ZM208.463 127.227C207.412 127.227 206.506 126.995 205.743 126.531C204.986 126.062 204.401 125.409 203.989 124.571C203.582 123.728 203.378 122.748 203.378 121.631C203.378 120.513 203.582 119.528 203.989 118.676C204.401 117.819 204.974 117.152 205.708 116.673C206.446 116.19 207.308 115.949 208.293 115.949C208.861 115.949 209.422 116.044 209.976 116.233C210.53 116.422 211.034 116.73 211.489 117.156C211.944 117.578 212.306 118.136 212.576 118.832C212.846 119.528 212.98 120.385 212.98 121.403V122.114H204.571V120.665H211.276C211.276 120.049 211.153 119.5 210.907 119.017C210.665 118.534 210.319 118.153 209.87 117.874C209.425 117.594 208.899 117.455 208.293 117.455C207.625 117.455 207.048 117.62 206.56 117.952C206.077 118.278 205.705 118.705 205.445 119.23C205.185 119.756 205.054 120.319 205.054 120.92V121.886C205.054 122.71 205.196 123.409 205.48 123.982C205.769 124.55 206.169 124.983 206.681 125.281C207.192 125.575 207.786 125.722 208.463 125.722C208.904 125.722 209.301 125.66 209.657 125.537C210.016 125.409 210.327 125.22 210.587 124.969C210.847 124.713 211.049 124.396 211.191 124.017L212.81 124.472C212.64 125.021 212.353 125.504 211.951 125.92C211.548 126.332 211.051 126.654 210.459 126.886C209.867 127.114 209.202 127.227 208.463 127.227ZM218.74 127.256C218.049 127.256 217.422 127.125 216.858 126.865C216.295 126.6 215.847 126.219 215.516 125.722C215.185 125.22 215.019 124.614 215.019 123.903C215.019 123.278 215.142 122.772 215.388 122.384C215.634 121.991 215.963 121.683 216.375 121.46C216.787 121.238 217.242 121.072 217.739 120.963C218.241 120.849 218.745 120.759 219.252 120.693C219.915 120.608 220.452 120.544 220.864 120.501C221.281 120.454 221.584 120.376 221.773 120.267C221.967 120.158 222.064 119.969 222.064 119.699V119.642C222.064 118.941 221.873 118.397 221.489 118.009C221.11 117.62 220.535 117.426 219.763 117.426C218.963 117.426 218.336 117.601 217.881 117.952C217.426 118.302 217.107 118.676 216.922 119.074L215.331 118.506C215.615 117.843 215.994 117.327 216.468 116.957C216.946 116.583 217.467 116.323 218.03 116.176C218.598 116.025 219.157 115.949 219.706 115.949C220.057 115.949 220.459 115.991 220.914 116.077C221.373 116.157 221.816 116.325 222.242 116.581C222.673 116.837 223.03 117.223 223.314 117.739C223.598 118.255 223.74 118.946 223.74 119.812V127H222.064V125.523H221.979C221.865 125.759 221.676 126.013 221.411 126.283C221.146 126.553 220.793 126.782 220.353 126.972C219.912 127.161 219.375 127.256 218.74 127.256ZM218.996 125.75C219.659 125.75 220.218 125.62 220.672 125.359C221.132 125.099 221.477 124.763 221.709 124.351C221.946 123.939 222.064 123.506 222.064 123.051V121.517C221.993 121.602 221.837 121.68 221.596 121.751C221.359 121.818 221.084 121.877 220.772 121.929C220.464 121.976 220.163 122.019 219.87 122.057C219.581 122.09 219.346 122.118 219.167 122.142C218.731 122.199 218.324 122.291 217.945 122.419C217.571 122.542 217.268 122.729 217.036 122.98C216.809 123.226 216.695 123.562 216.695 123.989C216.695 124.571 216.91 125.011 217.341 125.31C217.777 125.603 218.328 125.75 218.996 125.75ZM226.8 127V116.091H228.419V117.739H228.533C228.732 117.199 229.091 116.761 229.612 116.425C230.133 116.089 230.72 115.92 231.374 115.92C231.497 115.92 231.651 115.923 231.835 115.928C232.02 115.932 232.16 115.939 232.254 115.949V117.653C232.197 117.639 232.067 117.618 231.864 117.589C231.665 117.556 231.454 117.54 231.232 117.54C230.701 117.54 230.228 117.651 229.811 117.874C229.399 118.091 229.072 118.394 228.831 118.783C228.594 119.166 228.476 119.604 228.476 120.097V127H226.8ZM235.917 112.455V127H234.241V112.455H235.917ZM240.067 131.091C239.783 131.091 239.529 131.067 239.307 131.02C239.084 130.977 238.93 130.935 238.845 130.892L239.271 129.415C239.679 129.519 240.038 129.557 240.351 129.528C240.663 129.5 240.94 129.36 241.182 129.109C241.428 128.863 241.653 128.463 241.857 127.909L242.169 127.057L238.135 116.091H239.953L242.964 124.784H243.078L246.089 116.091H247.908L243.277 128.591C243.069 129.154 242.811 129.621 242.503 129.99C242.195 130.364 241.838 130.641 241.43 130.821C241.028 131.001 240.573 131.091 240.067 131.091Z" fill="black"/>
</svg>
