<svg width="28" height="28" viewBox="0 0 28 28" fill="none" xmlns="http://www.w3.org/2000/svg">
<path d="M23.625 6.125H19.25V5.25C19.25 4.55381 18.9734 3.88613 18.4812 3.39384C17.9889 2.90156 17.3212 2.625 16.625 2.625H11.375C10.6788 2.625 10.0111 2.90156 9.51884 3.39384C9.02656 3.88613 8.75 4.55381 8.75 5.25V6.125H4.375C3.91087 6.125 3.46575 6.30937 3.13756 6.63756C2.80937 6.96575 2.625 7.41087 2.625 7.875V21.875C2.625 22.3391 2.80937 22.7842 3.13756 23.1124C3.46575 23.4406 3.91087 23.625 4.375 23.625H23.625C24.0891 23.625 24.5342 23.4406 24.8624 23.1124C25.1906 22.7842 25.375 22.3391 25.375 21.875V7.875C25.375 7.41087 25.1906 6.96575 24.8624 6.63756C24.5342 6.30937 24.0891 6.125 23.625 6.125ZM10.5 5.25C10.5 5.01794 10.5922 4.79538 10.7563 4.63128C10.9204 4.46719 11.1429 4.375 11.375 4.375H16.625C16.8571 4.375 17.0796 4.46719 17.2437 4.63128C17.4078 4.79538 17.5 5.01794 17.5 5.25V6.125H10.5V5.25ZM23.625 7.875V12.4261C20.6716 14.0337 17.3625 14.8756 14 14.875C10.6376 14.8755 7.32864 14.0339 4.375 12.4272V7.875H23.625ZM23.625 21.875H4.375V14.3981C7.37181 15.8639 10.6639 16.6256 14 16.625C17.3361 16.6251 20.6282 15.863 23.625 14.397V21.875ZM11.375 12.25C11.375 12.0179 11.4672 11.7954 11.6313 11.6313C11.7954 11.4672 12.0179 11.375 12.25 11.375H15.75C15.9821 11.375 16.2046 11.4672 16.3687 11.6313C16.5328 11.7954 16.625 12.0179 16.625 12.25C16.625 12.4821 16.5328 12.7046 16.3687 12.8687C16.2046 13.0328 15.9821 13.125 15.75 13.125H12.25C12.0179 13.125 11.7954 13.0328 11.6313 12.8687C11.4672 12.7046 11.375 12.4821 11.375 12.25Z" fill="#777777"/>
</svg>
