<svg width="28" height="28" viewBox="0 0 28 28" fill="none" xmlns="http://www.w3.org/2000/svg">
<path d="M25.375 24.5H22.75V3.5H23.625C23.8571 3.5 24.0796 3.40781 24.2437 3.24372C24.4078 3.07962 24.5 2.85706 24.5 2.625C24.5 2.39294 24.4078 2.17038 24.2437 2.00628C24.0796 1.84219 23.8571 1.75 23.625 1.75H4.375C4.14294 1.75 3.92038 1.84219 3.75628 2.00628C3.59219 2.17038 3.5 2.39294 3.5 2.625C3.5 2.85706 3.59219 3.07962 3.75628 3.24372C3.92038 3.40781 4.14294 3.5 4.375 3.5H5.25V24.5H2.625C2.39294 24.5 2.17038 24.5922 2.00628 24.7563C1.84219 24.9204 1.75 25.1429 1.75 25.375C1.75 25.6071 1.84219 25.8296 2.00628 25.9937C2.17038 26.1578 2.39294 26.25 2.625 26.25H25.375C25.6071 26.25 25.8296 26.1578 25.9937 25.9937C26.1578 25.8296 26.25 25.6071 26.25 25.375C26.25 25.1429 26.1578 24.9204 25.9937 24.7563C25.8296 24.5922 25.6071 24.5 25.375 24.5ZM7 3.5H21V24.5H17.5V20.125C17.5 19.8929 17.4078 19.6704 17.2437 19.5063C17.0796 19.3422 16.8571 19.25 16.625 19.25H11.375C11.1429 19.25 10.9204 19.3422 10.7563 19.5063C10.5922 19.6704 10.5 19.8929 10.5 20.125V24.5H7V3.5ZM15.75 24.5H12.25V21H15.75V24.5ZM9.625 7C9.625 6.76794 9.71719 6.54538 9.88128 6.38128C10.0454 6.21719 10.2679 6.125 10.5 6.125H12.25C12.4821 6.125 12.7046 6.21719 12.8687 6.38128C13.0328 6.54538 13.125 6.76794 13.125 7C13.125 7.23206 13.0328 7.45462 12.8687 7.61872C12.7046 7.78281 12.4821 7.875 12.25 7.875H10.5C10.2679 7.875 10.0454 7.78281 9.88128 7.61872C9.71719 7.45462 9.625 7.23206 9.625 7ZM14.875 7C14.875 6.76794 14.9672 6.54538 15.1313 6.38128C15.2954 6.21719 15.5179 6.125 15.75 6.125H17.5C17.7321 6.125 17.9546 6.21719 18.1187 6.38128C18.2828 6.54538 18.375 6.76794 18.375 7C18.375 7.23206 18.2828 7.45462 18.1187 7.61872C17.9546 7.78281 17.7321 7.875 17.5 7.875H15.75C15.5179 7.875 15.2954 7.78281 15.1313 7.61872C14.9672 7.45462 14.875 7.23206 14.875 7ZM9.625 11.375C9.625 11.1429 9.71719 10.9204 9.88128 10.7563C10.0454 10.5922 10.2679 10.5 10.5 10.5H12.25C12.4821 10.5 12.7046 10.5922 12.8687 10.7563C13.0328 10.9204 13.125 11.1429 13.125 11.375C13.125 11.6071 13.0328 11.8296 12.8687 11.9937C12.7046 12.1578 12.4821 12.25 12.25 12.25H10.5C10.2679 12.25 10.0454 12.1578 9.88128 11.9937C9.71719 11.8296 9.625 11.6071 9.625 11.375ZM14.875 11.375C14.875 11.1429 14.9672 10.9204 15.1313 10.7563C15.2954 10.5922 15.5179 10.5 15.75 10.5H17.5C17.7321 10.5 17.9546 10.5922 18.1187 10.7563C18.2828 10.9204 18.375 11.1429 18.375 11.375C18.375 11.6071 18.2828 11.8296 18.1187 11.9937C17.9546 12.1578 17.7321 12.25 17.5 12.25H15.75C15.5179 12.25 15.2954 12.1578 15.1313 11.9937C14.9672 11.8296 14.875 11.6071 14.875 11.375ZM9.625 15.75C9.625 15.5179 9.71719 15.2954 9.88128 15.1313C10.0454 14.9672 10.2679 14.875 10.5 14.875H12.25C12.4821 14.875 12.7046 14.9672 12.8687 15.1313C13.0328 15.2954 13.125 15.5179 13.125 15.75C13.125 15.9821 13.0328 16.2046 12.8687 16.3687C12.7046 16.5328 12.4821 16.625 12.25 16.625H10.5C10.2679 16.625 10.0454 16.5328 9.88128 16.3687C9.71719 16.2046 9.625 15.9821 9.625 15.75ZM14.875 15.75C14.875 15.5179 14.9672 15.2954 15.1313 15.1313C15.2954 14.9672 15.5179 14.875 15.75 14.875H17.5C17.7321 14.875 17.9546 14.9672 18.1187 15.1313C18.2828 15.2954 18.375 15.5179 18.375 15.75C18.375 15.9821 18.2828 16.2046 18.1187 16.3687C17.9546 16.5328 17.7321 16.625 17.5 16.625H15.75C15.5179 16.625 15.2954 16.5328 15.1313 16.3687C14.9672 16.2046 14.875 15.9821 14.875 15.75Z" fill="#777777"/>
</svg>
