<svg width="324" height="20" viewBox="0 0 324 20" fill="none" xmlns="http://www.w3.org/2000/svg">
<path d="M4 7.72727C4 6.95076 4.18939 6.2429 4.56818 5.60369C4.94697 4.96449 5.45597 4.45549 6.09517 4.0767C6.73438 3.69792 7.44223 3.50852 8.21875 3.50852C8.8911 3.50852 9.51136 3.65294 10.0795 3.94176C10.6525 4.23059 11.1259 4.62595 11.5 5.12784C11.8741 5.625 12.1061 6.18845 12.196 6.81818H10.4773C10.3826 6.33049 10.1198 5.93277 9.68892 5.625C9.25805 5.3125 8.76799 5.15625 8.21875 5.15625C7.74527 5.15625 7.31439 5.27225 6.92614 5.50426C6.53788 5.73627 6.22775 6.0464 5.99574 6.43466C5.76373 6.82292 5.64773 7.25379 5.64773 7.72727C5.64773 8.20076 5.76373 8.63163 5.99574 9.01989C6.22775 9.40814 6.53788 9.71828 6.92614 9.95028C7.31439 10.1823 7.74527 10.2983 8.21875 10.2983C8.76799 10.2983 9.23201 10.1444 9.6108 9.83665C9.99432 9.52415 10.2358 9.12405 10.3352 8.63636H12.054C11.964 9.2661 11.7438 9.83191 11.3935 10.3338C11.0431 10.831 10.5933 11.224 10.044 11.5128C9.49953 11.8016 8.8911 11.946 8.21875 11.946C7.44223 11.946 6.73438 11.7566 6.09517 11.3778C5.45597 10.9991 4.94697 10.4901 4.56818 9.85085C4.18939 9.21165 4 8.50379 4 7.72727ZM8.14773 15.2273C7.11553 15.2273 6.14489 15.0331 5.2358 14.6449C4.33144 14.2566 3.53362 13.7192 2.84233 13.0327C2.15578 12.3414 1.616 11.5436 1.22301 10.6392C0.834754 9.73485 0.642992 8.7642 0.647727 7.72727C0.652462 6.69034 0.848958 5.7197 1.23722 4.81534C1.63021 3.91098 2.16998 3.11553 2.85653 2.42898C3.54309 1.73769 4.33854 1.19792 5.2429 0.809659C6.14725 0.421401 7.11553 0.227273 8.14773 0.227273C9.18466 0.227273 10.1553 0.421401 11.0597 0.809659C11.9688 1.19792 12.7642 1.73769 13.446 2.42898C14.1326 3.11553 14.67 3.91098 15.0582 4.81534C15.4465 5.7197 15.643 6.69034 15.6477 7.72727C15.6525 8.7642 15.4607 9.73485 15.0724 10.6392C14.6842 11.5436 14.1468 12.3414 13.4602 13.0327C12.7737 13.7192 11.9759 14.2566 11.0668 14.6449C10.1577 15.0331 9.18466 15.2273 8.14773 15.2273ZM8.14773 13.5795C8.95739 13.5795 9.71733 13.428 10.4276 13.125C11.1378 12.822 11.7604 12.4029 12.2955 11.8679C12.8305 11.3329 13.2495 10.7126 13.5526 10.0071C13.8556 9.29687 14.0047 8.5393 14 7.73438C13.9953 6.92472 13.8414 6.16477 13.5384 5.45455C13.2353 4.74432 12.8163 4.12169 12.2812 3.58665C11.7462 3.05161 11.1259 2.63258 10.4205 2.32955C9.71496 2.02652 8.95739 1.875 8.14773 1.875C7.3428 1.875 6.58759 2.02652 5.8821 2.32955C5.17661 2.63258 4.55634 3.05398 4.02131 3.59375C3.48627 4.12879 3.06487 4.75142 2.7571 5.46165C2.45407 6.16714 2.30019 6.92472 2.29545 7.73438C2.29072 8.53456 2.43987 9.28977 2.7429 10C3.04593 10.7055 3.46496 11.3258 4 11.8608C4.53977 12.3958 5.16241 12.8172 5.8679 13.125C6.57813 13.428 7.33807 13.5795 8.14773 13.5795ZM24.4315 15V13.7216L29.2326 8.46591C29.796 7.85038 30.2601 7.31534 30.6246 6.8608C30.9892 6.40152 31.2591 5.97064 31.4343 5.56818C31.6142 5.16098 31.7042 4.73485 31.7042 4.28977C31.7042 3.77841 31.5811 3.3357 31.3349 2.96165C31.0934 2.58759 30.762 2.29877 30.3406 2.09517C29.9192 1.89157 29.4457 1.78977 28.9201 1.78977C28.3614 1.78977 27.8737 1.90578 27.457 2.13778C27.0451 2.36506 26.7255 2.68466 26.4982 3.09659C26.2757 3.50852 26.1644 3.99148 26.1644 4.54545H24.4883C24.4883 3.69318 24.6848 2.94508 25.0778 2.30114C25.4708 1.6572 26.0058 1.1553 26.6829 0.795454C27.3647 0.435605 28.1294 0.255681 28.9769 0.255681C29.8292 0.255681 30.5844 0.435605 31.2425 0.795454C31.9007 1.1553 32.4168 1.64062 32.7908 2.25142C33.1649 2.86222 33.3519 3.54167 33.3519 4.28977C33.3519 4.82481 33.2549 5.34801 33.0607 5.85938C32.8713 6.366 32.5399 6.93182 32.0664 7.55682C31.5977 8.17708 30.9466 8.93466 30.1133 9.82955L26.8462 13.3239V13.4375H33.6076V15H24.4315ZM41.2852 15.1989C40.2151 15.1989 39.3036 14.9077 38.5508 14.3253C37.7979 13.7382 37.2227 12.8883 36.8249 11.7756C36.4272 10.6581 36.2283 9.30871 36.2283 7.72727C36.2283 6.1553 36.4272 4.81297 36.8249 3.70028C37.2274 2.58286 37.805 1.73059 38.5579 1.14347C39.3155 0.551609 40.2246 0.255681 41.2852 0.255681C42.3458 0.255681 43.2525 0.551609 44.0053 1.14347C44.7629 1.73059 45.3406 2.58286 45.7383 3.70028C46.1407 4.81297 46.342 6.1553 46.342 7.72727C46.342 9.30871 46.1431 10.6581 45.7454 11.7756C45.3477 12.8883 44.7724 13.7382 44.0195 14.3253C43.2667 14.9077 42.3552 15.1989 41.2852 15.1989ZM41.2852 13.6364C42.3458 13.6364 43.1696 13.125 43.7567 12.1023C44.3439 11.0795 44.6374 9.62121 44.6374 7.72727C44.6374 6.4678 44.5025 5.39536 44.2326 4.50994C43.9674 3.62453 43.5839 2.94981 43.082 2.4858C42.5849 2.02178 41.9859 1.78977 41.2852 1.78977C40.234 1.78977 39.4125 2.30824 38.8207 3.34517C38.2288 4.37737 37.9329 5.83807 37.9329 7.72727C37.9329 8.98674 38.0655 10.0568 38.3306 10.9375C38.5958 11.8182 38.9769 12.4882 39.4741 12.9474C39.976 13.4067 40.5797 13.6364 41.2852 13.6364ZM49.0408 15V13.7216L53.842 8.46591C54.4054 7.85038 54.8694 7.31534 55.234 6.8608C55.5986 6.40152 55.8685 5.97064 56.0437 5.56818C56.2236 5.16098 56.3136 4.73485 56.3136 4.28977C56.3136 3.77841 56.1905 3.3357 55.9442 2.96165C55.7028 2.58759 55.3713 2.29877 54.9499 2.09517C54.5285 1.89157 54.055 1.78977 53.5295 1.78977C52.9708 1.78977 52.4831 1.90578 52.0664 2.13778C51.6545 2.36506 51.3349 2.68466 51.1076 3.09659C50.8851 3.50852 50.7738 3.99148 50.7738 4.54545H49.0977C49.0977 3.69318 49.2942 2.94508 49.6871 2.30114C50.0801 1.6572 50.6152 1.1553 51.2923 0.795454C51.9741 0.435605 52.7388 0.255681 53.5863 0.255681C54.4386 0.255681 55.1938 0.435605 55.8519 0.795454C56.5101 1.1553 57.0262 1.64062 57.4002 2.25142C57.7743 2.86222 57.9613 3.54167 57.9613 4.28977C57.9613 4.82481 57.8642 5.34801 57.6701 5.85938C57.4807 6.366 57.1493 6.93182 56.6758 7.55682C56.207 8.17708 55.556 8.93466 54.7227 9.82955L51.4556 13.3239V13.4375H58.217V15H49.0408ZM60.4968 12.017V10.5682L66.8888 0.454545H67.94V2.69886H67.2298L62.4002 10.3409V10.4545H71.0082V12.017H60.4968ZM67.3434 15V11.5767V10.902V0.454545H69.0195V15H67.3434ZM80.147 15H78.3004L83.6413 0.454545H85.4595L90.8004 15H88.9538L84.6072 2.75568H84.4936L80.147 15ZM80.8288 9.31818H88.272V10.8807H80.8288V9.31818ZM94.0888 4.09091L96.7024 8.55114L99.3161 4.09091H101.248L97.7251 9.54545L101.248 15H99.3161L96.7024 10.767L94.0888 15H92.157L95.6229 9.54545L92.157 4.09091H94.0888ZM107.622 15.2273C106.637 15.2273 105.773 14.9929 105.03 14.5241C104.291 14.0554 103.714 13.3996 103.297 12.5568C102.885 11.714 102.679 10.7292 102.679 9.60227C102.679 8.46591 102.885 7.47396 103.297 6.62642C103.714 5.77888 104.291 5.12074 105.03 4.65199C105.773 4.18324 106.637 3.94886 107.622 3.94886C108.607 3.94886 109.469 4.18324 110.207 4.65199C110.951 5.12074 111.528 5.77888 111.94 6.62642C112.357 7.47396 112.565 8.46591 112.565 9.60227C112.565 10.7292 112.357 11.714 111.94 12.5568C111.528 13.3996 110.951 14.0554 110.207 14.5241C109.469 14.9929 108.607 15.2273 107.622 15.2273ZM107.622 13.7216C108.37 13.7216 108.986 13.5298 109.469 13.1463C109.952 12.7628 110.309 12.2585 110.541 11.6335C110.773 11.0085 110.889 10.3314 110.889 9.60227C110.889 8.87311 110.773 8.19366 110.541 7.56392C110.309 6.93419 109.952 6.42519 109.469 6.03693C108.986 5.64867 108.37 5.45455 107.622 5.45455C106.874 5.45455 106.259 5.64867 105.776 6.03693C105.293 6.42519 104.935 6.93419 104.703 7.56392C104.471 8.19366 104.355 8.87311 104.355 9.60227C104.355 10.3314 104.471 11.0085 104.703 11.6335C104.935 12.2585 105.293 12.7628 105.776 13.1463C106.259 13.5298 106.874 13.7216 107.622 13.7216ZM116.8 0.454545V15H115.124V0.454545H116.8ZM124.302 15.2273C123.317 15.2273 122.453 14.9929 121.71 14.5241C120.971 14.0554 120.393 13.3996 119.977 12.5568C119.565 11.714 119.359 10.7292 119.359 9.60227C119.359 8.46591 119.565 7.47396 119.977 6.62642C120.393 5.77888 120.971 5.12074 121.71 4.65199C122.453 4.18324 123.317 3.94886 124.302 3.94886C125.287 3.94886 126.148 4.18324 126.887 4.65199C127.63 5.12074 128.208 5.77888 128.62 6.62642C129.037 7.47396 129.245 8.46591 129.245 9.60227C129.245 10.7292 129.037 11.714 128.62 12.5568C128.208 13.3996 127.63 14.0554 126.887 14.5241C126.148 14.9929 125.287 15.2273 124.302 15.2273ZM124.302 13.7216C125.05 13.7216 125.665 13.5298 126.148 13.1463C126.631 12.7628 126.989 12.2585 127.221 11.6335C127.453 11.0085 127.569 10.3314 127.569 9.60227C127.569 8.87311 127.453 8.19366 127.221 7.56392C126.989 6.93419 126.631 6.42519 126.148 6.03693C125.665 5.64867 125.05 5.45455 124.302 5.45455C123.554 5.45455 122.938 5.64867 122.455 6.03693C121.972 6.42519 121.615 6.93419 121.383 7.56392C121.151 8.19366 121.035 8.87311 121.035 9.60227C121.035 10.3314 121.151 11.0085 121.383 11.6335C121.615 12.2585 121.972 12.7628 122.455 13.1463C122.938 13.5298 123.554 13.7216 124.302 13.7216ZM136.548 4.09091V5.51136H130.895V4.09091H136.548ZM132.542 1.47727H134.218V11.875C134.218 12.3485 134.287 12.7036 134.424 12.9403C134.566 13.1723 134.746 13.3286 134.964 13.4091C135.187 13.4848 135.421 13.5227 135.667 13.5227C135.852 13.5227 136.003 13.5133 136.122 13.4943C136.24 13.4706 136.335 13.4517 136.406 13.4375L136.747 14.9432C136.633 14.9858 136.475 15.0284 136.271 15.071C136.067 15.1184 135.809 15.142 135.497 15.142C135.023 15.142 134.559 15.0402 134.105 14.8366C133.655 14.633 133.281 14.3229 132.983 13.9062C132.689 13.4896 132.542 12.964 132.542 12.3295V1.47727ZM140.98 0.454545V15H139.304V0.454545H140.98ZM145.271 15.1136C144.921 15.1136 144.62 14.9882 144.369 14.7372C144.118 14.4863 143.993 14.1856 143.993 13.8352C143.993 13.4848 144.118 13.1842 144.369 12.9332C144.62 12.6823 144.921 12.5568 145.271 12.5568C145.622 12.5568 145.922 12.6823 146.173 12.9332C146.424 13.1842 146.55 13.4848 146.55 13.8352C146.55 14.0672 146.491 14.2803 146.372 14.4744C146.259 14.6686 146.105 14.8248 145.911 14.9432C145.721 15.0568 145.508 15.1136 145.271 15.1136ZM156.006 15H154.16L159.501 0.454545H161.319L166.66 15H164.813L160.467 2.75568H160.353L156.006 15ZM156.688 9.31818H164.131V10.8807H156.688V9.31818ZM170.374 0.454545V15H168.698V0.454545H170.374ZM175.12 0.454545V15H173.444V0.454545H175.12ZM183.815 15V4.09091H185.435V5.73864H185.548C185.747 5.19886 186.107 4.76089 186.628 4.42472C187.149 4.08854 187.736 3.92045 188.389 3.92045C188.512 3.92045 188.666 3.92282 188.851 3.92756C189.036 3.93229 189.175 3.93939 189.27 3.94886V5.65341C189.213 5.6392 189.083 5.6179 188.879 5.58949C188.68 5.55634 188.47 5.53977 188.247 5.53977C187.717 5.53977 187.243 5.65104 186.827 5.87358C186.415 6.09138 186.088 6.39441 185.847 6.78267C185.61 7.16619 185.491 7.60417 185.491 8.09659V15H183.815ZM191.257 15V4.09091H192.933V15H191.257ZM192.109 2.27273C191.782 2.27273 191.501 2.16146 191.264 1.93892C191.032 1.71638 190.916 1.44886 190.916 1.13636C190.916 0.823864 191.032 0.556345 191.264 0.333806C191.501 0.111269 191.782 0 192.109 0C192.436 0 192.715 0.111269 192.947 0.333806C193.184 0.556345 193.302 0.823864 193.302 1.13636C193.302 1.44886 193.184 1.71638 192.947 1.93892C192.715 2.16146 192.436 2.27273 192.109 2.27273ZM200.406 19.3182C199.597 19.3182 198.901 19.214 198.318 19.0057C197.736 18.8021 197.25 18.5322 196.862 18.196C196.479 17.8646 196.173 17.5095 195.946 17.1307L197.281 16.1932C197.433 16.392 197.625 16.6193 197.857 16.875C198.089 17.1354 198.406 17.3603 198.808 17.5497C199.215 17.7438 199.748 17.8409 200.406 17.8409C201.287 17.8409 202.014 17.6278 202.587 17.2017C203.16 16.7756 203.446 16.108 203.446 15.1989V12.983H203.304C203.181 13.1818 203.006 13.428 202.778 13.7216C202.556 14.0104 202.234 14.2685 201.812 14.4957C201.396 14.7183 200.832 14.8295 200.122 14.8295C199.241 14.8295 198.451 14.6212 197.75 14.2045C197.054 13.7879 196.502 13.1818 196.095 12.3864C195.693 11.5909 195.491 10.625 195.491 9.48864C195.491 8.37121 195.688 7.3982 196.081 6.5696C196.474 5.73627 197.021 5.09233 197.722 4.63778C198.422 4.1785 199.232 3.94886 200.151 3.94886C200.861 3.94886 201.424 4.06723 201.841 4.30398C202.262 4.53598 202.584 4.80114 202.807 5.09943C203.034 5.39299 203.209 5.63447 203.332 5.82386H203.503V4.09091H205.122V15.3125C205.122 16.25 204.909 17.0123 204.483 17.5994C204.062 18.1913 203.493 18.6245 202.778 18.8991C202.068 19.1785 201.277 19.3182 200.406 19.3182ZM200.349 13.3239C201.022 13.3239 201.59 13.17 202.054 12.8622C202.518 12.5545 202.871 12.1117 203.112 11.5341C203.354 10.9564 203.474 10.2652 203.474 9.46023C203.474 8.67424 203.356 7.98059 203.119 7.37926C202.883 6.77794 202.532 6.30682 202.068 5.96591C201.604 5.625 201.031 5.45455 200.349 5.45455C199.639 5.45455 199.047 5.63447 198.574 5.99432C198.105 6.35417 197.752 6.83712 197.516 7.44318C197.284 8.04924 197.168 8.72159 197.168 9.46023C197.168 10.2178 197.286 10.8878 197.523 11.4702C197.764 12.0478 198.119 12.5024 198.588 12.8338C199.062 13.1605 199.649 13.3239 200.349 13.3239ZM209.866 8.4375V15H208.19V0.454545H209.866V5.79545H210.009C210.264 5.23201 210.648 4.78456 211.159 4.45312C211.675 4.11695 212.362 3.94886 213.219 3.94886C213.962 3.94886 214.613 4.09801 215.172 4.39631C215.731 4.68987 216.164 5.14205 216.472 5.75284C216.784 6.3589 216.94 7.13068 216.94 8.06818V15H215.264V8.18182C215.264 7.31534 215.039 6.64536 214.589 6.17188C214.144 5.69366 213.527 5.45455 212.736 5.45455C212.187 5.45455 211.694 5.57055 211.259 5.80256C210.828 6.03456 210.487 6.37311 210.236 6.81818C209.99 7.26326 209.866 7.80303 209.866 8.4375ZM224.751 4.09091V5.51136H219.098V4.09091H224.751ZM220.745 1.47727H222.422V11.875C222.422 12.3485 222.49 12.7036 222.627 12.9403C222.77 13.1723 222.949 13.3286 223.167 13.4091C223.39 13.4848 223.624 13.5227 223.87 13.5227C224.055 13.5227 224.207 13.5133 224.325 13.4943C224.443 13.4706 224.538 13.4517 224.609 13.4375L224.95 14.9432C224.836 14.9858 224.678 15.0284 224.474 15.071C224.27 15.1184 224.012 15.142 223.7 15.142C223.226 15.142 222.762 15.0402 222.308 14.8366C221.858 14.633 221.484 14.3229 221.186 13.9062C220.892 13.4896 220.745 12.964 220.745 12.3295V1.47727ZM234.804 6.53409L233.299 6.96023C233.204 6.70928 233.064 6.46544 232.88 6.22869C232.7 5.98722 232.453 5.78835 232.141 5.6321C231.828 5.47585 231.428 5.39773 230.941 5.39773C230.273 5.39773 229.717 5.55161 229.272 5.85938C228.831 6.16241 228.611 6.5483 228.611 7.01705C228.611 7.43371 228.763 7.76278 229.066 8.00426C229.369 8.24574 229.842 8.44697 230.486 8.60795L232.105 9.00568C233.081 9.24242 233.808 9.60464 234.286 10.0923C234.764 10.5753 235.003 11.1979 235.003 11.9602C235.003 12.5852 234.823 13.1439 234.463 13.6364C234.108 14.1288 233.611 14.517 232.972 14.8011C232.333 15.0852 231.589 15.2273 230.742 15.2273C229.629 15.2273 228.708 14.9858 227.979 14.5028C227.25 14.0199 226.788 13.3144 226.594 12.3864L228.185 11.9886C228.337 12.5758 228.623 13.0161 229.044 13.3097C229.471 13.6032 230.027 13.75 230.713 13.75C231.495 13.75 232.115 13.5843 232.574 13.2528C233.038 12.9167 233.27 12.5142 233.27 12.0455C233.27 11.6667 233.138 11.3494 232.873 11.0938C232.607 10.8333 232.2 10.6392 231.651 10.5114L229.833 10.0852C228.834 9.84848 228.1 9.48153 227.631 8.98438C227.167 8.48248 226.935 7.85511 226.935 7.10227C226.935 6.48674 227.108 5.94223 227.453 5.46875C227.804 4.99527 228.28 4.62358 228.881 4.35369C229.487 4.08381 230.174 3.94886 230.941 3.94886C232.02 3.94886 232.868 4.18561 233.483 4.65909C234.104 5.13258 234.544 5.75758 234.804 6.53409ZM243.151 15V4.09091H244.771V5.73864H244.884C245.083 5.19886 245.443 4.76089 245.964 4.42472C246.485 4.08854 247.072 3.92045 247.725 3.92045C247.848 3.92045 248.002 3.92282 248.187 3.92756C248.371 3.93229 248.511 3.93939 248.606 3.94886V5.65341C248.549 5.6392 248.419 5.6179 248.215 5.58949C248.016 5.55634 247.806 5.53977 247.583 5.53977C247.053 5.53977 246.579 5.65104 246.163 5.87358C245.751 6.09138 245.424 6.39441 245.183 6.78267C244.946 7.16619 244.827 7.60417 244.827 8.09659V15H243.151ZM254.835 15.2273C253.783 15.2273 252.877 14.9953 252.114 14.5312C251.357 14.0625 250.772 13.4091 250.36 12.571C249.953 11.7282 249.749 10.7481 249.749 9.63068C249.749 8.51326 249.953 7.52841 250.36 6.67614C250.772 5.81913 251.345 5.15152 252.079 4.6733C252.817 4.19034 253.679 3.94886 254.664 3.94886C255.232 3.94886 255.793 4.04356 256.347 4.23295C256.901 4.42235 257.406 4.73011 257.86 5.15625C258.315 5.57765 258.677 6.13636 258.947 6.83239C259.217 7.52841 259.352 8.38542 259.352 9.40341V10.1136H250.942V8.66477H257.647C257.647 8.04924 257.524 7.5 257.278 7.01705C257.036 6.53409 256.691 6.15294 256.241 5.87358C255.796 5.59422 255.27 5.45455 254.664 5.45455C253.996 5.45455 253.419 5.62026 252.931 5.9517C252.448 6.27841 252.076 6.70455 251.816 7.23011C251.556 7.75568 251.425 8.31913 251.425 8.92045V9.88636C251.425 10.7102 251.567 11.4086 251.852 11.9815C252.14 12.5497 252.54 12.983 253.052 13.2812C253.563 13.5748 254.157 13.7216 254.835 13.7216C255.275 13.7216 255.673 13.66 256.028 13.5369C256.388 13.4091 256.698 13.2197 256.958 12.9688C257.219 12.7131 257.42 12.3958 257.562 12.017L259.181 12.4716C259.011 13.0208 258.724 13.5038 258.322 13.9205C257.919 14.3324 257.422 14.6544 256.83 14.8864C256.238 15.1136 255.573 15.2273 254.835 15.2273ZM269.629 6.53409L268.123 6.96023C268.028 6.70928 267.888 6.46544 267.704 6.22869C267.524 5.98722 267.278 5.78835 266.965 5.6321C266.653 5.47585 266.253 5.39773 265.765 5.39773C265.097 5.39773 264.541 5.55161 264.096 5.85938C263.656 6.16241 263.435 6.5483 263.435 7.01705C263.435 7.43371 263.587 7.76278 263.89 8.00426C264.193 8.24574 264.666 8.44697 265.31 8.60795L266.93 9.00568C267.905 9.24242 268.632 9.60464 269.11 10.0923C269.588 10.5753 269.827 11.1979 269.827 11.9602C269.827 12.5852 269.647 13.1439 269.288 13.6364C268.933 14.1288 268.435 14.517 267.796 14.8011C267.157 15.0852 266.414 15.2273 265.566 15.2273C264.453 15.2273 263.532 14.9858 262.803 14.5028C262.074 14.0199 261.612 13.3144 261.418 12.3864L263.009 11.9886C263.161 12.5758 263.447 13.0161 263.869 13.3097C264.295 13.6032 264.851 13.75 265.538 13.75C266.319 13.75 266.939 13.5843 267.398 13.2528C267.862 12.9167 268.094 12.5142 268.094 12.0455C268.094 11.6667 267.962 11.3494 267.697 11.0938C267.432 10.8333 267.024 10.6392 266.475 10.5114L264.657 10.0852C263.658 9.84848 262.924 9.48153 262.455 8.98438C261.991 8.48248 261.759 7.85511 261.759 7.10227C261.759 6.48674 261.932 5.94223 262.278 5.46875C262.628 4.99527 263.104 4.62358 263.705 4.35369C264.311 4.08381 264.998 3.94886 265.765 3.94886C266.844 3.94886 267.692 4.18561 268.308 4.65909C268.928 5.13258 269.368 5.75758 269.629 6.53409ZM276.924 15.2273C275.873 15.2273 274.967 14.9953 274.204 14.5312C273.447 14.0625 272.862 13.4091 272.45 12.571C272.043 11.7282 271.839 10.7481 271.839 9.63068C271.839 8.51326 272.043 7.52841 272.45 6.67614C272.862 5.81913 273.435 5.15152 274.169 4.6733C274.907 4.19034 275.769 3.94886 276.754 3.94886C277.322 3.94886 277.883 4.04356 278.437 4.23295C278.991 4.42235 279.495 4.73011 279.95 5.15625C280.404 5.57765 280.767 6.13636 281.037 6.83239C281.306 7.52841 281.441 8.38542 281.441 9.40341V10.1136H273.032V8.66477H279.737C279.737 8.04924 279.614 7.5 279.368 7.01705C279.126 6.53409 278.78 6.15294 278.331 5.87358C277.886 5.59422 277.36 5.45455 276.754 5.45455C276.086 5.45455 275.509 5.62026 275.021 5.9517C274.538 6.27841 274.166 6.70455 273.906 7.23011C273.645 7.75568 273.515 8.31913 273.515 8.92045V9.88636C273.515 10.7102 273.657 11.4086 273.941 11.9815C274.23 12.5497 274.63 12.983 275.142 13.2812C275.653 13.5748 276.247 13.7216 276.924 13.7216C277.365 13.7216 277.762 13.66 278.118 13.5369C278.477 13.4091 278.788 13.2197 279.048 12.9688C279.308 12.7131 279.51 12.3958 279.652 12.017L281.271 12.4716C281.1 13.0208 280.814 13.5038 280.412 13.9205C280.009 14.3324 279.512 14.6544 278.92 14.8864C278.328 15.1136 277.663 15.2273 276.924 15.2273ZM283.991 15V4.09091H285.61V5.73864H285.724C285.923 5.19886 286.283 4.76089 286.804 4.42472C287.324 4.08854 287.912 3.92045 288.565 3.92045C288.688 3.92045 288.842 3.92282 289.027 3.92756C289.211 3.93229 289.351 3.93939 289.446 3.94886V5.65341C289.389 5.6392 289.259 5.6179 289.055 5.58949C288.856 5.55634 288.645 5.53977 288.423 5.53977C287.893 5.53977 287.419 5.65104 287.002 5.87358C286.591 6.09138 286.264 6.39441 286.022 6.78267C285.786 7.16619 285.667 7.60417 285.667 8.09659V15H283.991ZM300.685 4.09091L296.651 15H294.946L290.912 4.09091H292.73L295.742 12.7841H295.855L298.867 4.09091H300.685ZM307.081 15.2273C306.029 15.2273 305.123 14.9953 304.36 14.5312C303.603 14.0625 303.018 13.4091 302.606 12.571C302.199 11.7282 301.995 10.7481 301.995 9.63068C301.995 8.51326 302.199 7.52841 302.606 6.67614C303.018 5.81913 303.591 5.15152 304.325 4.6733C305.064 4.19034 305.925 3.94886 306.91 3.94886C307.478 3.94886 308.039 4.04356 308.593 4.23295C309.147 4.42235 309.652 4.73011 310.106 5.15625C310.561 5.57765 310.923 6.13636 311.193 6.83239C311.463 7.52841 311.598 8.38542 311.598 9.40341V10.1136H303.189V8.66477H309.893C309.893 8.04924 309.77 7.5 309.524 7.01705C309.282 6.53409 308.937 6.15294 308.487 5.87358C308.042 5.59422 307.516 5.45455 306.91 5.45455C306.243 5.45455 305.665 5.62026 305.177 5.9517C304.694 6.27841 304.323 6.70455 304.062 7.23011C303.802 7.75568 303.672 8.31913 303.672 8.92045V9.88636C303.672 10.7102 303.814 11.4086 304.098 11.9815C304.386 12.5497 304.787 12.983 305.298 13.2812C305.809 13.5748 306.404 13.7216 307.081 13.7216C307.521 13.7216 307.919 13.66 308.274 13.5369C308.634 13.4091 308.944 13.2197 309.204 12.9688C309.465 12.7131 309.666 12.3958 309.808 12.017L311.427 12.4716C311.257 13.0208 310.97 13.5038 310.568 13.9205C310.165 14.3324 309.668 14.6544 309.076 14.8864C308.484 15.1136 307.819 15.2273 307.081 15.2273ZM318.267 15.2273C317.358 15.2273 316.555 14.9976 315.859 14.5384C315.163 14.0743 314.618 13.4209 314.225 12.5781C313.833 11.7306 313.636 10.7292 313.636 9.57386C313.636 8.42803 313.833 7.43371 314.225 6.59091C314.618 5.74811 315.165 5.09706 315.866 4.63778C316.567 4.1785 317.377 3.94886 318.295 3.94886C319.005 3.94886 319.566 4.06723 319.978 4.30398C320.395 4.53598 320.712 4.80114 320.93 5.09943C321.153 5.39299 321.325 5.63447 321.449 5.82386H321.591V0.454545H323.267V15H321.647V13.3239H321.449C321.325 13.5227 321.15 13.7737 320.923 14.0767C320.696 14.375 320.371 14.6425 319.95 14.8793C319.529 15.1113 318.967 15.2273 318.267 15.2273ZM318.494 13.7216C319.166 13.7216 319.734 13.5464 320.199 13.196C320.663 12.8409 321.015 12.3509 321.257 11.7259C321.498 11.0961 321.619 10.3693 321.619 9.54545C321.619 8.73106 321.501 8.01847 321.264 7.40767C321.027 6.79214 320.677 6.31392 320.213 5.97301C319.749 5.62737 319.176 5.45455 318.494 5.45455C317.784 5.45455 317.192 5.63684 316.718 6.00142C316.25 6.36127 315.897 6.85133 315.66 7.47159C315.428 8.08712 315.312 8.77841 315.312 9.54545C315.312 10.322 315.431 11.0275 315.667 11.6619C315.909 12.2917 316.264 12.7936 316.733 13.1676C317.206 13.5369 317.793 13.7216 318.494 13.7216Z" fill="black"/>
</svg>
