<svg width="169" height="19" viewBox="0 0 169 19" fill="none" xmlns="http://www.w3.org/2000/svg">
<path d="M4.39062 9.27273C4.39062 8.34091 4.6179 7.49148 5.07244 6.72443C5.52699 5.95739 6.13778 5.34659 6.90483 4.89204C7.67188 4.4375 8.52131 4.21023 9.45312 4.21023C10.2599 4.21023 11.0043 4.38352 11.6861 4.73011C12.3736 5.0767 12.9418 5.55114 13.3906 6.15341C13.8395 6.75 14.1179 7.42614 14.2259 8.18182H12.1634C12.0497 7.59659 11.7344 7.11932 11.2173 6.75C10.7003 6.375 10.1122 6.1875 9.45312 6.1875C8.88494 6.1875 8.3679 6.3267 7.90199 6.60511C7.43608 6.88352 7.06392 7.25568 6.78551 7.72159C6.5071 8.1875 6.3679 8.70455 6.3679 9.27273C6.3679 9.84091 6.5071 10.358 6.78551 10.8239C7.06392 11.2898 7.43608 11.6619 7.90199 11.9403C8.3679 12.2187 8.88494 12.358 9.45312 12.358C10.1122 12.358 10.669 12.1733 11.1236 11.804C11.5838 11.429 11.8736 10.9489 11.9929 10.3636H14.0554C13.9474 11.1193 13.6832 11.7983 13.2628 12.4006C12.8423 12.9972 12.3026 13.4687 11.6435 13.8153C10.9901 14.1619 10.2599 14.3352 9.45312 14.3352C8.52131 14.3352 7.67188 14.108 6.90483 13.6534C6.13778 13.1989 5.52699 12.5881 5.07244 11.821C4.6179 11.054 4.39062 10.2045 4.39062 9.27273ZM9.3679 18.2727C8.12926 18.2727 6.96449 18.0398 5.87358 17.5739C4.78835 17.108 3.83097 16.4631 3.00142 15.6392C2.17756 14.8097 1.52983 13.8523 1.05824 12.767C0.59233 11.6818 0.362216 10.517 0.367898 9.27273C0.37358 8.02841 0.609375 6.86364 1.07528 5.77841C1.54688 4.69318 2.1946 3.73864 3.01847 2.91477C3.84233 2.08523 4.79688 1.4375 5.8821 0.971591C6.96733 0.505682 8.12926 0.272727 9.3679 0.272727C10.6122 0.272727 11.777 0.505682 12.8622 0.971591C13.9531 1.4375 14.9077 2.08523 15.7259 2.91477C16.5497 3.73864 17.1946 4.69318 17.6605 5.77841C18.1264 6.86364 18.3622 8.02841 18.3679 9.27273C18.3736 10.517 18.1435 11.6818 17.6776 12.767C17.2116 13.8523 16.5668 14.8097 15.7429 15.6392C14.919 16.4631 13.9616 17.108 12.8707 17.5739C11.7798 18.0398 10.6122 18.2727 9.3679 18.2727ZM9.3679 16.2955C10.3395 16.2955 11.2514 16.1136 12.1037 15.75C12.956 15.3864 13.7031 14.8835 14.3452 14.2415C14.9872 13.5994 15.4901 12.8551 15.8537 12.0085C16.2173 11.1562 16.3963 10.2472 16.3906 9.28125C16.3849 8.30966 16.2003 7.39773 15.8366 6.54545C15.473 5.69318 14.9702 4.94602 14.3281 4.30398C13.6861 3.66193 12.9418 3.15909 12.0952 2.79545C11.2486 2.43182 10.3395 2.25 9.3679 2.25C8.40199 2.25 7.49574 2.43182 6.64915 2.79545C5.80256 3.15909 5.05824 3.66477 4.41619 4.3125C3.77415 4.95455 3.26847 5.7017 2.89915 6.55398C2.53551 7.40057 2.35085 8.30966 2.34517 9.28125C2.33949 10.2415 2.51847 11.1477 2.8821 12C3.24574 12.8466 3.74858 13.5909 4.39062 14.233C5.03835 14.875 5.78551 15.3807 6.6321 15.75C7.48438 16.1136 8.39631 16.2955 9.3679 16.2955ZM28.9084 18V16.4659L34.6697 10.1591C35.3459 9.42045 35.9027 8.77841 36.3402 8.23295C36.7777 7.68182 37.1016 7.16477 37.3118 6.68182C37.5277 6.19318 37.6357 5.68182 37.6357 5.14773C37.6357 4.53409 37.4879 4.00284 37.1925 3.55398C36.9027 3.10511 36.505 2.75852 35.9993 2.5142C35.4936 2.26989 34.9254 2.14773 34.2947 2.14773C33.6243 2.14773 33.0391 2.28693 32.5391 2.56534C32.0447 2.83807 31.6612 3.22159 31.3885 3.71591C31.1214 4.21023 30.9879 4.78977 30.9879 5.45454H28.9766C28.9766 4.43182 29.2124 3.53409 29.6839 2.76136C30.1555 1.98864 30.7976 1.38636 31.6101 0.954545C32.4283 0.522727 33.3459 0.306818 34.3629 0.306818C35.3857 0.306818 36.2919 0.522727 37.0817 0.954545C37.8714 1.38636 38.4908 1.96875 38.9396 2.7017C39.3885 3.43466 39.6129 4.25 39.6129 5.14773C39.6129 5.78977 39.4964 6.41761 39.2635 7.03125C39.0362 7.6392 38.6385 8.31818 38.0703 9.06818C37.5078 9.8125 36.7266 10.7216 35.7266 11.7955L31.8061 15.9886V16.125H39.9197V18H28.9084ZM49.1328 18.2386C47.8487 18.2386 46.755 17.8892 45.8516 17.1903C44.9482 16.4858 44.2578 15.4659 43.7805 14.1307C43.3033 12.7898 43.0646 11.1705 43.0646 9.27273C43.0646 7.38636 43.3033 5.77557 43.7805 4.44034C44.2635 3.09943 44.9567 2.0767 45.8601 1.37216C46.7692 0.661931 47.8601 0.306818 49.1328 0.306818C50.4055 0.306818 51.4936 0.661931 52.397 1.37216C53.3061 2.0767 53.9993 3.09943 54.4766 4.44034C54.9595 5.77557 55.201 7.38636 55.201 9.27273C55.201 11.1705 54.9624 12.7898 54.4851 14.1307C54.0078 15.4659 53.3175 16.4858 52.4141 17.1903C51.5107 17.8892 50.4169 18.2386 49.1328 18.2386ZM49.1328 16.3636C50.4055 16.3636 51.3942 15.75 52.0987 14.5227C52.8033 13.2955 53.1555 11.5455 53.1555 9.27273C53.1555 7.76136 52.9936 6.47443 52.6697 5.41193C52.3516 4.34943 51.8913 3.53977 51.2891 2.98295C50.6925 2.42614 49.9737 2.14773 49.1328 2.14773C47.8714 2.14773 46.8857 2.76989 46.1754 4.0142C45.4652 5.25284 45.1101 7.00568 45.1101 9.27273C45.1101 10.7841 45.2692 12.0682 45.5874 13.125C45.9055 14.1818 46.3629 14.9858 46.9595 15.5369C47.5618 16.0881 48.2862 16.3636 49.1328 16.3636ZM58.4396 18V16.4659L64.201 10.1591C64.8771 9.42045 65.4339 8.77841 65.8714 8.23295C66.3089 7.68182 66.6328 7.16477 66.843 6.68182C67.0589 6.19318 67.1669 5.68182 67.1669 5.14773C67.1669 4.53409 67.0192 4.00284 66.7237 3.55398C66.4339 3.10511 66.0362 2.75852 65.5305 2.5142C65.0249 2.26989 64.4567 2.14773 63.826 2.14773C63.1555 2.14773 62.5703 2.28693 62.0703 2.56534C61.576 2.83807 61.1925 3.22159 60.9197 3.71591C60.6527 4.21023 60.5192 4.78977 60.5192 5.45454H58.5078C58.5078 4.43182 58.7436 3.53409 59.2152 2.76136C59.6868 1.98864 60.3288 1.38636 61.1413 0.954545C61.9595 0.522727 62.8771 0.306818 63.8942 0.306818C64.9169 0.306818 65.8232 0.522727 66.6129 0.954545C67.4027 1.38636 68.022 1.96875 68.4709 2.7017C68.9197 3.43466 69.1442 4.25 69.1442 5.14773C69.1442 5.78977 69.0277 6.41761 68.7947 7.03125C68.5675 7.6392 68.1697 8.31818 67.6016 9.06818C67.0391 9.8125 66.2578 10.7216 65.2578 11.7955L61.3374 15.9886V16.125H69.451V18H58.4396ZM72.1868 14.4205V12.6818L79.8572 0.545454H81.1186V3.23864H80.2663L74.4709 12.4091V12.5455H84.8004V14.4205H72.1868ZM80.4027 18V13.892V13.0824V0.545454H82.4141V18H80.4027ZM95.767 18H93.5511L99.9602 0.545454H102.142L108.551 18H106.335L101.119 3.30682H100.983L95.767 18ZM96.5852 11.1818H105.517V13.0568H96.5852V11.1818ZM112.497 4.90909L115.634 10.2614L118.77 4.90909H121.088L116.861 11.4545L121.088 18H118.77L115.634 12.9205L112.497 18H110.179L114.338 11.4545L110.179 4.90909H112.497ZM128.737 18.2727C127.555 18.2727 126.518 17.9915 125.626 17.429C124.74 16.8665 124.047 16.0795 123.547 15.0682C123.053 14.0568 122.805 12.875 122.805 11.5227C122.805 10.1591 123.053 8.96875 123.547 7.9517C124.047 6.93466 124.74 6.14489 125.626 5.58239C126.518 5.01989 127.555 4.73864 128.737 4.73864C129.919 4.73864 130.953 5.01989 131.839 5.58239C132.732 6.14489 133.425 6.93466 133.919 7.9517C134.419 8.96875 134.669 10.1591 134.669 11.5227C134.669 12.875 134.419 14.0568 133.919 15.0682C133.425 16.0795 132.732 16.8665 131.839 17.429C130.953 17.9915 129.919 18.2727 128.737 18.2727ZM128.737 16.4659C129.635 16.4659 130.374 16.2358 130.953 15.7756C131.533 15.3153 131.962 14.7102 132.24 13.9602C132.518 13.2102 132.658 12.3977 132.658 11.5227C132.658 10.6477 132.518 9.83239 132.24 9.0767C131.962 8.32102 131.533 7.71023 130.953 7.24432C130.374 6.77841 129.635 6.54545 128.737 6.54545C127.839 6.54545 127.101 6.77841 126.521 7.24432C125.942 7.71023 125.513 8.32102 125.234 9.0767C124.956 9.83239 124.817 10.6477 124.817 11.5227C124.817 12.3977 124.956 13.2102 125.234 13.9602C125.513 14.7102 125.942 15.3153 126.521 15.7756C127.101 16.2358 127.839 16.4659 128.737 16.4659ZM139.751 0.545454V18H137.739V0.545454H139.751ZM148.753 18.2727C147.571 18.2727 146.534 17.9915 145.642 17.429C144.756 16.8665 144.062 16.0795 143.562 15.0682C143.068 14.0568 142.821 12.875 142.821 11.5227C142.821 10.1591 143.068 8.96875 143.562 7.9517C144.062 6.93466 144.756 6.14489 145.642 5.58239C146.534 5.01989 147.571 4.73864 148.753 4.73864C149.935 4.73864 150.969 5.01989 151.855 5.58239C152.747 6.14489 153.44 6.93466 153.935 7.9517C154.435 8.96875 154.685 10.1591 154.685 11.5227C154.685 12.875 154.435 14.0568 153.935 15.0682C153.44 16.0795 152.747 16.8665 151.855 17.429C150.969 17.9915 149.935 18.2727 148.753 18.2727ZM148.753 16.4659C149.651 16.4659 150.389 16.2358 150.969 15.7756C151.548 15.3153 151.977 14.7102 152.256 13.9602C152.534 13.2102 152.673 12.3977 152.673 11.5227C152.673 10.6477 152.534 9.83239 152.256 9.0767C151.977 8.32102 151.548 7.71023 150.969 7.24432C150.389 6.77841 149.651 6.54545 148.753 6.54545C147.855 6.54545 147.116 6.77841 146.537 7.24432C145.957 7.71023 145.528 8.32102 145.25 9.0767C144.972 9.83239 144.832 10.6477 144.832 11.5227C144.832 12.3977 144.972 13.2102 145.25 13.9602C145.528 14.7102 145.957 15.3153 146.537 15.7756C147.116 16.2358 147.855 16.4659 148.753 16.4659ZM163.448 4.90909V6.61364H156.664V4.90909H163.448ZM158.641 1.77273H160.653V14.25C160.653 14.8182 160.735 15.2443 160.9 15.5284C161.07 15.8068 161.286 15.9943 161.548 16.0909C161.815 16.1818 162.096 16.2273 162.391 16.2273C162.613 16.2273 162.795 16.2159 162.937 16.1932C163.079 16.1648 163.192 16.142 163.278 16.125L163.687 17.9318C163.55 17.983 163.36 18.0341 163.116 18.0852C162.871 18.142 162.562 18.1705 162.187 18.1705C161.619 18.1705 161.062 18.0483 160.516 17.804C159.977 17.5597 159.528 17.1875 159.17 16.6875C158.817 16.1875 158.641 15.5568 158.641 14.7955V1.77273ZM168.766 0.545454V18H166.755V0.545454H168.766Z" fill="black"/>
</svg>
